<?xml version="1.0" encoding="UTF-8"?>
<!--Generator: CustomSymbols by @serious_bret-->
<!DOCTYPE svg
PUBLIC "-//W3C//DTD SVG 1.1//EN"
       "http://www.w3.org/Graphics/SVG/1.1/DTD/svg11.dtd">
<svg version="1.1" xmlns="http://www.w3.org/2000/svg" xmlns:xlink="http://www.w3.org/1999/xlink" width="3300" height="2200">
 <g id="Notes">
  <rect height="2200" id="artboard" style="fill:white;opacity:1" width="3300" x="0" y="0"/>
  <line id="" style="fill:none;stroke:black;opacity:1;stroke-width:0.5;" x1="263" x2="3036" y1="292" y2="292"/>
  <text id="reftext1" style="stroke:none;fill:black;font-family:-apple-system,&quot;SF Pro Display&quot;,&quot;SF Pro Text&quot;,Helvetica,sans-serif;font-weight:bold;" transform="matrix(1 0 0 1 263 322)">Weight/Scale Variations</text>
  <text id="reftext2" style="stroke:none;fill:black;font-family:-apple-system,&quot;SF Pro Display&quot;,&quot;SF Pro Text&quot;,Helvetica,sans-serif;text-anchor:middle;" transform="matrix(1 0 0 1 559.711 322)">Ultralight</text>
  <text style="stroke:none;fill:black;font-family:-apple-system,&quot;SF Pro Display&quot;,&quot;SF Pro Text&quot;,Helvetica,sans-serif;text-anchor:middle;" transform="matrix(1 0 0 1 856.422 322)">Thin</text>
  <text style="stroke:none;fill:black;font-family:-apple-system,&quot;SF Pro Display&quot;,&quot;SF Pro Text&quot;,Helvetica,sans-serif;text-anchor:middle;" transform="matrix(1 0 0 1 1153.13 322)">Light</text>
  <text style="stroke:none;fill:black;font-family:-apple-system,&quot;SF Pro Display&quot;,&quot;SF Pro Text&quot;,Helvetica,sans-serif;text-anchor:middle;" transform="matrix(1 0 0 1 1449.84 322)">Regular</text>
  <text style="stroke:none;fill:black;font-family:-apple-system,&quot;SF Pro Display&quot;,&quot;SF Pro Text&quot;,Helvetica,sans-serif;text-anchor:middle;" transform="matrix(1 0 0 1 1746.56 322)">Medium</text>
  <text style="stroke:none;fill:black;font-family:-apple-system,&quot;SF Pro Display&quot;,&quot;SF Pro Text&quot;,Helvetica,sans-serif;text-anchor:middle;" transform="matrix(1 0 0 1 2043.27 322)">Semibold</text>
  <text style="stroke:none;fill:black;font-family:-apple-system,&quot;SF Pro Display&quot;,&quot;SF Pro Text&quot;,Helvetica,sans-serif;text-anchor:middle;" transform="matrix(1 0 0 1 2339.98 322)">Bold</text>
  <text style="stroke:none;fill:black;font-family:-apple-system,&quot;SF Pro Display&quot;,&quot;SF Pro Text&quot;,Helvetica,sans-serif;text-anchor:middle;" transform="matrix(1 0 0 1 2636.69 322)">Heavy</text>
  <text style="stroke:none;fill:black;font-family:-apple-system,&quot;SF Pro Display&quot;,&quot;SF Pro Text&quot;,Helvetica,sans-serif;text-anchor:middle;" transform="matrix(1 0 0 1 2933.4 322)">Black</text>
  <line id="" style="fill:none;stroke:black;opacity:1;stroke-width:0.5;" x1="263" x2="3036" y1="1903" y2="1903"/>
  <g id="" transform="matrix(1 0 0 1 263 1933)">
   <path d="M9.24805 0.830078C13.5547 0.830078 17.1387-2.74414 17.1387-7.05078C17.1387-11.3574 13.5449-14.9316 9.23828-14.9316C4.94141-14.9316 1.36719-11.3574 1.36719-7.05078C1.36719-2.74414 4.95117 0.830078 9.24805 0.830078ZM9.24805-0.654297C5.70312-0.654297 2.87109-3.49609 2.87109-7.05078C2.87109-10.6055 5.69336-13.4473 9.23828-13.4473C12.793-13.4473 15.6348-10.6055 15.6445-7.05078C15.6543-3.49609 12.8027-0.654297 9.24805-0.654297ZM6.39648-6.31836L8.50586-6.31836L8.50586-4.19922C8.50586-3.75977 8.79883-3.45703 9.22852-3.45703C9.67773-3.45703 9.9707-3.75977 9.9707-4.19922L9.9707-6.31836L12.0996-6.31836C12.5391-6.31836 12.8418-6.61133 12.8418-7.04102C12.8418-7.48047 12.5391-7.7832 12.0996-7.7832L9.9707-7.7832L9.9707-9.89258C9.9707-10.3418 9.67773-10.6445 9.22852-10.6445C8.79883-10.6445 8.50586-10.3418 8.50586-9.89258L8.50586-7.7832L6.39648-7.7832C5.94727-7.7832 5.64453-7.48047 5.64453-7.04102C5.64453-6.61133 5.94727-6.31836 6.39648-6.31836Z"/>
  </g>
  <g id="" transform="matrix(1 0 0 1 281.506 1933)">
   <path d="M11.709 2.91016C17.1582 2.91016 21.6699-1.61133 21.6699-7.05078C21.6699-12.5 17.1484-17.0117 11.6992-17.0117C6.25977-17.0117 1.74805-12.5 1.74805-7.05078C1.74805-1.61133 6.26953 2.91016 11.709 2.91016ZM11.709 1.25C7.09961 1.25 3.41797-2.44141 3.41797-7.05078C3.41797-11.6602 7.08984-15.3516 11.6992-15.3516C16.3086-15.3516 20-11.6602 20.0098-7.05078C20.0195-2.44141 16.3184 1.25 11.709 1.25ZM7.98828-6.23047L10.8789-6.23047L10.8789-3.32031C10.8789-2.83203 11.2109-2.5 11.6895-2.5C12.1777-2.5 12.5195-2.83203 12.5195-3.32031L12.5195-6.23047L15.4297-6.23047C15.918-6.23047 16.25-6.5625 16.25-7.04102C16.25-7.5293 15.918-7.87109 15.4297-7.87109L12.5195-7.87109L12.5195-10.7617C12.5195-11.2695 12.1777-11.6016 11.6895-11.6016C11.2109-11.6016 10.8789-11.2598 10.8789-10.7617L10.8789-7.87109L7.98828-7.87109C7.48047-7.87109 7.14844-7.5293 7.14844-7.04102C7.14844-6.5625 7.49023-6.23047 7.98828-6.23047Z"/>
  </g>
  <g id="" transform="matrix(1 0 0 1 304.924 1933)">
   <path d="M14.9707 5.66406C21.9336 5.66406 27.6953-0.0976562 27.6953-7.05078C27.6953-14.0137 21.9238-19.7754 14.9609-19.7754C8.00781-19.7754 2.25586-14.0137 2.25586-7.05078C2.25586-0.0976562 8.01758 5.66406 14.9707 5.66406ZM14.9707 3.84766C8.93555 3.84766 4.08203-1.01562 4.08203-7.05078C4.08203-13.0957 8.92578-17.9492 14.9609-17.9492C21.0059-17.9492 25.8594-13.0957 25.8691-7.05078C25.8789-1.01562 21.0156 3.84766 14.9707 3.84766ZM10.0586-6.14258L14.0625-6.14258L14.0625-2.12891C14.0625-1.5918 14.4336-1.2207 14.9512-1.2207C15.4883-1.2207 15.8594-1.5918 15.8594-2.12891L15.8594-6.14258L19.8828-6.14258C20.4102-6.14258 20.791-6.51367 20.791-7.03125C20.791-7.56836 20.4199-7.94922 19.8828-7.94922L15.8594-7.94922L15.8594-11.9531C15.8594-12.5098 15.4883-12.8809 14.9512-12.8809C14.4336-12.8809 14.0625-12.5 14.0625-11.9531L14.0625-7.94922L10.0586-7.94922C9.50195-7.94922 9.13086-7.56836 9.13086-7.03125C9.13086-6.51367 9.51172-6.14258 10.0586-6.14258Z"/>
  </g>
  <text style="stroke:none;fill:black;font-family:-apple-system,&quot;SF Pro Display&quot;,&quot;SF Pro Text&quot;,Helvetica,sans-serif;font-weight:bold;" transform="matrix(1 0 0 1 263 1953)">Design Variations</text>
  <text style="stroke:none;fill:black;font-family:-apple-system,&quot;SF Pro Display&quot;,&quot;SF Pro Text&quot;,Helvetica,sans-serif;" transform="matrix(1 0 0 1 263 1971)">Symbols are supported in up to nine weights and three scales.</text>
  <text style="stroke:none;fill:black;font-family:-apple-system,&quot;SF Pro Display&quot;,&quot;SF Pro Text&quot;,Helvetica,sans-serif;" transform="matrix(1 0 0 1 263 1989)">For optimal layout with text and other symbols, vertically align</text>
  <text style="stroke:none;fill:black;font-family:-apple-system,&quot;SF Pro Display&quot;,&quot;SF Pro Text&quot;,Helvetica,sans-serif;" transform="matrix(1 0 0 1 263 2007)">symbols with the adjacent text.</text>
  <line id="" style="fill:none;stroke:#00AEEF;stroke-width:0.5;opacity:1.0;" x1="776" x2="776" y1="1919" y2="1933"/>
  <g id="" transform="matrix(1 0 0 1 776 1933)">
   <path d="M3.31055 0.126953C3.82812 0.126953 4.08203-0.0683594 4.26758-0.605469L5.52734-4.0625L11.2891-4.0625L12.5488-0.605469C12.7344-0.0683594 12.9883 0.126953 13.4961 0.126953C14.0137 0.126953 14.3457-0.185547 14.3457-0.673828C14.3457-0.839844 14.3164-0.986328 14.2383-1.20117L9.6582-13.3887C9.43359-13.9941 9.0332-14.2871 8.4082-14.2871C7.80273-14.2871 7.39258-13.9941 7.17773-13.3984L2.59766-1.19141C2.51953-0.976562 2.49023-0.830078 2.49023-0.664062C2.49023-0.175781 2.80273 0.126953 3.31055 0.126953ZM6.00586-5.53711L8.37891-12.1094L8.42773-12.1094L10.8008-5.53711Z"/>
  </g>
  <line id="" style="fill:none;stroke:#00AEEF;stroke-width:0.5;opacity:1.0;" x1="792.836" x2="792.836" y1="1919" y2="1933"/>
  <text style="stroke:none;fill:black;font-family:-apple-system,&quot;SF Pro Display&quot;,&quot;SF Pro Text&quot;,Helvetica,sans-serif;font-weight:bold;" transform="matrix(1 0 0 1 776 1953)">Margins</text>
  <text style="stroke:none;fill:black;font-family:-apple-system,&quot;SF Pro Display&quot;,&quot;SF Pro Text&quot;,Helvetica,sans-serif;" transform="matrix(1 0 0 1 776 1971)">Leading and trailing margins on the left and right side of each symbol</text>
  <text style="stroke:none;fill:black;font-family:-apple-system,&quot;SF Pro Display&quot;,&quot;SF Pro Text&quot;,Helvetica,sans-serif;" transform="matrix(1 0 0 1 776 1989)">can be adjusted by modifying the x-location of the margin guidelines.</text>
  <text style="stroke:none;fill:black;font-family:-apple-system,&quot;SF Pro Display&quot;,&quot;SF Pro Text&quot;,Helvetica,sans-serif;" transform="matrix(1 0 0 1 776 2007)">Modifications are automatically applied proportionally to all</text>
  <text style="stroke:none;fill:black;font-family:-apple-system,&quot;SF Pro Display&quot;,&quot;SF Pro Text&quot;,Helvetica,sans-serif;" transform="matrix(1 0 0 1 776 2025)">scales and weights.</text>
  <g id="" transform="matrix(1 0 0 1 1289 1933)">
   <path d="M2.8418 1.86523L4.54102 3.57422C5.40039 4.44336 6.38672 4.38477 7.31445 3.35938L17.4902-7.85156C17.7539-7.76367 18.0273-7.7832 18.3398-7.8418L19.4043-8.03711L20.0684-7.36328L20.0293-6.80664C19.9902-6.30859 20.1172-5.92773 20.6055-5.44922L21.3672-4.70703C21.8457-4.22852 22.4609-4.19922 22.9297-4.66797L25.8398-7.58789C26.3086-8.05664 26.2891-8.65234 25.8105-9.13086L25.0391-9.89258C24.5605-10.3711 24.1895-10.5273 23.7109-10.4883L23.1348-10.4395L22.4902-11.0742L22.7344-12.1973C22.8613-12.7637 22.7051-13.2031 22.1191-13.7891L19.9219-15.9766C16.582-19.2969 12.1484-19.2188 9.25781-16.3281C8.83789-15.918 8.80859-15.3418 9.04297-14.9512C9.27734-14.5898 9.73633-14.3555 10.3809-14.5215C11.8457-14.8633 13.3691-14.9219 14.7949-13.9844L14.209-12.5293C14.0137-12.0508 13.9844-11.6504 14.1113-11.2891L3.04688-0.898438C2.06055 0.0195312 1.98242 0.996094 2.8418 1.86523ZM10.752-15.957C13.1836-17.7344 16.4746-17.4316 18.7012-15.2051L21.1328-12.793C21.3672-12.5586 21.4062-12.373 21.3379-12.0312L21.0156-10.5469L22.5195-9.0625L23.5059-9.12109C23.7598-9.13086 23.8379-9.11133 24.0332-8.91602L24.6094-8.33984L22.168-5.89844L21.5918-6.47461C21.3965-6.66992 21.3672-6.74805 21.377-7.01172L21.4453-7.98828L19.9512-9.47266L18.4277-9.21875C18.1055-9.15039 17.959-9.17969 17.7148-9.41406L15.7129-11.416C15.459-11.6504 15.4297-11.8164 15.5859-12.1875L16.4648-14.2773C14.9023-15.7324 12.8711-16.3574 10.8398-15.7617C10.6836-15.7227 10.625-15.8496 10.752-15.957ZM5.27344 2.30469L4.10156 1.14258C3.63281 0.683594 3.74023 0.341797 4.14062-0.0195312L14.9512-10.1953L16.416-8.71094L6.42578 2.27539C6.07422 2.67578 5.74219 2.77344 5.27344 2.30469Z"/>
  </g>
  <text style="stroke:none;fill:black;font-family:-apple-system,&quot;SF Pro Display&quot;,&quot;SF Pro Text&quot;,Helvetica,sans-serif;font-weight:bold;" transform="matrix(1 0 0 1 1289 1953)">Exporting</text>
  <text style="stroke:none;fill:black;font-family:-apple-system,&quot;SF Pro Display&quot;,&quot;SF Pro Text&quot;,Helvetica,sans-serif;" transform="matrix(1 0 0 1 1289 1971)">Symbols should be outlined when exporting to ensure the</text>
  <text style="stroke:none;fill:black;font-family:-apple-system,&quot;SF Pro Display&quot;,&quot;SF Pro Text&quot;,Helvetica,sans-serif;" transform="matrix(1 0 0 1 1289 1989)">design is preserved when submitting to Xcode.</text>
  <text id="template-version" style="stroke:none;fill:black;font-family:-apple-system,&quot;SF Pro Display&quot;,&quot;SF Pro Text&quot;,Helvetica,sans-serif;text-anchor:end;" transform="matrix(1 0 0 1 3036 1933)">Template v.2.0</text>
  <text style="stroke:none;fill:black;font-family:-apple-system,&quot;SF Pro Display&quot;,&quot;SF Pro Text&quot;,Helvetica,sans-serif;text-anchor:end;" transform="matrix(1 0 0 1 3036 1951)">Requires Xcode 12 or greater</text>
  <text style="stroke:none;fill:black;font-family:-apple-system,&quot;SF Pro Display&quot;,&quot;SF Pro Text&quot;,Helvetica,sans-serif;" transform="matrix(1 0 0 1 263 726)">Small</text>
  <text style="stroke:none;fill:black;font-family:-apple-system,&quot;SF Pro Display&quot;,&quot;SF Pro Text&quot;,Helvetica,sans-serif;" transform="matrix(1 0 0 1 263 1156)">Medium</text>
  <text style="stroke:none;fill:black;font-family:-apple-system,&quot;SF Pro Display&quot;,&quot;SF Pro Text&quot;,Helvetica,sans-serif;" transform="matrix(1 0 0 1 263 1586)">Large</text>
 </g>
 <g id="Guides">
  <g id="H-reference" style="fill:#27AAE1;stroke:none;" transform="matrix(1 0 0 1 339 696)">
   <path d="M0.976562 0L3.66211 0L12.9883-24.4629L45.752-24.4629L55.127 0L57.7637 0L30.6152-70.459L28.125-70.459ZM29.3457-67.1387L29.4434-67.1387L44.873-26.709L13.8672-26.709Z"/>
  </g>
  <line id="Baseline-S" style="fill:none;stroke:#27AAE1;opacity:1;stroke-width:0.5;" x1="263" x2="3036" y1="696" y2="696"/>
  <line id="Capline-S" style="fill:none;stroke:#27AAE1;opacity:1;stroke-width:0.5;" x1="263" x2="3036" y1="625.541" y2="625.541"/>
  <g id="H-reference" style="fill:#27AAE1;stroke:none;" transform="matrix(1 0 0 1 339 1126)">
   <path d="M0.976562 0L3.66211 0L12.9883-24.4629L45.752-24.4629L55.127 0L57.7637 0L30.6152-70.459L28.125-70.459ZM29.3457-67.1387L29.4434-67.1387L44.873-26.709L13.8672-26.709Z"/>
  </g>
  <line id="Baseline-M" style="fill:none;stroke:#27AAE1;opacity:1;stroke-width:0.5;" x1="263" x2="3036" y1="1126" y2="1126"/>
  <line id="Capline-M" style="fill:none;stroke:#27AAE1;opacity:1;stroke-width:0.5;" x1="263" x2="3036" y1="1055.54" y2="1055.54"/>
  <g id="H-reference" style="fill:#27AAE1;stroke:none;" transform="matrix(1 0 0 1 339 1556)">
   <path d="M0.976562 0L3.66211 0L12.9883-24.4629L45.752-24.4629L55.127 0L57.7637 0L30.6152-70.459L28.125-70.459ZM29.3457-67.1387L29.4434-67.1387L44.873-26.709L13.8672-26.709Z"/>
  </g>
  <line id="Baseline-L" style="fill:none;stroke:#27AAE1;opacity:1;stroke-width:0.5;" x1="263" x2="3036" y1="1556" y2="1556"/>
  <line id="Capline-L" style="fill:none;stroke:#27AAE1;opacity:1;stroke-width:0.5;" x1="263" x2="3036" y1="1485.54" y2="1485.54"/>
  <line id="left-margin" x1="1411.7389982160432" x2="1411.7389982160432" y1="1030.79" y2="1150.12" style="fill:none;stroke:#00AEEF;stroke-width:0.5;opacity:1.0;"/>
  <line id="right-margin" x1="1491.4456731873358" x2="1491.4456731873358" y1="1030.79" y2="1150.12" style="fill:none;stroke:#00AEEF;stroke-width:0.5;opacity:1.0;"/>
 </g>
 <g id="Symbols">
  <g id="Black-L" transform="matrix(1.0,0.0,0.0,1.0,2875.038694482037,1467.0928445650836)">  <path stroke-width="1px" stroke="none" stroke-linejoin="miter" fill="#000000" fill-rule="nonzero" version="1.0" stroke-linecap="butt" stroke-opacity="1" fill-opacity="1" stroke-miterlimit="4" preserveAspectRatio="xMidYMid meet" stroke-dasharray="none" d="M37.462,10.484C35.459,11.556,34.434,13.885,34.946,16.122C35.226,17.31,35.482,17.613,41.656,23.81C45.197,27.374,48.039,30.31,47.969,30.356C47.923,30.403,46.874,30.589,45.663,30.729C39.07,31.591,32.267,33.478,27.934,35.645C21.923,38.674,17.939,43.613,15.19,51.511C12.394,59.455,11.672,71.313,13.396,80.679C15.213,90.534,19.407,98.105,25.138,101.926C30.543,105.491,40.491,108.146,52.046,109.055C56.45,109.405,67.516,109.195,71.523,108.682C84.034,107.121,92.561,104.069,97.127,99.503C101.856,94.774,105.118,86.969,106.399,77.371C106.842,74.039,106.888,65.792,106.492,62.553C105.048,50.695,100.645,41.563,94.378,37.416C89.788,34.387,82.939,32.104,74.994,30.962C73.014,30.659,71.36,30.403,71.313,30.356C71.243,30.31,74.086,27.374,77.627,23.81C83.801,17.613,84.057,17.31,84.337,16.122C84.872,13.839,83.801,11.532,81.751,10.484C80.656,9.901,78.559,9.878,77.51,10.391C77.091,10.6,72.921,14.607,68.215,19.29L59.641,27.84L51.091,19.29C46.362,14.607,42.192,10.6,41.772,10.391C40.724,9.878,38.557,9.925,37.462,10.484ZM63.183,61.202C72.152,65.722,73.806,66.631,74.249,67.306C75.297,68.867,75.157,70.754,73.923,72.222C73.48,72.781,70.614,74.319,63.089,78.07C54.073,82.566,52.745,83.172,51.767,83.172C50.322,83.172,48.971,82.38,48.295,81.191C47.76,80.259,47.76,80.213,47.76,69.706C47.76,58.22,47.76,58.267,49.088,57.009C49.856,56.31,50.718,55.96,51.883,55.937C52.419,55.914,55.611,57.405,63.183,61.202ZM63.183,61.202"/>
</g>
  <g id="Heavy-L" transform="matrix(1.0,0.0,0.0,1.0,2578.328694482037,1467.0928445650836)">  <path stroke-linecap="butt" preserveAspectRatio="xMidYMid meet" fill-rule="nonzero" stroke-linejoin="miter" stroke-miterlimit="4" stroke-dasharray="none" fill="#000000" stroke="none" stroke-width="1px" fill-opacity="1" stroke-opacity="1" version="1.0" d="M37.462,10.484C35.459,11.556,34.434,13.885,34.946,16.122C35.226,17.31,35.482,17.613,41.656,23.81C45.197,27.374,48.039,30.31,47.969,30.356C47.923,30.403,46.874,30.589,45.663,30.729C39.07,31.591,32.267,33.478,27.934,35.645C21.923,38.674,17.939,43.613,15.19,51.511C12.394,59.455,11.672,71.313,13.396,80.679C15.213,90.534,19.407,98.105,25.138,101.926C30.543,105.491,40.491,108.146,52.046,109.055C56.45,109.405,67.516,109.195,71.523,108.682C84.034,107.121,92.561,104.069,97.127,99.503C101.856,94.774,105.118,86.969,106.399,77.371C106.842,74.039,106.888,65.792,106.492,62.553C105.048,50.695,100.645,41.563,94.378,37.416C89.788,34.387,82.939,32.104,74.994,30.962C73.014,30.659,71.36,30.403,71.313,30.356C71.243,30.31,74.086,27.374,77.627,23.81C83.801,17.613,84.057,17.31,84.337,16.122C84.872,13.839,83.801,11.532,81.751,10.484C80.656,9.901,78.559,9.878,77.51,10.391C77.091,10.6,72.921,14.607,68.215,19.29L59.641,27.84L51.091,19.29C46.362,14.607,42.192,10.6,41.772,10.391C40.724,9.878,38.557,9.925,37.462,10.484ZM63.183,61.202C72.152,65.722,73.806,66.631,74.249,67.306C75.297,68.867,75.157,70.754,73.923,72.222C73.48,72.781,70.614,74.319,63.089,78.07C54.073,82.566,52.745,83.172,51.767,83.172C50.322,83.172,48.971,82.38,48.295,81.191C47.76,80.259,47.76,80.213,47.76,69.706C47.76,58.22,47.76,58.267,49.088,57.009C49.856,56.31,50.718,55.96,51.883,55.937C52.419,55.914,55.611,57.405,63.183,61.202ZM63.183,61.202"/>
</g>
  <g id="Bold-L" transform="matrix(1.0,0.0,0.0,1.0,2281.618694482037,1467.0928445650836)">  <path stroke-linejoin="miter" stroke-linecap="butt" version="1.0" fill="#000000" fill-rule="nonzero" stroke-opacity="1" stroke="none" stroke-miterlimit="4" fill-opacity="1" stroke-width="1px" stroke-dasharray="none" preserveAspectRatio="xMidYMid meet" d="M37.462,10.484C35.459,11.556,34.434,13.885,34.946,16.122C35.226,17.31,35.482,17.613,41.656,23.81C45.197,27.374,48.039,30.31,47.969,30.356C47.923,30.403,46.874,30.589,45.663,30.729C39.07,31.591,32.267,33.478,27.934,35.645C21.923,38.674,17.939,43.613,15.19,51.511C12.394,59.455,11.672,71.313,13.396,80.679C15.213,90.534,19.407,98.105,25.138,101.926C30.543,105.491,40.491,108.146,52.046,109.055C56.45,109.405,67.516,109.195,71.523,108.682C84.034,107.121,92.561,104.069,97.127,99.503C101.856,94.774,105.118,86.969,106.399,77.371C106.842,74.039,106.888,65.792,106.492,62.553C105.048,50.695,100.645,41.563,94.378,37.416C89.788,34.387,82.939,32.104,74.994,30.962C73.014,30.659,71.36,30.403,71.313,30.356C71.243,30.31,74.086,27.374,77.627,23.81C83.801,17.613,84.057,17.31,84.337,16.122C84.872,13.839,83.801,11.532,81.751,10.484C80.656,9.901,78.559,9.878,77.51,10.391C77.091,10.6,72.921,14.607,68.215,19.29L59.641,27.84L51.091,19.29C46.362,14.607,42.192,10.6,41.772,10.391C40.724,9.878,38.557,9.925,37.462,10.484ZM63.183,61.202C72.152,65.722,73.806,66.631,74.249,67.306C75.297,68.867,75.157,70.754,73.923,72.222C73.48,72.781,70.614,74.319,63.089,78.07C54.073,82.566,52.745,83.172,51.767,83.172C50.322,83.172,48.971,82.38,48.295,81.191C47.76,80.259,47.76,80.213,47.76,69.706C47.76,58.22,47.76,58.267,49.088,57.009C49.856,56.31,50.718,55.96,51.883,55.937C52.419,55.914,55.611,57.405,63.183,61.202ZM63.183,61.202"/>
</g>
  <g id="Semibold-L" transform="matrix(1.0,0.0,0.0,1.0,1984.9086944820374,1467.0928445650836)">  <path stroke-width="1px" version="1.0" fill="#000000" preserveAspectRatio="xMidYMid meet" stroke-dasharray="none" fill-opacity="1" fill-rule="nonzero" stroke-linecap="butt" stroke-linejoin="miter" stroke-opacity="1" stroke="none" stroke-miterlimit="4" d="M37.462,10.484C35.459,11.556,34.434,13.885,34.946,16.122C35.226,17.31,35.482,17.613,41.656,23.81C45.197,27.374,48.039,30.31,47.969,30.356C47.923,30.403,46.874,30.589,45.663,30.729C39.07,31.591,32.267,33.478,27.934,35.645C21.923,38.674,17.939,43.613,15.19,51.511C12.394,59.455,11.672,71.313,13.396,80.679C15.213,90.534,19.407,98.105,25.138,101.926C30.543,105.491,40.491,108.146,52.046,109.055C56.45,109.405,67.516,109.195,71.523,108.682C84.034,107.121,92.561,104.069,97.127,99.503C101.856,94.774,105.118,86.969,106.399,77.371C106.842,74.039,106.888,65.792,106.492,62.553C105.048,50.695,100.645,41.563,94.378,37.416C89.788,34.387,82.939,32.104,74.994,30.962C73.014,30.659,71.36,30.403,71.313,30.356C71.243,30.31,74.086,27.374,77.627,23.81C83.801,17.613,84.057,17.31,84.337,16.122C84.872,13.839,83.801,11.532,81.751,10.484C80.656,9.901,78.559,9.878,77.51,10.391C77.091,10.6,72.921,14.607,68.215,19.29L59.641,27.84L51.091,19.29C46.362,14.607,42.192,10.6,41.772,10.391C40.724,9.878,38.557,9.925,37.462,10.484ZM63.183,61.202C72.152,65.722,73.806,66.631,74.249,67.306C75.297,68.867,75.157,70.754,73.923,72.222C73.48,72.781,70.614,74.319,63.089,78.07C54.073,82.566,52.745,83.172,51.767,83.172C50.322,83.172,48.971,82.38,48.295,81.191C47.76,80.259,47.76,80.213,47.76,69.706C47.76,58.22,47.76,58.267,49.088,57.009C49.856,56.31,50.718,55.96,51.883,55.937C52.419,55.914,55.611,57.405,63.183,61.202ZM63.183,61.202"/>
</g>
  <g id="Medium-L" transform="matrix(1.0,0.0,0.0,1.0,1688.1986944820374,1467.0928445650836)">  <path stroke-opacity="1" stroke-linejoin="miter" preserveAspectRatio="xMidYMid meet" fill="#000000" fill-opacity="1" stroke-dasharray="none" stroke="none" fill-rule="nonzero" stroke-width="1px" stroke-linecap="butt" version="1.0" stroke-miterlimit="4" d="M37.462,10.484C35.459,11.556,34.434,13.885,34.946,16.122C35.226,17.31,35.482,17.613,41.656,23.81C45.197,27.374,48.039,30.31,47.969,30.356C47.923,30.403,46.874,30.589,45.663,30.729C39.07,31.591,32.267,33.478,27.934,35.645C21.923,38.674,17.939,43.613,15.19,51.511C12.394,59.455,11.672,71.313,13.396,80.679C15.213,90.534,19.407,98.105,25.138,101.926C30.543,105.491,40.491,108.146,52.046,109.055C56.45,109.405,67.516,109.195,71.523,108.682C84.034,107.121,92.561,104.069,97.127,99.503C101.856,94.774,105.118,86.969,106.399,77.371C106.842,74.039,106.888,65.792,106.492,62.553C105.048,50.695,100.645,41.563,94.378,37.416C89.788,34.387,82.939,32.104,74.994,30.962C73.014,30.659,71.36,30.403,71.313,30.356C71.243,30.31,74.086,27.374,77.627,23.81C83.801,17.613,84.057,17.31,84.337,16.122C84.872,13.839,83.801,11.532,81.751,10.484C80.656,9.901,78.559,9.878,77.51,10.391C77.091,10.6,72.921,14.607,68.215,19.29L59.641,27.84L51.091,19.29C46.362,14.607,42.192,10.6,41.772,10.391C40.724,9.878,38.557,9.925,37.462,10.484ZM63.183,61.202C72.152,65.722,73.806,66.631,74.249,67.306C75.297,68.867,75.157,70.754,73.923,72.222C73.48,72.781,70.614,74.319,63.089,78.07C54.073,82.566,52.745,83.172,51.767,83.172C50.322,83.172,48.971,82.38,48.295,81.191C47.76,80.259,47.76,80.213,47.76,69.706C47.76,58.22,47.76,58.267,49.088,57.009C49.856,56.31,50.718,55.96,51.883,55.937C52.419,55.914,55.611,57.405,63.183,61.202ZM63.183,61.202"/>
</g>
  <g id="Regular-L" transform="matrix(1.0,0.0,0.0,1.0,1391.4886944820373,1467.0928445650836)">  <path fill-opacity="1" fill="#000000" stroke-linejoin="miter" stroke="none" fill-rule="nonzero" stroke-width="1px" stroke-dasharray="none" version="1.0" stroke-linecap="butt" stroke-opacity="1" preserveAspectRatio="xMidYMid meet" stroke-miterlimit="4" d="M37.462,10.484C35.459,11.556,34.434,13.885,34.946,16.122C35.226,17.31,35.482,17.613,41.656,23.81C45.197,27.374,48.039,30.31,47.969,30.356C47.923,30.403,46.874,30.589,45.663,30.729C39.07,31.591,32.267,33.478,27.934,35.645C21.923,38.674,17.939,43.613,15.19,51.511C12.394,59.455,11.672,71.313,13.396,80.679C15.213,90.534,19.407,98.105,25.138,101.926C30.543,105.491,40.491,108.146,52.046,109.055C56.45,109.405,67.516,109.195,71.523,108.682C84.034,107.121,92.561,104.069,97.127,99.503C101.856,94.774,105.118,86.969,106.399,77.371C106.842,74.039,106.888,65.792,106.492,62.553C105.048,50.695,100.645,41.563,94.378,37.416C89.788,34.387,82.939,32.104,74.994,30.962C73.014,30.659,71.36,30.403,71.313,30.356C71.243,30.31,74.086,27.374,77.627,23.81C83.801,17.613,84.057,17.31,84.337,16.122C84.872,13.839,83.801,11.532,81.751,10.484C80.656,9.901,78.559,9.878,77.51,10.391C77.091,10.6,72.921,14.607,68.215,19.29L59.641,27.84L51.091,19.29C46.362,14.607,42.192,10.6,41.772,10.391C40.724,9.878,38.557,9.925,37.462,10.484ZM63.183,61.202C72.152,65.722,73.806,66.631,74.249,67.306C75.297,68.867,75.157,70.754,73.923,72.222C73.48,72.781,70.614,74.319,63.089,78.07C54.073,82.566,52.745,83.172,51.767,83.172C50.322,83.172,48.971,82.38,48.295,81.191C47.76,80.259,47.76,80.213,47.76,69.706C47.76,58.22,47.76,58.267,49.088,57.009C49.856,56.31,50.718,55.96,51.883,55.937C52.419,55.914,55.611,57.405,63.183,61.202ZM63.183,61.202"/>
</g>
  <g id="Light-L" transform="matrix(1.0,0.0,0.0,1.0,1094.7786944820375,1467.0928445650836)">  <path preserveAspectRatio="xMidYMid meet" stroke-linejoin="miter" fill-rule="nonzero" stroke-miterlimit="4" version="1.0" stroke-dasharray="none" stroke-opacity="1" stroke-linecap="butt" fill="#000000" stroke="none" fill-opacity="1" stroke-width="1px" d="M37.462,10.484C35.459,11.556,34.434,13.885,34.946,16.122C35.226,17.31,35.482,17.613,41.656,23.81C45.197,27.374,48.039,30.31,47.969,30.356C47.923,30.403,46.874,30.589,45.663,30.729C39.07,31.591,32.267,33.478,27.934,35.645C21.923,38.674,17.939,43.613,15.19,51.511C12.394,59.455,11.672,71.313,13.396,80.679C15.213,90.534,19.407,98.105,25.138,101.926C30.543,105.491,40.491,108.146,52.046,109.055C56.45,109.405,67.516,109.195,71.523,108.682C84.034,107.121,92.561,104.069,97.127,99.503C101.856,94.774,105.118,86.969,106.399,77.371C106.842,74.039,106.888,65.792,106.492,62.553C105.048,50.695,100.645,41.563,94.378,37.416C89.788,34.387,82.939,32.104,74.994,30.962C73.014,30.659,71.36,30.403,71.313,30.356C71.243,30.31,74.086,27.374,77.627,23.81C83.801,17.613,84.057,17.31,84.337,16.122C84.872,13.839,83.801,11.532,81.751,10.484C80.656,9.901,78.559,9.878,77.51,10.391C77.091,10.6,72.921,14.607,68.215,19.29L59.641,27.84L51.091,19.29C46.362,14.607,42.192,10.6,41.772,10.391C40.724,9.878,38.557,9.925,37.462,10.484ZM63.183,61.202C72.152,65.722,73.806,66.631,74.249,67.306C75.297,68.867,75.157,70.754,73.923,72.222C73.48,72.781,70.614,74.319,63.089,78.07C54.073,82.566,52.745,83.172,51.767,83.172C50.322,83.172,48.971,82.38,48.295,81.191C47.76,80.259,47.76,80.213,47.76,69.706C47.76,58.22,47.76,58.267,49.088,57.009C49.856,56.31,50.718,55.96,51.883,55.937C52.419,55.914,55.611,57.405,63.183,61.202ZM63.183,61.202"/>
</g>
  <g id="Thin-L" transform="matrix(1.0,0.0,0.0,1.0,798.0686944820375,1467.0928445650836)">  <path fill="#000000" stroke-width="1px" version="1.0" preserveAspectRatio="xMidYMid meet" stroke-linejoin="miter" fill-opacity="1" stroke-linecap="butt" stroke-opacity="1" fill-rule="nonzero" stroke="none" stroke-dasharray="none" stroke-miterlimit="4" d="M37.462,10.484C35.459,11.556,34.434,13.885,34.946,16.122C35.226,17.31,35.482,17.613,41.656,23.81C45.197,27.374,48.039,30.31,47.969,30.356C47.923,30.403,46.874,30.589,45.663,30.729C39.07,31.591,32.267,33.478,27.934,35.645C21.923,38.674,17.939,43.613,15.19,51.511C12.394,59.455,11.672,71.313,13.396,80.679C15.213,90.534,19.407,98.105,25.138,101.926C30.543,105.491,40.491,108.146,52.046,109.055C56.45,109.405,67.516,109.195,71.523,108.682C84.034,107.121,92.561,104.069,97.127,99.503C101.856,94.774,105.118,86.969,106.399,77.371C106.842,74.039,106.888,65.792,106.492,62.553C105.048,50.695,100.645,41.563,94.378,37.416C89.788,34.387,82.939,32.104,74.994,30.962C73.014,30.659,71.36,30.403,71.313,30.356C71.243,30.31,74.086,27.374,77.627,23.81C83.801,17.613,84.057,17.31,84.337,16.122C84.872,13.839,83.801,11.532,81.751,10.484C80.656,9.901,78.559,9.878,77.51,10.391C77.091,10.6,72.921,14.607,68.215,19.29L59.641,27.84L51.091,19.29C46.362,14.607,42.192,10.6,41.772,10.391C40.724,9.878,38.557,9.925,37.462,10.484ZM63.183,61.202C72.152,65.722,73.806,66.631,74.249,67.306C75.297,68.867,75.157,70.754,73.923,72.222C73.48,72.781,70.614,74.319,63.089,78.07C54.073,82.566,52.745,83.172,51.767,83.172C50.322,83.172,48.971,82.38,48.295,81.191C47.76,80.259,47.76,80.213,47.76,69.706C47.76,58.22,47.76,58.267,49.088,57.009C49.856,56.31,50.718,55.96,51.883,55.937C52.419,55.914,55.611,57.405,63.183,61.202ZM63.183,61.202"/>
</g>
  <g id="Ultralight-L" transform="matrix(1.0,0.0,0.0,1.0,501.3586944820374,1467.0928445650836)">  <path stroke-linejoin="miter" stroke="none" stroke-opacity="1" fill="#000000" stroke-dasharray="none" version="1.0" fill-rule="nonzero" stroke-width="1px" fill-opacity="1" stroke-miterlimit="4" preserveAspectRatio="xMidYMid meet" stroke-linecap="butt" d="M37.462,10.484C35.459,11.556,34.434,13.885,34.946,16.122C35.226,17.31,35.482,17.613,41.656,23.81C45.197,27.374,48.039,30.31,47.969,30.356C47.923,30.403,46.874,30.589,45.663,30.729C39.07,31.591,32.267,33.478,27.934,35.645C21.923,38.674,17.939,43.613,15.19,51.511C12.394,59.455,11.672,71.313,13.396,80.679C15.213,90.534,19.407,98.105,25.138,101.926C30.543,105.491,40.491,108.146,52.046,109.055C56.45,109.405,67.516,109.195,71.523,108.682C84.034,107.121,92.561,104.069,97.127,99.503C101.856,94.774,105.118,86.969,106.399,77.371C106.842,74.039,106.888,65.792,106.492,62.553C105.048,50.695,100.645,41.563,94.378,37.416C89.788,34.387,82.939,32.104,74.994,30.962C73.014,30.659,71.36,30.403,71.313,30.356C71.243,30.31,74.086,27.374,77.627,23.81C83.801,17.613,84.057,17.31,84.337,16.122C84.872,13.839,83.801,11.532,81.751,10.484C80.656,9.901,78.559,9.878,77.51,10.391C77.091,10.6,72.921,14.607,68.215,19.29L59.641,27.84L51.091,19.29C46.362,14.607,42.192,10.6,41.772,10.391C40.724,9.878,38.557,9.925,37.462,10.484ZM63.183,61.202C72.152,65.722,73.806,66.631,74.249,67.306C75.297,68.867,75.157,70.754,73.923,72.222C73.48,72.781,70.614,74.319,63.089,78.07C54.073,82.566,52.745,83.172,51.767,83.172C50.322,83.172,48.971,82.38,48.295,81.191C47.76,80.259,47.76,80.213,47.76,69.706C47.76,58.22,47.76,58.267,49.088,57.009C49.856,56.31,50.718,55.96,51.883,55.937C52.419,55.914,55.611,57.405,63.183,61.202ZM63.183,61.202"/>
</g>
  <g id="Black-M" transform="matrix(1.0,0.0,0.0,1.0,2888.4464298310368,1049.159806379183)">  <path stroke-width="1px" stroke="none" stroke-linejoin="miter" fill="#000000" fill-rule="nonzero" version="1.0" stroke-linecap="butt" stroke-opacity="1" fill-opacity="1" stroke-miterlimit="4" preserveAspectRatio="xMidYMid meet" stroke-dasharray="none" d="M29.04,8.127C27.487,8.958,26.693,10.764,27.09,12.498C27.307,13.419,27.505,13.653,32.291,18.457C35.036,21.22,37.24,23.496,37.186,23.532C37.149,23.568,36.337,23.713,35.398,23.821C30.287,24.489,25.013,25.952,21.654,27.632C16.994,29.98,13.906,33.808,11.775,39.931C9.608,46.089,9.048,55.282,10.384,62.542C11.793,70.181,15.044,76.051,19.487,79.012C23.677,81.776,31.388,83.834,40.346,84.539C43.759,84.81,52.338,84.647,55.444,84.25C65.142,83.04,71.752,80.674,75.292,77.134C78.958,73.468,81.487,67.418,82.48,59.977C82.823,57.395,82.859,51.001,82.552,48.491C81.432,39.299,78.019,32.219,73.161,29.004C69.603,26.657,64.294,24.887,58.135,24.002C56.6,23.767,55.318,23.568,55.282,23.532C55.227,23.496,57.431,21.22,60.176,18.457C64.962,13.653,65.16,13.419,65.377,12.498C65.793,10.728,64.962,8.94,63.373,8.127C62.524,7.675,60.898,7.657,60.086,8.055C59.761,8.217,56.528,11.324,52.88,14.954L46.234,21.582L39.606,14.954C35.939,11.324,32.707,8.217,32.382,8.055C31.569,7.657,29.889,7.694,29.04,8.127ZM48.979,47.444C55.932,50.947,57.214,51.652,57.557,52.175C58.37,53.385,58.262,54.848,57.304,55.986C56.961,56.419,54.74,57.611,48.906,60.519C41.917,64.005,40.888,64.474,40.129,64.474C39.01,64.474,37.962,63.86,37.438,62.939C37.023,62.217,37.023,62.181,37.023,54.035C37.023,45.132,37.023,45.168,38.052,44.193C38.648,43.651,39.317,43.38,40.22,43.362C40.635,43.344,43.109,44.5,48.979,47.444ZM48.979,47.444"/>
</g>
  <g id="Heavy-M" transform="matrix(1.0,0.0,0.0,1.0,2591.7364298310367,1049.159806379183)">  <path stroke-linecap="butt" preserveAspectRatio="xMidYMid meet" fill-rule="nonzero" stroke-linejoin="miter" stroke-miterlimit="4" stroke-dasharray="none" fill="#000000" stroke="none" stroke-width="1px" fill-opacity="1" stroke-opacity="1" version="1.0" d="M29.04,8.127C27.487,8.958,26.693,10.764,27.09,12.498C27.307,13.419,27.505,13.653,32.291,18.457C35.036,21.22,37.24,23.496,37.186,23.532C37.149,23.568,36.337,23.713,35.398,23.821C30.287,24.489,25.013,25.952,21.654,27.632C16.994,29.98,13.906,33.808,11.775,39.931C9.608,46.089,9.048,55.282,10.384,62.542C11.793,70.181,15.044,76.051,19.487,79.012C23.677,81.776,31.388,83.834,40.346,84.539C43.759,84.81,52.338,84.647,55.444,84.25C65.142,83.04,71.752,80.674,75.292,77.134C78.958,73.468,81.487,67.418,82.48,59.977C82.823,57.395,82.859,51.001,82.552,48.491C81.432,39.299,78.019,32.219,73.161,29.004C69.603,26.657,64.294,24.887,58.135,24.002C56.6,23.767,55.318,23.568,55.282,23.532C55.227,23.496,57.431,21.22,60.176,18.457C64.962,13.653,65.16,13.419,65.377,12.498C65.793,10.728,64.962,8.94,63.373,8.127C62.524,7.675,60.898,7.657,60.086,8.055C59.761,8.217,56.528,11.324,52.88,14.954L46.234,21.582L39.606,14.954C35.939,11.324,32.707,8.217,32.382,8.055C31.569,7.657,29.889,7.694,29.04,8.127ZM48.979,47.444C55.932,50.947,57.214,51.652,57.557,52.175C58.37,53.385,58.262,54.848,57.304,55.986C56.961,56.419,54.74,57.611,48.906,60.519C41.917,64.005,40.888,64.474,40.129,64.474C39.01,64.474,37.962,63.86,37.438,62.939C37.023,62.217,37.023,62.181,37.023,54.035C37.023,45.132,37.023,45.168,38.052,44.193C38.648,43.651,39.317,43.38,40.22,43.362C40.635,43.344,43.109,44.5,48.979,47.444ZM48.979,47.444"/>
</g>
  <g id="Bold-M" transform="matrix(1.0,0.0,0.0,1.0,2295.0264298310367,1049.159806379183)">  <path stroke-linejoin="miter" stroke-linecap="butt" version="1.0" fill="#000000" fill-rule="nonzero" stroke-opacity="1" stroke="none" stroke-miterlimit="4" fill-opacity="1" stroke-width="1px" stroke-dasharray="none" preserveAspectRatio="xMidYMid meet" d="M29.04,8.127C27.487,8.958,26.693,10.764,27.09,12.498C27.307,13.419,27.505,13.653,32.291,18.457C35.036,21.22,37.24,23.496,37.186,23.532C37.149,23.568,36.337,23.713,35.398,23.821C30.287,24.489,25.013,25.952,21.654,27.632C16.994,29.98,13.906,33.808,11.775,39.931C9.608,46.089,9.048,55.282,10.384,62.542C11.793,70.181,15.044,76.051,19.487,79.012C23.677,81.776,31.388,83.834,40.346,84.539C43.759,84.81,52.338,84.647,55.444,84.25C65.142,83.04,71.752,80.674,75.292,77.134C78.958,73.468,81.487,67.418,82.48,59.977C82.823,57.395,82.859,51.001,82.552,48.491C81.432,39.299,78.019,32.219,73.161,29.004C69.603,26.657,64.294,24.887,58.135,24.002C56.6,23.767,55.318,23.568,55.282,23.532C55.227,23.496,57.431,21.22,60.176,18.457C64.962,13.653,65.16,13.419,65.377,12.498C65.793,10.728,64.962,8.94,63.373,8.127C62.524,7.675,60.898,7.657,60.086,8.055C59.761,8.217,56.528,11.324,52.88,14.954L46.234,21.582L39.606,14.954C35.939,11.324,32.707,8.217,32.382,8.055C31.569,7.657,29.889,7.694,29.04,8.127ZM48.979,47.444C55.932,50.947,57.214,51.652,57.557,52.175C58.37,53.385,58.262,54.848,57.304,55.986C56.961,56.419,54.74,57.611,48.906,60.519C41.917,64.005,40.888,64.474,40.129,64.474C39.01,64.474,37.962,63.86,37.438,62.939C37.023,62.217,37.023,62.181,37.023,54.035C37.023,45.132,37.023,45.168,38.052,44.193C38.648,43.651,39.317,43.38,40.22,43.362C40.635,43.344,43.109,44.5,48.979,47.444ZM48.979,47.444"/>
</g>
  <g id="Semibold-M" transform="matrix(1.0,0.0,0.0,1.0,1998.3164298310367,1049.159806379183)">  <path stroke-width="1px" version="1.0" fill="#000000" preserveAspectRatio="xMidYMid meet" stroke-dasharray="none" fill-opacity="1" fill-rule="nonzero" stroke-linecap="butt" stroke-linejoin="miter" stroke-opacity="1" stroke="none" stroke-miterlimit="4" d="M29.04,8.127C27.487,8.958,26.693,10.764,27.09,12.498C27.307,13.419,27.505,13.653,32.291,18.457C35.036,21.22,37.24,23.496,37.186,23.532C37.149,23.568,36.337,23.713,35.398,23.821C30.287,24.489,25.013,25.952,21.654,27.632C16.994,29.98,13.906,33.808,11.775,39.931C9.608,46.089,9.048,55.282,10.384,62.542C11.793,70.181,15.044,76.051,19.487,79.012C23.677,81.776,31.388,83.834,40.346,84.539C43.759,84.81,52.338,84.647,55.444,84.25C65.142,83.04,71.752,80.674,75.292,77.134C78.958,73.468,81.487,67.418,82.48,59.977C82.823,57.395,82.859,51.001,82.552,48.491C81.432,39.299,78.019,32.219,73.161,29.004C69.603,26.657,64.294,24.887,58.135,24.002C56.6,23.767,55.318,23.568,55.282,23.532C55.227,23.496,57.431,21.22,60.176,18.457C64.962,13.653,65.16,13.419,65.377,12.498C65.793,10.728,64.962,8.94,63.373,8.127C62.524,7.675,60.898,7.657,60.086,8.055C59.761,8.217,56.528,11.324,52.88,14.954L46.234,21.582L39.606,14.954C35.939,11.324,32.707,8.217,32.382,8.055C31.569,7.657,29.889,7.694,29.04,8.127ZM48.979,47.444C55.932,50.947,57.214,51.652,57.557,52.175C58.37,53.385,58.262,54.848,57.304,55.986C56.961,56.419,54.74,57.611,48.906,60.519C41.917,64.005,40.888,64.474,40.129,64.474C39.01,64.474,37.962,63.86,37.438,62.939C37.023,62.217,37.023,62.181,37.023,54.035C37.023,45.132,37.023,45.168,38.052,44.193C38.648,43.651,39.317,43.38,40.22,43.362C40.635,43.344,43.109,44.5,48.979,47.444ZM48.979,47.444"/>
</g>
  <g id="Medium-M" transform="matrix(1.0,0.0,0.0,1.0,1701.6064298310366,1049.159806379183)">  <path stroke-opacity="1" stroke-linejoin="miter" preserveAspectRatio="xMidYMid meet" fill="#000000" fill-opacity="1" stroke-dasharray="none" stroke="none" fill-rule="nonzero" stroke-width="1px" stroke-linecap="butt" version="1.0" stroke-miterlimit="4" d="M29.04,8.127C27.487,8.958,26.693,10.764,27.09,12.498C27.307,13.419,27.505,13.653,32.291,18.457C35.036,21.22,37.24,23.496,37.186,23.532C37.149,23.568,36.337,23.713,35.398,23.821C30.287,24.489,25.013,25.952,21.654,27.632C16.994,29.98,13.906,33.808,11.775,39.931C9.608,46.089,9.048,55.282,10.384,62.542C11.793,70.181,15.044,76.051,19.487,79.012C23.677,81.776,31.388,83.834,40.346,84.539C43.759,84.81,52.338,84.647,55.444,84.25C65.142,83.04,71.752,80.674,75.292,77.134C78.958,73.468,81.487,67.418,82.48,59.977C82.823,57.395,82.859,51.001,82.552,48.491C81.432,39.299,78.019,32.219,73.161,29.004C69.603,26.657,64.294,24.887,58.135,24.002C56.6,23.767,55.318,23.568,55.282,23.532C55.227,23.496,57.431,21.22,60.176,18.457C64.962,13.653,65.16,13.419,65.377,12.498C65.793,10.728,64.962,8.94,63.373,8.127C62.524,7.675,60.898,7.657,60.086,8.055C59.761,8.217,56.528,11.324,52.88,14.954L46.234,21.582L39.606,14.954C35.939,11.324,32.707,8.217,32.382,8.055C31.569,7.657,29.889,7.694,29.04,8.127ZM48.979,47.444C55.932,50.947,57.214,51.652,57.557,52.175C58.37,53.385,58.262,54.848,57.304,55.986C56.961,56.419,54.74,57.611,48.906,60.519C41.917,64.005,40.888,64.474,40.129,64.474C39.01,64.474,37.962,63.86,37.438,62.939C37.023,62.217,37.023,62.181,37.023,54.035C37.023,45.132,37.023,45.168,38.052,44.193C38.648,43.651,39.317,43.38,40.22,43.362C40.635,43.344,43.109,44.5,48.979,47.444ZM48.979,47.444"/>
</g>
  <g id="Regular-M" transform="matrix(1.0,0.0,0.0,1.0,1404.8964298310366,1049.159806379183)">  <path fill-opacity="1" fill="#000000" stroke-linejoin="miter" stroke="none" fill-rule="nonzero" stroke-width="1px" stroke-dasharray="none" version="1.0" stroke-linecap="butt" stroke-opacity="1" preserveAspectRatio="xMidYMid meet" stroke-miterlimit="4" d="M29.04,8.127C27.487,8.958,26.693,10.764,27.09,12.498C27.307,13.419,27.505,13.653,32.291,18.457C35.036,21.22,37.24,23.496,37.186,23.532C37.149,23.568,36.337,23.713,35.398,23.821C30.287,24.489,25.013,25.952,21.654,27.632C16.994,29.98,13.906,33.808,11.775,39.931C9.608,46.089,9.048,55.282,10.384,62.542C11.793,70.181,15.044,76.051,19.487,79.012C23.677,81.776,31.388,83.834,40.346,84.539C43.759,84.81,52.338,84.647,55.444,84.25C65.142,83.04,71.752,80.674,75.292,77.134C78.958,73.468,81.487,67.418,82.48,59.977C82.823,57.395,82.859,51.001,82.552,48.491C81.432,39.299,78.019,32.219,73.161,29.004C69.603,26.657,64.294,24.887,58.135,24.002C56.6,23.767,55.318,23.568,55.282,23.532C55.227,23.496,57.431,21.22,60.176,18.457C64.962,13.653,65.16,13.419,65.377,12.498C65.793,10.728,64.962,8.94,63.373,8.127C62.524,7.675,60.898,7.657,60.086,8.055C59.761,8.217,56.528,11.324,52.88,14.954L46.234,21.582L39.606,14.954C35.939,11.324,32.707,8.217,32.382,8.055C31.569,7.657,29.889,7.694,29.04,8.127ZM48.979,47.444C55.932,50.947,57.214,51.652,57.557,52.175C58.37,53.385,58.262,54.848,57.304,55.986C56.961,56.419,54.74,57.611,48.906,60.519C41.917,64.005,40.888,64.474,40.129,64.474C39.01,64.474,37.962,63.86,37.438,62.939C37.023,62.217,37.023,62.181,37.023,54.035C37.023,45.132,37.023,45.168,38.052,44.193C38.648,43.651,39.317,43.38,40.22,43.362C40.635,43.344,43.109,44.5,48.979,47.444ZM48.979,47.444"/>
</g>
  <g id="Light-M" transform="matrix(1.0,0.0,0.0,1.0,1108.1864298310368,1049.159806379183)">  <path preserveAspectRatio="xMidYMid meet" stroke-linejoin="miter" fill-rule="nonzero" stroke-miterlimit="4" version="1.0" stroke-dasharray="none" stroke-opacity="1" stroke-linecap="butt" fill="#000000" stroke="none" fill-opacity="1" stroke-width="1px" d="M29.04,8.127C27.487,8.958,26.693,10.764,27.09,12.498C27.307,13.419,27.505,13.653,32.291,18.457C35.036,21.22,37.24,23.496,37.186,23.532C37.149,23.568,36.337,23.713,35.398,23.821C30.287,24.489,25.013,25.952,21.654,27.632C16.994,29.98,13.906,33.808,11.775,39.931C9.608,46.089,9.048,55.282,10.384,62.542C11.793,70.181,15.044,76.051,19.487,79.012C23.677,81.776,31.388,83.834,40.346,84.539C43.759,84.81,52.338,84.647,55.444,84.25C65.142,83.04,71.752,80.674,75.292,77.134C78.958,73.468,81.487,67.418,82.48,59.977C82.823,57.395,82.859,51.001,82.552,48.491C81.432,39.299,78.019,32.219,73.161,29.004C69.603,26.657,64.294,24.887,58.135,24.002C56.6,23.767,55.318,23.568,55.282,23.532C55.227,23.496,57.431,21.22,60.176,18.457C64.962,13.653,65.16,13.419,65.377,12.498C65.793,10.728,64.962,8.94,63.373,8.127C62.524,7.675,60.898,7.657,60.086,8.055C59.761,8.217,56.528,11.324,52.88,14.954L46.234,21.582L39.606,14.954C35.939,11.324,32.707,8.217,32.382,8.055C31.569,7.657,29.889,7.694,29.04,8.127ZM48.979,47.444C55.932,50.947,57.214,51.652,57.557,52.175C58.37,53.385,58.262,54.848,57.304,55.986C56.961,56.419,54.74,57.611,48.906,60.519C41.917,64.005,40.888,64.474,40.129,64.474C39.01,64.474,37.962,63.86,37.438,62.939C37.023,62.217,37.023,62.181,37.023,54.035C37.023,45.132,37.023,45.168,38.052,44.193C38.648,43.651,39.317,43.38,40.22,43.362C40.635,43.344,43.109,44.5,48.979,47.444ZM48.979,47.444"/>
</g>
  <g id="Thin-M" transform="matrix(1.0,0.0,0.0,1.0,811.4764298310367,1049.159806379183)">  <path fill="#000000" stroke-width="1px" version="1.0" preserveAspectRatio="xMidYMid meet" stroke-linejoin="miter" fill-opacity="1" stroke-linecap="butt" stroke-opacity="1" fill-rule="nonzero" stroke="none" stroke-dasharray="none" stroke-miterlimit="4" d="M29.04,8.127C27.487,8.958,26.693,10.764,27.09,12.498C27.307,13.419,27.505,13.653,32.291,18.457C35.036,21.22,37.24,23.496,37.186,23.532C37.149,23.568,36.337,23.713,35.398,23.821C30.287,24.489,25.013,25.952,21.654,27.632C16.994,29.98,13.906,33.808,11.775,39.931C9.608,46.089,9.048,55.282,10.384,62.542C11.793,70.181,15.044,76.051,19.487,79.012C23.677,81.776,31.388,83.834,40.346,84.539C43.759,84.81,52.338,84.647,55.444,84.25C65.142,83.04,71.752,80.674,75.292,77.134C78.958,73.468,81.487,67.418,82.48,59.977C82.823,57.395,82.859,51.001,82.552,48.491C81.432,39.299,78.019,32.219,73.161,29.004C69.603,26.657,64.294,24.887,58.135,24.002C56.6,23.767,55.318,23.568,55.282,23.532C55.227,23.496,57.431,21.22,60.176,18.457C64.962,13.653,65.16,13.419,65.377,12.498C65.793,10.728,64.962,8.94,63.373,8.127C62.524,7.675,60.898,7.657,60.086,8.055C59.761,8.217,56.528,11.324,52.88,14.954L46.234,21.582L39.606,14.954C35.939,11.324,32.707,8.217,32.382,8.055C31.569,7.657,29.889,7.694,29.04,8.127ZM48.979,47.444C55.932,50.947,57.214,51.652,57.557,52.175C58.37,53.385,58.262,54.848,57.304,55.986C56.961,56.419,54.74,57.611,48.906,60.519C41.917,64.005,40.888,64.474,40.129,64.474C39.01,64.474,37.962,63.86,37.438,62.939C37.023,62.217,37.023,62.181,37.023,54.035C37.023,45.132,37.023,45.168,38.052,44.193C38.648,43.651,39.317,43.38,40.22,43.362C40.635,43.344,43.109,44.5,48.979,47.444ZM48.979,47.444"/>
</g>
  <g id="Ultralight-M" transform="matrix(1.0,0.0,0.0,1.0,514.7664298310367,1049.159806379183)">  <path stroke-linejoin="miter" stroke="none" stroke-opacity="1" fill="#000000" stroke-dasharray="none" version="1.0" fill-rule="nonzero" stroke-width="1px" fill-opacity="1" stroke-miterlimit="4" preserveAspectRatio="xMidYMid meet" stroke-linecap="butt" d="M29.04,8.127C27.487,8.958,26.693,10.764,27.09,12.498C27.307,13.419,27.505,13.653,32.291,18.457C35.036,21.22,37.24,23.496,37.186,23.532C37.149,23.568,36.337,23.713,35.398,23.821C30.287,24.489,25.013,25.952,21.654,27.632C16.994,29.98,13.906,33.808,11.775,39.931C9.608,46.089,9.048,55.282,10.384,62.542C11.793,70.181,15.044,76.051,19.487,79.012C23.677,81.776,31.388,83.834,40.346,84.539C43.759,84.81,52.338,84.647,55.444,84.25C65.142,83.04,71.752,80.674,75.292,77.134C78.958,73.468,81.487,67.418,82.48,59.977C82.823,57.395,82.859,51.001,82.552,48.491C81.432,39.299,78.019,32.219,73.161,29.004C69.603,26.657,64.294,24.887,58.135,24.002C56.6,23.767,55.318,23.568,55.282,23.532C55.227,23.496,57.431,21.22,60.176,18.457C64.962,13.653,65.16,13.419,65.377,12.498C65.793,10.728,64.962,8.94,63.373,8.127C62.524,7.675,60.898,7.657,60.086,8.055C59.761,8.217,56.528,11.324,52.88,14.954L46.234,21.582L39.606,14.954C35.939,11.324,32.707,8.217,32.382,8.055C31.569,7.657,29.889,7.694,29.04,8.127ZM48.979,47.444C55.932,50.947,57.214,51.652,57.557,52.175C58.37,53.385,58.262,54.848,57.304,55.986C56.961,56.419,54.74,57.611,48.906,60.519C41.917,64.005,40.888,64.474,40.129,64.474C39.01,64.474,37.962,63.86,37.438,62.939C37.023,62.217,37.023,62.181,37.023,54.035C37.023,45.132,37.023,45.168,38.052,44.193C38.648,43.651,39.317,43.38,40.22,43.362C40.635,43.344,43.109,44.5,48.979,47.444ZM48.979,47.444"/>
</g>
  <g id="Black-S" transform="matrix(1.0,0.0,0.0,1.0,2898.4791145577015,628.1892226331815)">  <path stroke-width="1px" stroke="none" stroke-linejoin="miter" fill="#000000" fill-rule="nonzero" version="1.0" stroke-linecap="butt" stroke-opacity="1" fill-opacity="1" stroke-miterlimit="4" preserveAspectRatio="xMidYMid meet" stroke-dasharray="none" d="M22.739,6.363C21.523,7.014,20.9,8.428,21.211,9.786C21.381,10.507,21.537,10.691,25.284,14.452C27.433,16.616,29.159,18.397,29.116,18.426C29.088,18.454,28.452,18.567,27.716,18.652C23.714,19.175,19.585,20.321,16.955,21.636C13.307,23.474,10.889,26.472,9.22,31.266C7.523,36.088,7.085,43.286,8.131,48.97C9.234,54.952,11.779,59.548,15.258,61.867C18.539,64.03,24.577,65.642,31.591,66.194C34.264,66.406,40.981,66.279,43.413,65.968C51.006,65.02,56.182,63.168,58.954,60.396C61.824,57.525,63.804,52.788,64.582,46.962C64.85,44.94,64.879,39.934,64.638,37.969C63.762,30.771,61.089,25.227,57.285,22.71C54.499,20.872,50.342,19.486,45.52,18.793C44.318,18.61,43.314,18.454,43.286,18.426C43.243,18.397,44.968,16.616,47.118,14.452C50.865,10.691,51.021,10.507,51.19,9.786C51.516,8.4,50.865,7,49.621,6.363C48.956,6.01,47.683,5.996,47.047,6.307C46.792,6.434,44.261,8.866,41.405,11.709L36.201,16.898L31.011,11.709C28.141,8.866,25.609,6.434,25.355,6.307C24.718,5.996,23.403,6.024,22.739,6.363ZM38.35,37.148C43.795,39.892,44.799,40.443,45.067,40.853C45.704,41.801,45.619,42.946,44.869,43.837C44.601,44.176,42.861,45.11,38.294,47.386C32.821,50.116,32.015,50.483,31.421,50.483C30.544,50.483,29.724,50.002,29.314,49.281C28.989,48.716,28.989,48.687,28.989,42.31C28.989,35.338,28.989,35.367,29.795,34.603C30.262,34.179,30.785,33.967,31.492,33.952C31.817,33.938,33.754,34.843,38.35,37.148ZM38.35,37.148"/>
</g>
  <g id="Heavy-S" transform="matrix(1.0,0.0,0.0,1.0,2601.7691145577014,628.1892226331815)">  <path stroke-linecap="butt" preserveAspectRatio="xMidYMid meet" fill-rule="nonzero" stroke-linejoin="miter" stroke-miterlimit="4" stroke-dasharray="none" fill="#000000" stroke="none" stroke-width="1px" fill-opacity="1" stroke-opacity="1" version="1.0" d="M22.739,6.363C21.523,7.014,20.9,8.428,21.211,9.786C21.381,10.507,21.537,10.691,25.284,14.452C27.433,16.616,29.159,18.397,29.116,18.426C29.088,18.454,28.452,18.567,27.716,18.652C23.714,19.175,19.585,20.321,16.955,21.636C13.307,23.474,10.889,26.472,9.22,31.266C7.523,36.088,7.085,43.286,8.131,48.97C9.234,54.952,11.779,59.548,15.258,61.867C18.539,64.03,24.577,65.642,31.591,66.194C34.264,66.406,40.981,66.279,43.413,65.968C51.006,65.02,56.182,63.168,58.954,60.396C61.824,57.525,63.804,52.788,64.582,46.962C64.85,44.94,64.879,39.934,64.638,37.969C63.762,30.771,61.089,25.227,57.285,22.71C54.499,20.872,50.342,19.486,45.52,18.793C44.318,18.61,43.314,18.454,43.286,18.426C43.243,18.397,44.968,16.616,47.118,14.452C50.865,10.691,51.021,10.507,51.19,9.786C51.516,8.4,50.865,7,49.621,6.363C48.956,6.01,47.683,5.996,47.047,6.307C46.792,6.434,44.261,8.866,41.405,11.709L36.201,16.898L31.011,11.709C28.141,8.866,25.609,6.434,25.355,6.307C24.718,5.996,23.403,6.024,22.739,6.363ZM38.35,37.148C43.795,39.892,44.799,40.443,45.067,40.853C45.704,41.801,45.619,42.946,44.869,43.837C44.601,44.176,42.861,45.11,38.294,47.386C32.821,50.116,32.015,50.483,31.421,50.483C30.544,50.483,29.724,50.002,29.314,49.281C28.989,48.716,28.989,48.687,28.989,42.31C28.989,35.338,28.989,35.367,29.795,34.603C30.262,34.179,30.785,33.967,31.492,33.952C31.817,33.938,33.754,34.843,38.35,37.148ZM38.35,37.148"/>
</g>
  <g id="Bold-S" transform="matrix(1.0,0.0,0.0,1.0,2305.0591145577014,628.1892226331815)">  <path stroke-linejoin="miter" stroke-linecap="butt" version="1.0" fill="#000000" fill-rule="nonzero" stroke-opacity="1" stroke="none" stroke-miterlimit="4" fill-opacity="1" stroke-width="1px" stroke-dasharray="none" preserveAspectRatio="xMidYMid meet" d="M22.739,6.363C21.523,7.014,20.9,8.428,21.211,9.786C21.381,10.507,21.537,10.691,25.284,14.452C27.433,16.616,29.159,18.397,29.116,18.426C29.088,18.454,28.452,18.567,27.716,18.652C23.714,19.175,19.585,20.321,16.955,21.636C13.307,23.474,10.889,26.472,9.22,31.266C7.523,36.088,7.085,43.286,8.131,48.97C9.234,54.952,11.779,59.548,15.258,61.867C18.539,64.03,24.577,65.642,31.591,66.194C34.264,66.406,40.981,66.279,43.413,65.968C51.006,65.02,56.182,63.168,58.954,60.396C61.824,57.525,63.804,52.788,64.582,46.962C64.85,44.94,64.879,39.934,64.638,37.969C63.762,30.771,61.089,25.227,57.285,22.71C54.499,20.872,50.342,19.486,45.52,18.793C44.318,18.61,43.314,18.454,43.286,18.426C43.243,18.397,44.968,16.616,47.118,14.452C50.865,10.691,51.021,10.507,51.19,9.786C51.516,8.4,50.865,7,49.621,6.363C48.956,6.01,47.683,5.996,47.047,6.307C46.792,6.434,44.261,8.866,41.405,11.709L36.201,16.898L31.011,11.709C28.141,8.866,25.609,6.434,25.355,6.307C24.718,5.996,23.403,6.024,22.739,6.363ZM38.35,37.148C43.795,39.892,44.799,40.443,45.067,40.853C45.704,41.801,45.619,42.946,44.869,43.837C44.601,44.176,42.861,45.11,38.294,47.386C32.821,50.116,32.015,50.483,31.421,50.483C30.544,50.483,29.724,50.002,29.314,49.281C28.989,48.716,28.989,48.687,28.989,42.31C28.989,35.338,28.989,35.367,29.795,34.603C30.262,34.179,30.785,33.967,31.492,33.952C31.817,33.938,33.754,34.843,38.35,37.148ZM38.35,37.148"/>
</g>
  <g id="Semibold-S" transform="matrix(1.0,0.0,0.0,1.0,2008.3491145577018,628.1892226331815)">  <path stroke-width="1px" version="1.0" fill="#000000" preserveAspectRatio="xMidYMid meet" stroke-dasharray="none" fill-opacity="1" fill-rule="nonzero" stroke-linecap="butt" stroke-linejoin="miter" stroke-opacity="1" stroke="none" stroke-miterlimit="4" d="M22.739,6.363C21.523,7.014,20.9,8.428,21.211,9.786C21.381,10.507,21.537,10.691,25.284,14.452C27.433,16.616,29.159,18.397,29.116,18.426C29.088,18.454,28.452,18.567,27.716,18.652C23.714,19.175,19.585,20.321,16.955,21.636C13.307,23.474,10.889,26.472,9.22,31.266C7.523,36.088,7.085,43.286,8.131,48.97C9.234,54.952,11.779,59.548,15.258,61.867C18.539,64.03,24.577,65.642,31.591,66.194C34.264,66.406,40.981,66.279,43.413,65.968C51.006,65.02,56.182,63.168,58.954,60.396C61.824,57.525,63.804,52.788,64.582,46.962C64.85,44.94,64.879,39.934,64.638,37.969C63.762,30.771,61.089,25.227,57.285,22.71C54.499,20.872,50.342,19.486,45.52,18.793C44.318,18.61,43.314,18.454,43.286,18.426C43.243,18.397,44.968,16.616,47.118,14.452C50.865,10.691,51.021,10.507,51.19,9.786C51.516,8.4,50.865,7,49.621,6.363C48.956,6.01,47.683,5.996,47.047,6.307C46.792,6.434,44.261,8.866,41.405,11.709L36.201,16.898L31.011,11.709C28.141,8.866,25.609,6.434,25.355,6.307C24.718,5.996,23.403,6.024,22.739,6.363ZM38.35,37.148C43.795,39.892,44.799,40.443,45.067,40.853C45.704,41.801,45.619,42.946,44.869,43.837C44.601,44.176,42.861,45.11,38.294,47.386C32.821,50.116,32.015,50.483,31.421,50.483C30.544,50.483,29.724,50.002,29.314,49.281C28.989,48.716,28.989,48.687,28.989,42.31C28.989,35.338,28.989,35.367,29.795,34.603C30.262,34.179,30.785,33.967,31.492,33.952C31.817,33.938,33.754,34.843,38.35,37.148ZM38.35,37.148"/>
</g>
  <g id="Medium-S" transform="matrix(1.0,0.0,0.0,1.0,1711.6391145577018,628.1892226331815)">  <path stroke-opacity="1" stroke-linejoin="miter" preserveAspectRatio="xMidYMid meet" fill="#000000" fill-opacity="1" stroke-dasharray="none" stroke="none" fill-rule="nonzero" stroke-width="1px" stroke-linecap="butt" version="1.0" stroke-miterlimit="4" d="M22.739,6.363C21.523,7.014,20.9,8.428,21.211,9.786C21.381,10.507,21.537,10.691,25.284,14.452C27.433,16.616,29.159,18.397,29.116,18.426C29.088,18.454,28.452,18.567,27.716,18.652C23.714,19.175,19.585,20.321,16.955,21.636C13.307,23.474,10.889,26.472,9.22,31.266C7.523,36.088,7.085,43.286,8.131,48.97C9.234,54.952,11.779,59.548,15.258,61.867C18.539,64.03,24.577,65.642,31.591,66.194C34.264,66.406,40.981,66.279,43.413,65.968C51.006,65.02,56.182,63.168,58.954,60.396C61.824,57.525,63.804,52.788,64.582,46.962C64.85,44.94,64.879,39.934,64.638,37.969C63.762,30.771,61.089,25.227,57.285,22.71C54.499,20.872,50.342,19.486,45.52,18.793C44.318,18.61,43.314,18.454,43.286,18.426C43.243,18.397,44.968,16.616,47.118,14.452C50.865,10.691,51.021,10.507,51.19,9.786C51.516,8.4,50.865,7,49.621,6.363C48.956,6.01,47.683,5.996,47.047,6.307C46.792,6.434,44.261,8.866,41.405,11.709L36.201,16.898L31.011,11.709C28.141,8.866,25.609,6.434,25.355,6.307C24.718,5.996,23.403,6.024,22.739,6.363ZM38.35,37.148C43.795,39.892,44.799,40.443,45.067,40.853C45.704,41.801,45.619,42.946,44.869,43.837C44.601,44.176,42.861,45.11,38.294,47.386C32.821,50.116,32.015,50.483,31.421,50.483C30.544,50.483,29.724,50.002,29.314,49.281C28.989,48.716,28.989,48.687,28.989,42.31C28.989,35.338,28.989,35.367,29.795,34.603C30.262,34.179,30.785,33.967,31.492,33.952C31.817,33.938,33.754,34.843,38.35,37.148ZM38.35,37.148"/>
</g>
  <g id="Regular-S" transform="matrix(1.0,0.0,0.0,1.0,1414.9291145577017,628.1892226331815)">  <path fill-opacity="1" fill="#000000" stroke-linejoin="miter" stroke="none" fill-rule="nonzero" stroke-width="1px" stroke-dasharray="none" version="1.0" stroke-linecap="butt" stroke-opacity="1" preserveAspectRatio="xMidYMid meet" stroke-miterlimit="4" d="M22.739,6.363C21.523,7.014,20.9,8.428,21.211,9.786C21.381,10.507,21.537,10.691,25.284,14.452C27.433,16.616,29.159,18.397,29.116,18.426C29.088,18.454,28.452,18.567,27.716,18.652C23.714,19.175,19.585,20.321,16.955,21.636C13.307,23.474,10.889,26.472,9.22,31.266C7.523,36.088,7.085,43.286,8.131,48.97C9.234,54.952,11.779,59.548,15.258,61.867C18.539,64.03,24.577,65.642,31.591,66.194C34.264,66.406,40.981,66.279,43.413,65.968C51.006,65.02,56.182,63.168,58.954,60.396C61.824,57.525,63.804,52.788,64.582,46.962C64.85,44.94,64.879,39.934,64.638,37.969C63.762,30.771,61.089,25.227,57.285,22.71C54.499,20.872,50.342,19.486,45.52,18.793C44.318,18.61,43.314,18.454,43.286,18.426C43.243,18.397,44.968,16.616,47.118,14.452C50.865,10.691,51.021,10.507,51.19,9.786C51.516,8.4,50.865,7,49.621,6.363C48.956,6.01,47.683,5.996,47.047,6.307C46.792,6.434,44.261,8.866,41.405,11.709L36.201,16.898L31.011,11.709C28.141,8.866,25.609,6.434,25.355,6.307C24.718,5.996,23.403,6.024,22.739,6.363ZM38.35,37.148C43.795,39.892,44.799,40.443,45.067,40.853C45.704,41.801,45.619,42.946,44.869,43.837C44.601,44.176,42.861,45.11,38.294,47.386C32.821,50.116,32.015,50.483,31.421,50.483C30.544,50.483,29.724,50.002,29.314,49.281C28.989,48.716,28.989,48.687,28.989,42.31C28.989,35.338,28.989,35.367,29.795,34.603C30.262,34.179,30.785,33.967,31.492,33.952C31.817,33.938,33.754,34.843,38.35,37.148ZM38.35,37.148"/>
</g>
  <g id="Light-S" transform="matrix(1.0,0.0,0.0,1.0,1118.219114557702,628.1892226331815)">  <path preserveAspectRatio="xMidYMid meet" stroke-linejoin="miter" fill-rule="nonzero" stroke-miterlimit="4" version="1.0" stroke-dasharray="none" stroke-opacity="1" stroke-linecap="butt" fill="#000000" stroke="none" fill-opacity="1" stroke-width="1px" d="M22.739,6.363C21.523,7.014,20.9,8.428,21.211,9.786C21.381,10.507,21.537,10.691,25.284,14.452C27.433,16.616,29.159,18.397,29.116,18.426C29.088,18.454,28.452,18.567,27.716,18.652C23.714,19.175,19.585,20.321,16.955,21.636C13.307,23.474,10.889,26.472,9.22,31.266C7.523,36.088,7.085,43.286,8.131,48.97C9.234,54.952,11.779,59.548,15.258,61.867C18.539,64.03,24.577,65.642,31.591,66.194C34.264,66.406,40.981,66.279,43.413,65.968C51.006,65.02,56.182,63.168,58.954,60.396C61.824,57.525,63.804,52.788,64.582,46.962C64.85,44.94,64.879,39.934,64.638,37.969C63.762,30.771,61.089,25.227,57.285,22.71C54.499,20.872,50.342,19.486,45.52,18.793C44.318,18.61,43.314,18.454,43.286,18.426C43.243,18.397,44.968,16.616,47.118,14.452C50.865,10.691,51.021,10.507,51.19,9.786C51.516,8.4,50.865,7,49.621,6.363C48.956,6.01,47.683,5.996,47.047,6.307C46.792,6.434,44.261,8.866,41.405,11.709L36.201,16.898L31.011,11.709C28.141,8.866,25.609,6.434,25.355,6.307C24.718,5.996,23.403,6.024,22.739,6.363ZM38.35,37.148C43.795,39.892,44.799,40.443,45.067,40.853C45.704,41.801,45.619,42.946,44.869,43.837C44.601,44.176,42.861,45.11,38.294,47.386C32.821,50.116,32.015,50.483,31.421,50.483C30.544,50.483,29.724,50.002,29.314,49.281C28.989,48.716,28.989,48.687,28.989,42.31C28.989,35.338,28.989,35.367,29.795,34.603C30.262,34.179,30.785,33.967,31.492,33.952C31.817,33.938,33.754,34.843,38.35,37.148ZM38.35,37.148"/>
</g>
  <g id="Thin-S" transform="matrix(1.0,0.0,0.0,1.0,821.5091145577018,628.1892226331815)">  <path fill="#000000" stroke-width="1px" version="1.0" preserveAspectRatio="xMidYMid meet" stroke-linejoin="miter" fill-opacity="1" stroke-linecap="butt" stroke-opacity="1" fill-rule="nonzero" stroke="none" stroke-dasharray="none" stroke-miterlimit="4" d="M22.739,6.363C21.523,7.014,20.9,8.428,21.211,9.786C21.381,10.507,21.537,10.691,25.284,14.452C27.433,16.616,29.159,18.397,29.116,18.426C29.088,18.454,28.452,18.567,27.716,18.652C23.714,19.175,19.585,20.321,16.955,21.636C13.307,23.474,10.889,26.472,9.22,31.266C7.523,36.088,7.085,43.286,8.131,48.97C9.234,54.952,11.779,59.548,15.258,61.867C18.539,64.03,24.577,65.642,31.591,66.194C34.264,66.406,40.981,66.279,43.413,65.968C51.006,65.02,56.182,63.168,58.954,60.396C61.824,57.525,63.804,52.788,64.582,46.962C64.85,44.94,64.879,39.934,64.638,37.969C63.762,30.771,61.089,25.227,57.285,22.71C54.499,20.872,50.342,19.486,45.52,18.793C44.318,18.61,43.314,18.454,43.286,18.426C43.243,18.397,44.968,16.616,47.118,14.452C50.865,10.691,51.021,10.507,51.19,9.786C51.516,8.4,50.865,7,49.621,6.363C48.956,6.01,47.683,5.996,47.047,6.307C46.792,6.434,44.261,8.866,41.405,11.709L36.201,16.898L31.011,11.709C28.141,8.866,25.609,6.434,25.355,6.307C24.718,5.996,23.403,6.024,22.739,6.363ZM38.35,37.148C43.795,39.892,44.799,40.443,45.067,40.853C45.704,41.801,45.619,42.946,44.869,43.837C44.601,44.176,42.861,45.11,38.294,47.386C32.821,50.116,32.015,50.483,31.421,50.483C30.544,50.483,29.724,50.002,29.314,49.281C28.989,48.716,28.989,48.687,28.989,42.31C28.989,35.338,28.989,35.367,29.795,34.603C30.262,34.179,30.785,33.967,31.492,33.952C31.817,33.938,33.754,34.843,38.35,37.148ZM38.35,37.148"/>
</g>
  <g id="Ultralight-S" transform="matrix(1.0,0.0,0.0,1.0,524.7991145577017,628.1892226331815)">  <path stroke-linejoin="miter" stroke="none" stroke-opacity="1" fill="#000000" stroke-dasharray="none" version="1.0" fill-rule="nonzero" stroke-width="1px" fill-opacity="1" stroke-miterlimit="4" preserveAspectRatio="xMidYMid meet" stroke-linecap="butt" d="M22.739,6.363C21.523,7.014,20.9,8.428,21.211,9.786C21.381,10.507,21.537,10.691,25.284,14.452C27.433,16.616,29.159,18.397,29.116,18.426C29.088,18.454,28.452,18.567,27.716,18.652C23.714,19.175,19.585,20.321,16.955,21.636C13.307,23.474,10.889,26.472,9.22,31.266C7.523,36.088,7.085,43.286,8.131,48.97C9.234,54.952,11.779,59.548,15.258,61.867C18.539,64.03,24.577,65.642,31.591,66.194C34.264,66.406,40.981,66.279,43.413,65.968C51.006,65.02,56.182,63.168,58.954,60.396C61.824,57.525,63.804,52.788,64.582,46.962C64.85,44.94,64.879,39.934,64.638,37.969C63.762,30.771,61.089,25.227,57.285,22.71C54.499,20.872,50.342,19.486,45.52,18.793C44.318,18.61,43.314,18.454,43.286,18.426C43.243,18.397,44.968,16.616,47.118,14.452C50.865,10.691,51.021,10.507,51.19,9.786C51.516,8.4,50.865,7,49.621,6.363C48.956,6.01,47.683,5.996,47.047,6.307C46.792,6.434,44.261,8.866,41.405,11.709L36.201,16.898L31.011,11.709C28.141,8.866,25.609,6.434,25.355,6.307C24.718,5.996,23.403,6.024,22.739,6.363ZM38.35,37.148C43.795,39.892,44.799,40.443,45.067,40.853C45.704,41.801,45.619,42.946,44.869,43.837C44.601,44.176,42.861,45.11,38.294,47.386C32.821,50.116,32.015,50.483,31.421,50.483C30.544,50.483,29.724,50.002,29.314,49.281C28.989,48.716,28.989,48.687,28.989,42.31C28.989,35.338,28.989,35.367,29.795,34.603C30.262,34.179,30.785,33.967,31.492,33.952C31.817,33.938,33.754,34.843,38.35,37.148ZM38.35,37.148"/>
</g>
 </g>
</svg>
