<?xml version="1.0" standalone="no"?>
<!DOCTYPE svg PUBLIC "-//W3C//DTD SVG 20010904//EN"
 "http://www.w3.org/TR/2001/REC-SVG-20010904/DTD/svg10.dtd">
<svg version="1.0" xmlns="http://www.w3.org/2000/svg"
 width="1080.000000pt" height="1080.000000pt" viewBox="0 0 1080.000000 1080.000000"
 preserveAspectRatio="xMidYMid meet">

<g transform="translate(0.000000,1080.000000) scale(0.100000,-0.100000)"
fill="#000000" stroke="none">
<path d="M5085 8378 c-103 -10 -166 -34 -191 -73 -9 -15 -56 -154 -104 -309
-48 -156 -93 -292 -99 -304 -17 -31 -69 -67 -131 -90 -30 -11 -93 -37 -139
-57 -67 -30 -92 -36 -121 -31 -21 3 -161 71 -312 152 -265 141 -274 145 -325
141 -45 -3 -62 -11 -130 -63 -112 -86 -352 -322 -449 -444 -92 -113 -112 -160
-94 -213 5 -18 71 -147 146 -287 167 -313 166 -308 101 -460 -24 -58 -50 -122
-56 -142 -7 -20 -28 -51 -46 -67 -35 -30 -45 -34 -497 -175 -189 -60 -195 -66
-214 -229 -16 -137 -18 -499 -3 -639 12 -114 28 -159 68 -187 14 -11 159 -60
321 -111 253 -78 300 -96 327 -122 18 -18 36 -41 39 -52 3 -12 29 -75 56 -141
69 -166 69 -166 -67 -420 -168 -312 -188 -356 -179 -400 4 -22 31 -70 68 -119
76 -102 376 -403 479 -481 68 -51 85 -59 130 -62 51 -4 60 0 325 141 151 81
291 149 311 152 30 5 57 -3 142 -39 57 -24 125 -53 152 -62 69 -26 101 -68
136 -182 17 -54 57 -185 89 -292 33 -106 68 -205 79 -220 31 -42 79 -58 204
-70 149 -14 451 -14 598 0 127 12 176 31 203 77 9 15 57 159 106 321 67 218
97 300 114 318 13 13 96 53 183 89 122 51 166 65 191 61 18 -3 153 -69 300
-147 261 -139 313 -160 368 -146 67 17 371 296 535 491 95 113 115 153 108
207 -3 21 -65 151 -147 305 -94 177 -144 282 -147 309 -4 33 5 64 46 165 67
163 81 189 112 211 14 11 156 60 315 109 159 49 300 98 314 108 66 48 84 157
84 501 0 344 -18 453 -84 501 -14 10 -155 59 -314 108 -159 49 -301 98 -315
109 -31 22 -45 48 -112 212 -41 100 -50 133 -46 165 3 26 54 133 145 305 78
146 144 277 148 293 13 55 -5 95 -89 200 -149 186 -482 495 -553 513 -55 14
-107 -7 -368 -146 -147 -78 -282 -144 -300 -147 -47 -7 -341 114 -376 156 -18
21 -51 114 -114 322 -90 293 -108 333 -159 361 -62 33 -534 49 -762 26z m497
-1853 c467 -82 821 -424 919 -887 29 -135 31 -344 5 -468 -117 -554 -599 -931
-1161 -907 -273 12 -518 116 -715 303 -230 219 -341 466 -357 790 -12 244 56
491 188 685 88 130 252 281 389 357 114 64 284 119 415 135 78 10 239 5 317
-8z"/>
</g>
</svg>
