<?xml version="1.0" encoding="UTF-8"?>
<!--Generator: CustomSymbols by @serious_bret-->
<!DOCTYPE svg
PUBLIC "-//W3C//DTD SVG 1.1//EN"
       "http://www.w3.org/Graphics/SVG/1.1/DTD/svg11.dtd">
<svg version="1.1" xmlns="http://www.w3.org/2000/svg" xmlns:xlink="http://www.w3.org/1999/xlink" width="3300" height="2200">
 <g id="Notes">
  <rect height="2200" id="artboard" style="fill:white;opacity:1" width="3300" x="0" y="0"/>
  <line id="" style="fill:none;stroke:black;opacity:1;stroke-width:0.5;" x1="263" x2="3036" y1="292" y2="292"/>
  <text id="reftext1" style="stroke:none;fill:black;font-family:-apple-system,&quot;SF Pro Display&quot;,&quot;SF Pro Text&quot;,Helvetica,sans-serif;font-weight:bold;" transform="matrix(1 0 0 1 263 322)">Weight/Scale Variations</text>
  <text id="reftext2" style="stroke:none;fill:black;font-family:-apple-system,&quot;SF Pro Display&quot;,&quot;SF Pro Text&quot;,Helvetica,sans-serif;text-anchor:middle;" transform="matrix(1 0 0 1 559.711 322)">Ultralight</text>
  <text style="stroke:none;fill:black;font-family:-apple-system,&quot;SF Pro Display&quot;,&quot;SF Pro Text&quot;,Helvetica,sans-serif;text-anchor:middle;" transform="matrix(1 0 0 1 856.422 322)">Thin</text>
  <text style="stroke:none;fill:black;font-family:-apple-system,&quot;SF Pro Display&quot;,&quot;SF Pro Text&quot;,Helvetica,sans-serif;text-anchor:middle;" transform="matrix(1 0 0 1 1153.13 322)">Light</text>
  <text style="stroke:none;fill:black;font-family:-apple-system,&quot;SF Pro Display&quot;,&quot;SF Pro Text&quot;,Helvetica,sans-serif;text-anchor:middle;" transform="matrix(1 0 0 1 1449.84 322)">Regular</text>
  <text style="stroke:none;fill:black;font-family:-apple-system,&quot;SF Pro Display&quot;,&quot;SF Pro Text&quot;,Helvetica,sans-serif;text-anchor:middle;" transform="matrix(1 0 0 1 1746.56 322)">Medium</text>
  <text style="stroke:none;fill:black;font-family:-apple-system,&quot;SF Pro Display&quot;,&quot;SF Pro Text&quot;,Helvetica,sans-serif;text-anchor:middle;" transform="matrix(1 0 0 1 2043.27 322)">Semibold</text>
  <text style="stroke:none;fill:black;font-family:-apple-system,&quot;SF Pro Display&quot;,&quot;SF Pro Text&quot;,Helvetica,sans-serif;text-anchor:middle;" transform="matrix(1 0 0 1 2339.98 322)">Bold</text>
  <text style="stroke:none;fill:black;font-family:-apple-system,&quot;SF Pro Display&quot;,&quot;SF Pro Text&quot;,Helvetica,sans-serif;text-anchor:middle;" transform="matrix(1 0 0 1 2636.69 322)">Heavy</text>
  <text style="stroke:none;fill:black;font-family:-apple-system,&quot;SF Pro Display&quot;,&quot;SF Pro Text&quot;,Helvetica,sans-serif;text-anchor:middle;" transform="matrix(1 0 0 1 2933.4 322)">Black</text>
  <line id="" style="fill:none;stroke:black;opacity:1;stroke-width:0.5;" x1="263" x2="3036" y1="1903" y2="1903"/>
  <g id="" transform="matrix(1 0 0 1 263 1933)">
   <path d="M9.24805 0.830078C13.5547 0.830078 17.1387-2.74414 17.1387-7.05078C17.1387-11.3574 13.5449-14.9316 9.23828-14.9316C4.94141-14.9316 1.36719-11.3574 1.36719-7.05078C1.36719-2.74414 4.95117 0.830078 9.24805 0.830078ZM9.24805-0.654297C5.70312-0.654297 2.87109-3.49609 2.87109-7.05078C2.87109-10.6055 5.69336-13.4473 9.23828-13.4473C12.793-13.4473 15.6348-10.6055 15.6445-7.05078C15.6543-3.49609 12.8027-0.654297 9.24805-0.654297ZM6.39648-6.31836L8.50586-6.31836L8.50586-4.19922C8.50586-3.75977 8.79883-3.45703 9.22852-3.45703C9.67773-3.45703 9.9707-3.75977 9.9707-4.19922L9.9707-6.31836L12.0996-6.31836C12.5391-6.31836 12.8418-6.61133 12.8418-7.04102C12.8418-7.48047 12.5391-7.7832 12.0996-7.7832L9.9707-7.7832L9.9707-9.89258C9.9707-10.3418 9.67773-10.6445 9.22852-10.6445C8.79883-10.6445 8.50586-10.3418 8.50586-9.89258L8.50586-7.7832L6.39648-7.7832C5.94727-7.7832 5.64453-7.48047 5.64453-7.04102C5.64453-6.61133 5.94727-6.31836 6.39648-6.31836Z"/>
  </g>
  <g id="" transform="matrix(1 0 0 1 281.506 1933)">
   <path d="M11.709 2.91016C17.1582 2.91016 21.6699-1.61133 21.6699-7.05078C21.6699-12.5 17.1484-17.0117 11.6992-17.0117C6.25977-17.0117 1.74805-12.5 1.74805-7.05078C1.74805-1.61133 6.26953 2.91016 11.709 2.91016ZM11.709 1.25C7.09961 1.25 3.41797-2.44141 3.41797-7.05078C3.41797-11.6602 7.08984-15.3516 11.6992-15.3516C16.3086-15.3516 20-11.6602 20.0098-7.05078C20.0195-2.44141 16.3184 1.25 11.709 1.25ZM7.98828-6.23047L10.8789-6.23047L10.8789-3.32031C10.8789-2.83203 11.2109-2.5 11.6895-2.5C12.1777-2.5 12.5195-2.83203 12.5195-3.32031L12.5195-6.23047L15.4297-6.23047C15.918-6.23047 16.25-6.5625 16.25-7.04102C16.25-7.5293 15.918-7.87109 15.4297-7.87109L12.5195-7.87109L12.5195-10.7617C12.5195-11.2695 12.1777-11.6016 11.6895-11.6016C11.2109-11.6016 10.8789-11.2598 10.8789-10.7617L10.8789-7.87109L7.98828-7.87109C7.48047-7.87109 7.14844-7.5293 7.14844-7.04102C7.14844-6.5625 7.49023-6.23047 7.98828-6.23047Z"/>
  </g>
  <g id="" transform="matrix(1 0 0 1 304.924 1933)">
   <path d="M14.9707 5.66406C21.9336 5.66406 27.6953-0.0976562 27.6953-7.05078C27.6953-14.0137 21.9238-19.7754 14.9609-19.7754C8.00781-19.7754 2.25586-14.0137 2.25586-7.05078C2.25586-0.0976562 8.01758 5.66406 14.9707 5.66406ZM14.9707 3.84766C8.93555 3.84766 4.08203-1.01562 4.08203-7.05078C4.08203-13.0957 8.92578-17.9492 14.9609-17.9492C21.0059-17.9492 25.8594-13.0957 25.8691-7.05078C25.8789-1.01562 21.0156 3.84766 14.9707 3.84766ZM10.0586-6.14258L14.0625-6.14258L14.0625-2.12891C14.0625-1.5918 14.4336-1.2207 14.9512-1.2207C15.4883-1.2207 15.8594-1.5918 15.8594-2.12891L15.8594-6.14258L19.8828-6.14258C20.4102-6.14258 20.791-6.51367 20.791-7.03125C20.791-7.56836 20.4199-7.94922 19.8828-7.94922L15.8594-7.94922L15.8594-11.9531C15.8594-12.5098 15.4883-12.8809 14.9512-12.8809C14.4336-12.8809 14.0625-12.5 14.0625-11.9531L14.0625-7.94922L10.0586-7.94922C9.50195-7.94922 9.13086-7.56836 9.13086-7.03125C9.13086-6.51367 9.51172-6.14258 10.0586-6.14258Z"/>
  </g>
  <text style="stroke:none;fill:black;font-family:-apple-system,&quot;SF Pro Display&quot;,&quot;SF Pro Text&quot;,Helvetica,sans-serif;font-weight:bold;" transform="matrix(1 0 0 1 263 1953)">Design Variations</text>
  <text style="stroke:none;fill:black;font-family:-apple-system,&quot;SF Pro Display&quot;,&quot;SF Pro Text&quot;,Helvetica,sans-serif;" transform="matrix(1 0 0 1 263 1971)">Symbols are supported in up to nine weights and three scales.</text>
  <text style="stroke:none;fill:black;font-family:-apple-system,&quot;SF Pro Display&quot;,&quot;SF Pro Text&quot;,Helvetica,sans-serif;" transform="matrix(1 0 0 1 263 1989)">For optimal layout with text and other symbols, vertically align</text>
  <text style="stroke:none;fill:black;font-family:-apple-system,&quot;SF Pro Display&quot;,&quot;SF Pro Text&quot;,Helvetica,sans-serif;" transform="matrix(1 0 0 1 263 2007)">symbols with the adjacent text.</text>
  <line id="" style="fill:none;stroke:#00AEEF;stroke-width:0.5;opacity:1.0;" x1="776" x2="776" y1="1919" y2="1933"/>
  <g id="" transform="matrix(1 0 0 1 776 1933)">
   <path d="M3.31055 0.126953C3.82812 0.126953 4.08203-0.0683594 4.26758-0.605469L5.52734-4.0625L11.2891-4.0625L12.5488-0.605469C12.7344-0.0683594 12.9883 0.126953 13.4961 0.126953C14.0137 0.126953 14.3457-0.185547 14.3457-0.673828C14.3457-0.839844 14.3164-0.986328 14.2383-1.20117L9.6582-13.3887C9.43359-13.9941 9.0332-14.2871 8.4082-14.2871C7.80273-14.2871 7.39258-13.9941 7.17773-13.3984L2.59766-1.19141C2.51953-0.976562 2.49023-0.830078 2.49023-0.664062C2.49023-0.175781 2.80273 0.126953 3.31055 0.126953ZM6.00586-5.53711L8.37891-12.1094L8.42773-12.1094L10.8008-5.53711Z"/>
  </g>
  <line id="" style="fill:none;stroke:#00AEEF;stroke-width:0.5;opacity:1.0;" x1="792.836" x2="792.836" y1="1919" y2="1933"/>
  <text style="stroke:none;fill:black;font-family:-apple-system,&quot;SF Pro Display&quot;,&quot;SF Pro Text&quot;,Helvetica,sans-serif;font-weight:bold;" transform="matrix(1 0 0 1 776 1953)">Margins</text>
  <text style="stroke:none;fill:black;font-family:-apple-system,&quot;SF Pro Display&quot;,&quot;SF Pro Text&quot;,Helvetica,sans-serif;" transform="matrix(1 0 0 1 776 1971)">Leading and trailing margins on the left and right side of each symbol</text>
  <text style="stroke:none;fill:black;font-family:-apple-system,&quot;SF Pro Display&quot;,&quot;SF Pro Text&quot;,Helvetica,sans-serif;" transform="matrix(1 0 0 1 776 1989)">can be adjusted by modifying the x-location of the margin guidelines.</text>
  <text style="stroke:none;fill:black;font-family:-apple-system,&quot;SF Pro Display&quot;,&quot;SF Pro Text&quot;,Helvetica,sans-serif;" transform="matrix(1 0 0 1 776 2007)">Modifications are automatically applied proportionally to all</text>
  <text style="stroke:none;fill:black;font-family:-apple-system,&quot;SF Pro Display&quot;,&quot;SF Pro Text&quot;,Helvetica,sans-serif;" transform="matrix(1 0 0 1 776 2025)">scales and weights.</text>
  <g id="" transform="matrix(1 0 0 1 1289 1933)">
   <path d="M2.8418 1.86523L4.54102 3.57422C5.40039 4.44336 6.38672 4.38477 7.31445 3.35938L17.4902-7.85156C17.7539-7.76367 18.0273-7.7832 18.3398-7.8418L19.4043-8.03711L20.0684-7.36328L20.0293-6.80664C19.9902-6.30859 20.1172-5.92773 20.6055-5.44922L21.3672-4.70703C21.8457-4.22852 22.4609-4.19922 22.9297-4.66797L25.8398-7.58789C26.3086-8.05664 26.2891-8.65234 25.8105-9.13086L25.0391-9.89258C24.5605-10.3711 24.1895-10.5273 23.7109-10.4883L23.1348-10.4395L22.4902-11.0742L22.7344-12.1973C22.8613-12.7637 22.7051-13.2031 22.1191-13.7891L19.9219-15.9766C16.582-19.2969 12.1484-19.2188 9.25781-16.3281C8.83789-15.918 8.80859-15.3418 9.04297-14.9512C9.27734-14.5898 9.73633-14.3555 10.3809-14.5215C11.8457-14.8633 13.3691-14.9219 14.7949-13.9844L14.209-12.5293C14.0137-12.0508 13.9844-11.6504 14.1113-11.2891L3.04688-0.898438C2.06055 0.0195312 1.98242 0.996094 2.8418 1.86523ZM10.752-15.957C13.1836-17.7344 16.4746-17.4316 18.7012-15.2051L21.1328-12.793C21.3672-12.5586 21.4062-12.373 21.3379-12.0312L21.0156-10.5469L22.5195-9.0625L23.5059-9.12109C23.7598-9.13086 23.8379-9.11133 24.0332-8.91602L24.6094-8.33984L22.168-5.89844L21.5918-6.47461C21.3965-6.66992 21.3672-6.74805 21.377-7.01172L21.4453-7.98828L19.9512-9.47266L18.4277-9.21875C18.1055-9.15039 17.959-9.17969 17.7148-9.41406L15.7129-11.416C15.459-11.6504 15.4297-11.8164 15.5859-12.1875L16.4648-14.2773C14.9023-15.7324 12.8711-16.3574 10.8398-15.7617C10.6836-15.7227 10.625-15.8496 10.752-15.957ZM5.27344 2.30469L4.10156 1.14258C3.63281 0.683594 3.74023 0.341797 4.14062-0.0195312L14.9512-10.1953L16.416-8.71094L6.42578 2.27539C6.07422 2.67578 5.74219 2.77344 5.27344 2.30469Z"/>
  </g>
  <text style="stroke:none;fill:black;font-family:-apple-system,&quot;SF Pro Display&quot;,&quot;SF Pro Text&quot;,Helvetica,sans-serif;font-weight:bold;" transform="matrix(1 0 0 1 1289 1953)">Exporting</text>
  <text style="stroke:none;fill:black;font-family:-apple-system,&quot;SF Pro Display&quot;,&quot;SF Pro Text&quot;,Helvetica,sans-serif;" transform="matrix(1 0 0 1 1289 1971)">Symbols should be outlined when exporting to ensure the</text>
  <text style="stroke:none;fill:black;font-family:-apple-system,&quot;SF Pro Display&quot;,&quot;SF Pro Text&quot;,Helvetica,sans-serif;" transform="matrix(1 0 0 1 1289 1989)">design is preserved when submitting to Xcode.</text>
  <text id="template-version" style="stroke:none;fill:black;font-family:-apple-system,&quot;SF Pro Display&quot;,&quot;SF Pro Text&quot;,Helvetica,sans-serif;text-anchor:end;" transform="matrix(1 0 0 1 3036 1933)">Template v.2.0</text>
  <text style="stroke:none;fill:black;font-family:-apple-system,&quot;SF Pro Display&quot;,&quot;SF Pro Text&quot;,Helvetica,sans-serif;text-anchor:end;" transform="matrix(1 0 0 1 3036 1951)">Requires Xcode 12 or greater</text>
  <text style="stroke:none;fill:black;font-family:-apple-system,&quot;SF Pro Display&quot;,&quot;SF Pro Text&quot;,Helvetica,sans-serif;" transform="matrix(1 0 0 1 263 726)">Small</text>
  <text style="stroke:none;fill:black;font-family:-apple-system,&quot;SF Pro Display&quot;,&quot;SF Pro Text&quot;,Helvetica,sans-serif;" transform="matrix(1 0 0 1 263 1156)">Medium</text>
  <text style="stroke:none;fill:black;font-family:-apple-system,&quot;SF Pro Display&quot;,&quot;SF Pro Text&quot;,Helvetica,sans-serif;" transform="matrix(1 0 0 1 263 1586)">Large</text>
 </g>
 <g id="Guides">
  <g id="H-reference" style="fill:#27AAE1;stroke:none;" transform="matrix(1 0 0 1 339 696)">
   <path d="M0.976562 0L3.66211 0L12.9883-24.4629L45.752-24.4629L55.127 0L57.7637 0L30.6152-70.459L28.125-70.459ZM29.3457-67.1387L29.4434-67.1387L44.873-26.709L13.8672-26.709Z"/>
  </g>
  <line id="Baseline-S" style="fill:none;stroke:#27AAE1;opacity:1;stroke-width:0.5;" x1="263" x2="3036" y1="696" y2="696"/>
  <line id="Capline-S" style="fill:none;stroke:#27AAE1;opacity:1;stroke-width:0.5;" x1="263" x2="3036" y1="625.541" y2="625.541"/>
  <g id="H-reference" style="fill:#27AAE1;stroke:none;" transform="matrix(1 0 0 1 339 1126)">
   <path d="M0.976562 0L3.66211 0L12.9883-24.4629L45.752-24.4629L55.127 0L57.7637 0L30.6152-70.459L28.125-70.459ZM29.3457-67.1387L29.4434-67.1387L44.873-26.709L13.8672-26.709Z"/>
  </g>
  <line id="Baseline-M" style="fill:none;stroke:#27AAE1;opacity:1;stroke-width:0.5;" x1="263" x2="3036" y1="1126" y2="1126"/>
  <line id="Capline-M" style="fill:none;stroke:#27AAE1;opacity:1;stroke-width:0.5;" x1="263" x2="3036" y1="1055.54" y2="1055.54"/>
  <g id="H-reference" style="fill:#27AAE1;stroke:none;" transform="matrix(1 0 0 1 339 1556)">
   <path d="M0.976562 0L3.66211 0L12.9883-24.4629L45.752-24.4629L55.127 0L57.7637 0L30.6152-70.459L28.125-70.459ZM29.3457-67.1387L29.4434-67.1387L44.873-26.709L13.8672-26.709Z"/>
  </g>
  <line id="Baseline-L" style="fill:none;stroke:#27AAE1;opacity:1;stroke-width:0.5;" x1="263" x2="3036" y1="1556" y2="1556"/>
  <line id="Capline-L" style="fill:none;stroke:#27AAE1;opacity:1;stroke-width:0.5;" x1="263" x2="3036" y1="1485.54" y2="1485.54"/>
  <line id="left-margin" x1="1392.328881519784" x2="1392.328881519784" y1="1030.79" y2="1150.12" style="fill:none;stroke:#00AEEF;stroke-width:0.5;opacity:1.0;"/>
  <line id="right-margin" x1="1509.9311184802157" x2="1509.9311184802157" y1="1030.79" y2="1150.12" style="fill:none;stroke:#00AEEF;stroke-width:0.5;opacity:1.0;"/>
 </g>
 <g id="Symbols">
  <g id="Black-L" transform="matrix(1.0,0.0,0.0,1.0,2852.941376250562,1439.031395781812)">  <path stroke-dasharray="none" stroke-miterlimit="4" stroke-linejoin="miter" fill="#000000" stroke-opacity="1" stroke-width="1px" fill-opacity="1" stroke-linecap="butt" stroke="none" fill-rule="nonzero" version="1.0" d="M47.733,114.029C57.093,114.029,62.321,110.776,63.418,104.269L80.64,104.269C78.591,111.142,74.441,116.645,68.19,120.777C61.937,124.909,54.423,126.974,45.648,126.974C34.46,126.974,26.379,123.281,21.408,115.896C17.459,109.972,16.143,102.951,17.459,94.834C18.775,86.132,22.395,78.674,28.32,72.46C35.776,64.78,45.063,60.94,56.178,60.94C64.953,60.94,71.808,63.007,76.745,67.14C81.681,71.271,84.077,76.773,83.932,83.645L66.711,83.645C67.222,80.429,66.38,77.999,64.185,76.354C61.991,74.708,58.775,73.885,54.535,73.885C49.56,73.885,45.191,75.878,41.426,79.864C37.661,83.848,35.303,88.838,34.353,94.834C33.4,100.611,34.13,105.255,36.544,108.766C38.958,112.275,42.687,114.029,47.733,114.029ZM47.733,114.029"/>
  <path fill-opacity="1" fill-rule="nonzero" stroke-opacity="1" stroke-dasharray="none" stroke="none" version="1.0" stroke-width="1px" stroke-miterlimit="4" stroke-linejoin="miter" stroke-linecap="butt" fill="#000000" d="M109.158,87.265L103.015,126.315L86.125,126.315L96.216,62.148L115.191,62.148L134.497,100.21L140.529,62.148L157.423,62.148L147.331,126.315L128.792,126.315ZM109.158,87.265"/>
</g>
  <g id="Heavy-L" transform="matrix(1.0,0.0,0.0,1.0,2556.231376250562,1439.031395781812)">  <path fill-opacity="1" stroke-width="1px" stroke-opacity="1" fill="#000000" version="1.0" stroke-dasharray="none" stroke-miterlimit="4" fill-rule="nonzero" stroke-linejoin="miter" stroke-linecap="butt" stroke="none" d="M47.733,114.029C57.093,114.029,62.321,110.776,63.418,104.269L80.64,104.269C78.591,111.142,74.441,116.645,68.19,120.777C61.937,124.909,54.423,126.974,45.648,126.974C34.46,126.974,26.379,123.281,21.408,115.896C17.459,109.972,16.143,102.951,17.459,94.834C18.775,86.132,22.395,78.674,28.32,72.46C35.776,64.78,45.063,60.94,56.178,60.94C64.953,60.94,71.808,63.007,76.745,67.14C81.681,71.271,84.077,76.773,83.932,83.645L66.711,83.645C67.222,80.429,66.38,77.999,64.185,76.354C61.991,74.708,58.775,73.885,54.535,73.885C49.56,73.885,45.191,75.878,41.426,79.864C37.661,83.848,35.303,88.838,34.353,94.834C33.4,100.611,34.13,105.255,36.544,108.766C38.958,112.275,42.687,114.029,47.733,114.029ZM47.733,114.029"/>
  <path stroke-width="1px" fill="#000000" stroke="none" version="1.0" stroke-linecap="butt" stroke-linejoin="miter" stroke-miterlimit="4" fill-opacity="1" stroke-opacity="1" stroke-dasharray="none" fill-rule="nonzero" d="M109.158,87.265L103.015,126.315L86.125,126.315L96.216,62.148L115.191,62.148L134.497,100.21L140.529,62.148L157.423,62.148L147.331,126.315L128.792,126.315ZM109.158,87.265"/>
</g>
  <g id="Bold-L" transform="matrix(1.0,0.0,0.0,1.0,2259.521376250562,1439.031395781812)">  <path fill="#000000" stroke-opacity="1" stroke="none" stroke-miterlimit="4" stroke-linecap="butt" stroke-linejoin="miter" fill-opacity="1" fill-rule="nonzero" version="1.0" stroke-width="1px" stroke-dasharray="none" d="M47.733,114.029C57.093,114.029,62.321,110.776,63.418,104.269L80.64,104.269C78.591,111.142,74.441,116.645,68.19,120.777C61.937,124.909,54.423,126.974,45.648,126.974C34.46,126.974,26.379,123.281,21.408,115.896C17.459,109.972,16.143,102.951,17.459,94.834C18.775,86.132,22.395,78.674,28.32,72.46C35.776,64.78,45.063,60.94,56.178,60.94C64.953,60.94,71.808,63.007,76.745,67.14C81.681,71.271,84.077,76.773,83.932,83.645L66.711,83.645C67.222,80.429,66.38,77.999,64.185,76.354C61.991,74.708,58.775,73.885,54.535,73.885C49.56,73.885,45.191,75.878,41.426,79.864C37.661,83.848,35.303,88.838,34.353,94.834C33.4,100.611,34.13,105.255,36.544,108.766C38.958,112.275,42.687,114.029,47.733,114.029ZM47.733,114.029"/>
  <path stroke-width="1px" stroke-dasharray="none" fill="#000000" version="1.0" stroke-linejoin="miter" stroke-opacity="1" stroke="none" fill-rule="nonzero" stroke-miterlimit="4" fill-opacity="1" stroke-linecap="butt" d="M109.158,87.265L103.015,126.315L86.125,126.315L96.216,62.148L115.191,62.148L134.497,100.21L140.529,62.148L157.423,62.148L147.331,126.315L128.792,126.315ZM109.158,87.265"/>
</g>
  <g id="Semibold-L" transform="matrix(1.0,0.0,0.0,1.0,1962.811376250562,1439.031395781812)">  <path version="1.0" fill-rule="nonzero" stroke-dasharray="none" stroke-linecap="butt" stroke-linejoin="miter" fill-opacity="1" stroke="none" stroke-miterlimit="4" stroke-width="1px" fill="#000000" stroke-opacity="1" d="M47.733,114.029C57.093,114.029,62.321,110.776,63.418,104.269L80.64,104.269C78.591,111.142,74.441,116.645,68.19,120.777C61.937,124.909,54.423,126.974,45.648,126.974C34.46,126.974,26.379,123.281,21.408,115.896C17.459,109.972,16.143,102.951,17.459,94.834C18.775,86.132,22.395,78.674,28.32,72.46C35.776,64.78,45.063,60.94,56.178,60.94C64.953,60.94,71.808,63.007,76.745,67.14C81.681,71.271,84.077,76.773,83.932,83.645L66.711,83.645C67.222,80.429,66.38,77.999,64.185,76.354C61.991,74.708,58.775,73.885,54.535,73.885C49.56,73.885,45.191,75.878,41.426,79.864C37.661,83.848,35.303,88.838,34.353,94.834C33.4,100.611,34.13,105.255,36.544,108.766C38.958,112.275,42.687,114.029,47.733,114.029ZM47.733,114.029"/>
  <path stroke-miterlimit="4" stroke-width="1px" stroke="none" fill-opacity="1" stroke-opacity="1" stroke-linejoin="miter" fill="#000000" stroke-linecap="butt" fill-rule="nonzero" stroke-dasharray="none" version="1.0" d="M109.158,87.265L103.015,126.315L86.125,126.315L96.216,62.148L115.191,62.148L134.497,100.21L140.529,62.148L157.423,62.148L147.331,126.315L128.792,126.315ZM109.158,87.265"/>
</g>
  <g id="Medium-L" transform="matrix(1.0,0.0,0.0,1.0,1666.101376250562,1439.031395781812)">  <path fill-rule="nonzero" stroke-linejoin="miter" version="1.0" stroke-opacity="1" fill="#000000" stroke-miterlimit="4" fill-opacity="1" stroke-dasharray="none" stroke-width="1px" stroke="none" stroke-linecap="butt" d="M47.733,114.029C57.093,114.029,62.321,110.776,63.418,104.269L80.64,104.269C78.591,111.142,74.441,116.645,68.19,120.777C61.937,124.909,54.423,126.974,45.648,126.974C34.46,126.974,26.379,123.281,21.408,115.896C17.459,109.972,16.143,102.951,17.459,94.834C18.775,86.132,22.395,78.674,28.32,72.46C35.776,64.78,45.063,60.94,56.178,60.94C64.953,60.94,71.808,63.007,76.745,67.14C81.681,71.271,84.077,76.773,83.932,83.645L66.711,83.645C67.222,80.429,66.38,77.999,64.185,76.354C61.991,74.708,58.775,73.885,54.535,73.885C49.56,73.885,45.191,75.878,41.426,79.864C37.661,83.848,35.303,88.838,34.353,94.834C33.4,100.611,34.13,105.255,36.544,108.766C38.958,112.275,42.687,114.029,47.733,114.029ZM47.733,114.029"/>
  <path stroke-linecap="butt" stroke="none" fill="#000000" stroke-miterlimit="4" version="1.0" stroke-dasharray="none" fill-opacity="1" fill-rule="nonzero" stroke-opacity="1" stroke-linejoin="miter" stroke-width="1px" d="M109.158,87.265L103.015,126.315L86.125,126.315L96.216,62.148L115.191,62.148L134.497,100.21L140.529,62.148L157.423,62.148L147.331,126.315L128.792,126.315ZM109.158,87.265"/>
</g>
  <g id="Regular-L" transform="matrix(1.0,0.0,0.0,1.0,1369.391376250562,1439.031395781812)">  <path version="1.0" fill-rule="nonzero" stroke-dasharray="none" stroke-width="1px" stroke="none" stroke-opacity="1" stroke-linecap="butt" stroke-miterlimit="4" fill="#000000" fill-opacity="1" stroke-linejoin="miter" d="M47.733,114.029C57.093,114.029,62.321,110.776,63.418,104.269L80.64,104.269C78.591,111.142,74.441,116.645,68.19,120.777C61.937,124.909,54.423,126.974,45.648,126.974C34.46,126.974,26.379,123.281,21.408,115.896C17.459,109.972,16.143,102.951,17.459,94.834C18.775,86.132,22.395,78.674,28.32,72.46C35.776,64.78,45.063,60.94,56.178,60.94C64.953,60.94,71.808,63.007,76.745,67.14C81.681,71.271,84.077,76.773,83.932,83.645L66.711,83.645C67.222,80.429,66.38,77.999,64.185,76.354C61.991,74.708,58.775,73.885,54.535,73.885C49.56,73.885,45.191,75.878,41.426,79.864C37.661,83.848,35.303,88.838,34.353,94.834C33.4,100.611,34.13,105.255,36.544,108.766C38.958,112.275,42.687,114.029,47.733,114.029ZM47.733,114.029"/>
  <path stroke-miterlimit="4" stroke-linecap="butt" stroke-dasharray="none" fill-rule="nonzero" stroke-linejoin="miter" stroke-opacity="1" stroke="none" fill-opacity="1" version="1.0" stroke-width="1px" fill="#000000" d="M109.158,87.265L103.015,126.315L86.125,126.315L96.216,62.148L115.191,62.148L134.497,100.21L140.529,62.148L157.423,62.148L147.331,126.315L128.792,126.315ZM109.158,87.265"/>
</g>
  <g id="Light-L" transform="matrix(1.0,0.0,0.0,1.0,1072.6813762505622,1439.031395781812)">  <path stroke-linejoin="miter" stroke-opacity="1" version="1.0" stroke-width="1px" fill="#000000" stroke-miterlimit="4" stroke-dasharray="none" fill-opacity="1" stroke="none" stroke-linecap="butt" fill-rule="nonzero" d="M47.733,114.029C57.093,114.029,62.321,110.776,63.418,104.269L80.64,104.269C78.591,111.142,74.441,116.645,68.19,120.777C61.937,124.909,54.423,126.974,45.648,126.974C34.46,126.974,26.379,123.281,21.408,115.896C17.459,109.972,16.143,102.951,17.459,94.834C18.775,86.132,22.395,78.674,28.32,72.46C35.776,64.78,45.063,60.94,56.178,60.94C64.953,60.94,71.808,63.007,76.745,67.14C81.681,71.271,84.077,76.773,83.932,83.645L66.711,83.645C67.222,80.429,66.38,77.999,64.185,76.354C61.991,74.708,58.775,73.885,54.535,73.885C49.56,73.885,45.191,75.878,41.426,79.864C37.661,83.848,35.303,88.838,34.353,94.834C33.4,100.611,34.13,105.255,36.544,108.766C38.958,112.275,42.687,114.029,47.733,114.029ZM47.733,114.029"/>
  <path stroke="none" stroke-linejoin="miter" stroke-width="1px" fill-rule="nonzero" stroke-miterlimit="4" stroke-linecap="butt" fill-opacity="1" stroke-opacity="1" fill="#000000" stroke-dasharray="none" version="1.0" d="M109.158,87.265L103.015,126.315L86.125,126.315L96.216,62.148L115.191,62.148L134.497,100.21L140.529,62.148L157.423,62.148L147.331,126.315L128.792,126.315ZM109.158,87.265"/>
</g>
  <g id="Thin-L" transform="matrix(1.0,0.0,0.0,1.0,775.9713762505621,1439.031395781812)">  <path stroke="none" stroke-opacity="1" version="1.0" stroke-miterlimit="4" stroke-linejoin="miter" fill-opacity="1" stroke-dasharray="none" fill-rule="nonzero" stroke-linecap="butt" stroke-width="1px" fill="#000000" d="M47.733,114.029C57.093,114.029,62.321,110.776,63.418,104.269L80.64,104.269C78.591,111.142,74.441,116.645,68.19,120.777C61.937,124.909,54.423,126.974,45.648,126.974C34.46,126.974,26.379,123.281,21.408,115.896C17.459,109.972,16.143,102.951,17.459,94.834C18.775,86.132,22.395,78.674,28.32,72.46C35.776,64.78,45.063,60.94,56.178,60.94C64.953,60.94,71.808,63.007,76.745,67.14C81.681,71.271,84.077,76.773,83.932,83.645L66.711,83.645C67.222,80.429,66.38,77.999,64.185,76.354C61.991,74.708,58.775,73.885,54.535,73.885C49.56,73.885,45.191,75.878,41.426,79.864C37.661,83.848,35.303,88.838,34.353,94.834C33.4,100.611,34.13,105.255,36.544,108.766C38.958,112.275,42.687,114.029,47.733,114.029ZM47.733,114.029"/>
  <path stroke-width="1px" fill-rule="nonzero" stroke-linecap="butt" stroke-dasharray="none" stroke-opacity="1" fill="#000000" stroke-linejoin="miter" stroke-miterlimit="4" version="1.0" stroke="none" fill-opacity="1" d="M109.158,87.265L103.015,126.315L86.125,126.315L96.216,62.148L115.191,62.148L134.497,100.21L140.529,62.148L157.423,62.148L147.331,126.315L128.792,126.315ZM109.158,87.265"/>
</g>
  <g id="Ultralight-L" transform="matrix(1.0,0.0,0.0,1.0,479.2613762505621,1439.031395781812)">  <path stroke-linejoin="miter" stroke-opacity="1" fill-rule="nonzero" stroke-miterlimit="4" stroke="none" stroke-width="1px" stroke-linecap="butt" fill="#000000" version="1.0" stroke-dasharray="none" fill-opacity="1" d="M47.733,114.029C57.093,114.029,62.321,110.776,63.418,104.269L80.64,104.269C78.591,111.142,74.441,116.645,68.19,120.777C61.937,124.909,54.423,126.974,45.648,126.974C34.46,126.974,26.379,123.281,21.408,115.896C17.459,109.972,16.143,102.951,17.459,94.834C18.775,86.132,22.395,78.674,28.32,72.46C35.776,64.78,45.063,60.94,56.178,60.94C64.953,60.94,71.808,63.007,76.745,67.14C81.681,71.271,84.077,76.773,83.932,83.645L66.711,83.645C67.222,80.429,66.38,77.999,64.185,76.354C61.991,74.708,58.775,73.885,54.535,73.885C49.56,73.885,45.191,75.878,41.426,79.864C37.661,83.848,35.303,88.838,34.353,94.834C33.4,100.611,34.13,105.255,36.544,108.766C38.958,112.275,42.687,114.029,47.733,114.029ZM47.733,114.029"/>
  <path stroke-miterlimit="4" stroke-opacity="1" stroke-dasharray="none" fill-rule="nonzero" stroke-linecap="butt" stroke="none" version="1.0" fill="#000000" fill-opacity="1" stroke-width="1px" stroke-linejoin="miter" d="M109.158,87.265L103.015,126.315L86.125,126.315L96.216,62.148L115.191,62.148L134.497,100.21L140.529,62.148L157.423,62.148L147.331,126.315L128.792,126.315ZM109.158,87.265"/>
</g>
  <g id="Black-M" transform="matrix(1.0,0.0,0.0,1.0,2871.3167257756295,1027.4067453068794)">  <path stroke-dasharray="none" stroke-miterlimit="4" stroke-linejoin="miter" fill="#000000" stroke-opacity="1" stroke-width="1px" fill-opacity="1" stroke-linecap="butt" stroke="none" fill-rule="nonzero" version="1.0" d="M37.002,88.395C44.258,88.395,48.311,85.873,49.162,80.829L62.511,80.829C60.924,86.157,57.707,90.422,52.86,93.626C48.013,96.828,42.188,98.43,35.386,98.43C26.713,98.43,20.449,95.567,16.595,89.842C13.534,85.25,12.514,79.807,13.534,73.514C14.554,66.769,17.361,60.988,21.953,56.17C27.734,50.217,34.932,47.24,43.549,47.24C50.351,47.24,55.665,48.843,59.492,52.046C63.319,55.249,65.176,59.514,65.064,64.841L51.714,64.841C52.11,62.348,51.457,60.464,49.756,59.189C48.055,57.913,45.562,57.275,42.275,57.275C38.419,57.275,35.032,58.82,32.113,61.91C29.194,64.999,27.366,68.867,26.63,73.514C25.892,77.993,26.458,81.593,28.329,84.315C30.2,87.035,33.091,88.395,37.002,88.395ZM37.002,88.395"/>
  <path fill-opacity="1" fill-rule="nonzero" stroke-opacity="1" stroke-dasharray="none" stroke="none" version="1.0" stroke-width="1px" stroke-miterlimit="4" stroke-linejoin="miter" stroke-linecap="butt" fill="#000000" d="M84.619,67.648L79.857,97.919L66.764,97.919L74.586,48.177L89.295,48.177L104.261,77.682L108.937,48.177L122.033,48.177L114.21,97.919L99.839,97.919ZM84.619,67.648"/>
</g>
  <g id="Heavy-M" transform="matrix(1.0,0.0,0.0,1.0,2574.6067257756295,1027.4067453068794)">  <path fill-opacity="1" stroke-width="1px" stroke-opacity="1" fill="#000000" version="1.0" stroke-dasharray="none" stroke-miterlimit="4" fill-rule="nonzero" stroke-linejoin="miter" stroke-linecap="butt" stroke="none" d="M37.002,88.395C44.258,88.395,48.311,85.873,49.162,80.829L62.511,80.829C60.924,86.157,57.707,90.422,52.86,93.626C48.013,96.828,42.188,98.43,35.386,98.43C26.713,98.43,20.449,95.567,16.595,89.842C13.534,85.25,12.514,79.807,13.534,73.514C14.554,66.769,17.361,60.988,21.953,56.17C27.734,50.217,34.932,47.24,43.549,47.24C50.351,47.24,55.665,48.843,59.492,52.046C63.319,55.249,65.176,59.514,65.064,64.841L51.714,64.841C52.11,62.348,51.457,60.464,49.756,59.189C48.055,57.913,45.562,57.275,42.275,57.275C38.419,57.275,35.032,58.82,32.113,61.91C29.194,64.999,27.366,68.867,26.63,73.514C25.892,77.993,26.458,81.593,28.329,84.315C30.2,87.035,33.091,88.395,37.002,88.395ZM37.002,88.395"/>
  <path stroke-width="1px" fill="#000000" stroke="none" version="1.0" stroke-linecap="butt" stroke-linejoin="miter" stroke-miterlimit="4" fill-opacity="1" stroke-opacity="1" stroke-dasharray="none" fill-rule="nonzero" d="M84.619,67.648L79.857,97.919L66.764,97.919L74.586,48.177L89.295,48.177L104.261,77.682L108.937,48.177L122.033,48.177L114.21,97.919L99.839,97.919ZM84.619,67.648"/>
</g>
  <g id="Bold-M" transform="matrix(1.0,0.0,0.0,1.0,2277.8967257756294,1027.4067453068794)">  <path fill="#000000" stroke-opacity="1" stroke="none" stroke-miterlimit="4" stroke-linecap="butt" stroke-linejoin="miter" fill-opacity="1" fill-rule="nonzero" version="1.0" stroke-width="1px" stroke-dasharray="none" d="M37.002,88.395C44.258,88.395,48.311,85.873,49.162,80.829L62.511,80.829C60.924,86.157,57.707,90.422,52.86,93.626C48.013,96.828,42.188,98.43,35.386,98.43C26.713,98.43,20.449,95.567,16.595,89.842C13.534,85.25,12.514,79.807,13.534,73.514C14.554,66.769,17.361,60.988,21.953,56.17C27.734,50.217,34.932,47.24,43.549,47.24C50.351,47.24,55.665,48.843,59.492,52.046C63.319,55.249,65.176,59.514,65.064,64.841L51.714,64.841C52.11,62.348,51.457,60.464,49.756,59.189C48.055,57.913,45.562,57.275,42.275,57.275C38.419,57.275,35.032,58.82,32.113,61.91C29.194,64.999,27.366,68.867,26.63,73.514C25.892,77.993,26.458,81.593,28.329,84.315C30.2,87.035,33.091,88.395,37.002,88.395ZM37.002,88.395"/>
  <path stroke-width="1px" stroke-dasharray="none" fill="#000000" version="1.0" stroke-linejoin="miter" stroke-opacity="1" stroke="none" fill-rule="nonzero" stroke-miterlimit="4" fill-opacity="1" stroke-linecap="butt" d="M84.619,67.648L79.857,97.919L66.764,97.919L74.586,48.177L89.295,48.177L104.261,77.682L108.937,48.177L122.033,48.177L114.21,97.919L99.839,97.919ZM84.619,67.648"/>
</g>
  <g id="Semibold-M" transform="matrix(1.0,0.0,0.0,1.0,1981.1867257756294,1027.4067453068794)">  <path version="1.0" fill-rule="nonzero" stroke-dasharray="none" stroke-linecap="butt" stroke-linejoin="miter" fill-opacity="1" stroke="none" stroke-miterlimit="4" stroke-width="1px" fill="#000000" stroke-opacity="1" d="M37.002,88.395C44.258,88.395,48.311,85.873,49.162,80.829L62.511,80.829C60.924,86.157,57.707,90.422,52.86,93.626C48.013,96.828,42.188,98.43,35.386,98.43C26.713,98.43,20.449,95.567,16.595,89.842C13.534,85.25,12.514,79.807,13.534,73.514C14.554,66.769,17.361,60.988,21.953,56.17C27.734,50.217,34.932,47.24,43.549,47.24C50.351,47.24,55.665,48.843,59.492,52.046C63.319,55.249,65.176,59.514,65.064,64.841L51.714,64.841C52.11,62.348,51.457,60.464,49.756,59.189C48.055,57.913,45.562,57.275,42.275,57.275C38.419,57.275,35.032,58.82,32.113,61.91C29.194,64.999,27.366,68.867,26.63,73.514C25.892,77.993,26.458,81.593,28.329,84.315C30.2,87.035,33.091,88.395,37.002,88.395ZM37.002,88.395"/>
  <path stroke-miterlimit="4" stroke-width="1px" stroke="none" fill-opacity="1" stroke-opacity="1" stroke-linejoin="miter" fill="#000000" stroke-linecap="butt" fill-rule="nonzero" stroke-dasharray="none" version="1.0" d="M84.619,67.648L79.857,97.919L66.764,97.919L74.586,48.177L89.295,48.177L104.261,77.682L108.937,48.177L122.033,48.177L114.21,97.919L99.839,97.919ZM84.619,67.648"/>
</g>
  <g id="Medium-M" transform="matrix(1.0,0.0,0.0,1.0,1684.4767257756293,1027.4067453068794)">  <path fill-rule="nonzero" stroke-linejoin="miter" version="1.0" stroke-opacity="1" fill="#000000" stroke-miterlimit="4" fill-opacity="1" stroke-dasharray="none" stroke-width="1px" stroke="none" stroke-linecap="butt" d="M37.002,88.395C44.258,88.395,48.311,85.873,49.162,80.829L62.511,80.829C60.924,86.157,57.707,90.422,52.86,93.626C48.013,96.828,42.188,98.43,35.386,98.43C26.713,98.43,20.449,95.567,16.595,89.842C13.534,85.25,12.514,79.807,13.534,73.514C14.554,66.769,17.361,60.988,21.953,56.17C27.734,50.217,34.932,47.24,43.549,47.24C50.351,47.24,55.665,48.843,59.492,52.046C63.319,55.249,65.176,59.514,65.064,64.841L51.714,64.841C52.11,62.348,51.457,60.464,49.756,59.189C48.055,57.913,45.562,57.275,42.275,57.275C38.419,57.275,35.032,58.82,32.113,61.91C29.194,64.999,27.366,68.867,26.63,73.514C25.892,77.993,26.458,81.593,28.329,84.315C30.2,87.035,33.091,88.395,37.002,88.395ZM37.002,88.395"/>
  <path stroke-linecap="butt" stroke="none" fill="#000000" stroke-miterlimit="4" version="1.0" stroke-dasharray="none" fill-opacity="1" fill-rule="nonzero" stroke-opacity="1" stroke-linejoin="miter" stroke-width="1px" d="M84.619,67.648L79.857,97.919L66.764,97.919L74.586,48.177L89.295,48.177L104.261,77.682L108.937,48.177L122.033,48.177L114.21,97.919L99.839,97.919ZM84.619,67.648"/>
</g>
  <g id="Regular-M" transform="matrix(1.0,0.0,0.0,1.0,1387.7667257756293,1027.4067453068794)">  <path version="1.0" fill-rule="nonzero" stroke-dasharray="none" stroke-width="1px" stroke="none" stroke-opacity="1" stroke-linecap="butt" stroke-miterlimit="4" fill="#000000" fill-opacity="1" stroke-linejoin="miter" d="M37.002,88.395C44.258,88.395,48.311,85.873,49.162,80.829L62.511,80.829C60.924,86.157,57.707,90.422,52.86,93.626C48.013,96.828,42.188,98.43,35.386,98.43C26.713,98.43,20.449,95.567,16.595,89.842C13.534,85.25,12.514,79.807,13.534,73.514C14.554,66.769,17.361,60.988,21.953,56.17C27.734,50.217,34.932,47.24,43.549,47.24C50.351,47.24,55.665,48.843,59.492,52.046C63.319,55.249,65.176,59.514,65.064,64.841L51.714,64.841C52.11,62.348,51.457,60.464,49.756,59.189C48.055,57.913,45.562,57.275,42.275,57.275C38.419,57.275,35.032,58.82,32.113,61.91C29.194,64.999,27.366,68.867,26.63,73.514C25.892,77.993,26.458,81.593,28.329,84.315C30.2,87.035,33.091,88.395,37.002,88.395ZM37.002,88.395"/>
  <path stroke-miterlimit="4" stroke-linecap="butt" stroke-dasharray="none" fill-rule="nonzero" stroke-linejoin="miter" stroke-opacity="1" stroke="none" fill-opacity="1" version="1.0" stroke-width="1px" fill="#000000" d="M84.619,67.648L79.857,97.919L66.764,97.919L74.586,48.177L89.295,48.177L104.261,77.682L108.937,48.177L122.033,48.177L114.21,97.919L99.839,97.919ZM84.619,67.648"/>
</g>
  <g id="Light-M" transform="matrix(1.0,0.0,0.0,1.0,1091.0567257756295,1027.4067453068794)">  <path stroke-linejoin="miter" stroke-opacity="1" version="1.0" stroke-width="1px" fill="#000000" stroke-miterlimit="4" stroke-dasharray="none" fill-opacity="1" stroke="none" stroke-linecap="butt" fill-rule="nonzero" d="M37.002,88.395C44.258,88.395,48.311,85.873,49.162,80.829L62.511,80.829C60.924,86.157,57.707,90.422,52.86,93.626C48.013,96.828,42.188,98.43,35.386,98.43C26.713,98.43,20.449,95.567,16.595,89.842C13.534,85.25,12.514,79.807,13.534,73.514C14.554,66.769,17.361,60.988,21.953,56.17C27.734,50.217,34.932,47.24,43.549,47.24C50.351,47.24,55.665,48.843,59.492,52.046C63.319,55.249,65.176,59.514,65.064,64.841L51.714,64.841C52.11,62.348,51.457,60.464,49.756,59.189C48.055,57.913,45.562,57.275,42.275,57.275C38.419,57.275,35.032,58.82,32.113,61.91C29.194,64.999,27.366,68.867,26.63,73.514C25.892,77.993,26.458,81.593,28.329,84.315C30.2,87.035,33.091,88.395,37.002,88.395ZM37.002,88.395"/>
  <path stroke="none" stroke-linejoin="miter" stroke-width="1px" fill-rule="nonzero" stroke-miterlimit="4" stroke-linecap="butt" fill-opacity="1" stroke-opacity="1" fill="#000000" stroke-dasharray="none" version="1.0" d="M84.619,67.648L79.857,97.919L66.764,97.919L74.586,48.177L89.295,48.177L104.261,77.682L108.937,48.177L122.033,48.177L114.21,97.919L99.839,97.919ZM84.619,67.648"/>
</g>
  <g id="Thin-M" transform="matrix(1.0,0.0,0.0,1.0,794.3467257756296,1027.4067453068794)">  <path stroke="none" stroke-opacity="1" version="1.0" stroke-miterlimit="4" stroke-linejoin="miter" fill-opacity="1" stroke-dasharray="none" fill-rule="nonzero" stroke-linecap="butt" stroke-width="1px" fill="#000000" d="M37.002,88.395C44.258,88.395,48.311,85.873,49.162,80.829L62.511,80.829C60.924,86.157,57.707,90.422,52.86,93.626C48.013,96.828,42.188,98.43,35.386,98.43C26.713,98.43,20.449,95.567,16.595,89.842C13.534,85.25,12.514,79.807,13.534,73.514C14.554,66.769,17.361,60.988,21.953,56.17C27.734,50.217,34.932,47.24,43.549,47.24C50.351,47.24,55.665,48.843,59.492,52.046C63.319,55.249,65.176,59.514,65.064,64.841L51.714,64.841C52.11,62.348,51.457,60.464,49.756,59.189C48.055,57.913,45.562,57.275,42.275,57.275C38.419,57.275,35.032,58.82,32.113,61.91C29.194,64.999,27.366,68.867,26.63,73.514C25.892,77.993,26.458,81.593,28.329,84.315C30.2,87.035,33.091,88.395,37.002,88.395ZM37.002,88.395"/>
  <path stroke-width="1px" fill-rule="nonzero" stroke-linecap="butt" stroke-dasharray="none" stroke-opacity="1" fill="#000000" stroke-linejoin="miter" stroke-miterlimit="4" version="1.0" stroke="none" fill-opacity="1" d="M84.619,67.648L79.857,97.919L66.764,97.919L74.586,48.177L89.295,48.177L104.261,77.682L108.937,48.177L122.033,48.177L114.21,97.919L99.839,97.919ZM84.619,67.648"/>
</g>
  <g id="Ultralight-M" transform="matrix(1.0,0.0,0.0,1.0,497.6367257756295,1027.4067453068794)">  <path stroke-linejoin="miter" stroke-opacity="1" fill-rule="nonzero" stroke-miterlimit="4" stroke="none" stroke-width="1px" stroke-linecap="butt" fill="#000000" version="1.0" stroke-dasharray="none" fill-opacity="1" d="M37.002,88.395C44.258,88.395,48.311,85.873,49.162,80.829L62.511,80.829C60.924,86.157,57.707,90.422,52.86,93.626C48.013,96.828,42.188,98.43,35.386,98.43C26.713,98.43,20.449,95.567,16.595,89.842C13.534,85.25,12.514,79.807,13.534,73.514C14.554,66.769,17.361,60.988,21.953,56.17C27.734,50.217,34.932,47.24,43.549,47.24C50.351,47.24,55.665,48.843,59.492,52.046C63.319,55.249,65.176,59.514,65.064,64.841L51.714,64.841C52.11,62.348,51.457,60.464,49.756,59.189C48.055,57.913,45.562,57.275,42.275,57.275C38.419,57.275,35.032,58.82,32.113,61.91C29.194,64.999,27.366,68.867,26.63,73.514C25.892,77.993,26.458,81.593,28.329,84.315C30.2,87.035,33.091,88.395,37.002,88.395ZM37.002,88.395"/>
  <path stroke-miterlimit="4" stroke-opacity="1" stroke-dasharray="none" fill-rule="nonzero" stroke-linecap="butt" stroke="none" version="1.0" fill="#000000" fill-opacity="1" stroke-width="1px" stroke-linejoin="miter" d="M84.619,67.648L79.857,97.919L66.764,97.919L74.586,48.177L89.295,48.177L104.261,77.682L108.937,48.177L122.033,48.177L114.21,97.919L99.839,97.919ZM84.619,67.648"/>
</g>
  <g id="Black-S" transform="matrix(1.0,0.0,0.0,1.0,2885.066556282318,611.1565758135679)">  <path stroke-dasharray="none" stroke-miterlimit="4" stroke-linejoin="miter" fill="#000000" stroke-opacity="1" stroke-width="1px" fill-opacity="1" stroke-linecap="butt" stroke="none" fill-rule="nonzero" version="1.0" d="M28.973,69.213C34.654,69.213,37.827,67.239,38.494,63.289L48.946,63.289C47.703,67.461,45.184,70.801,41.39,73.309C37.594,75.817,33.034,77.07,27.708,77.07C20.916,77.07,16.011,74.829,12.994,70.346C10.597,66.75,9.798,62.489,10.597,57.562C11.396,52.28,13.593,47.754,17.19,43.981C21.715,39.32,27.352,36.989,34.099,36.989C39.425,36.989,43.586,38.244,46.582,40.752C49.579,43.26,51.033,46.599,50.945,50.771L40.492,50.771C40.802,48.818,40.291,47.343,38.959,46.345C37.627,45.346,35.675,44.846,33.101,44.846C30.082,44.846,27.43,46.056,25.145,48.476C22.859,50.894,21.428,53.923,20.851,57.562C20.273,61.068,20.716,63.887,22.182,66.018C23.646,68.148,25.91,69.213,28.973,69.213ZM28.973,69.213"/>
  <path fill-opacity="1" fill-rule="nonzero" stroke-opacity="1" stroke-dasharray="none" stroke="none" version="1.0" stroke-width="1px" stroke-miterlimit="4" stroke-linejoin="miter" stroke-linecap="butt" fill="#000000" d="M66.257,52.968L62.528,76.67L52.276,76.67L58.401,37.722L69.918,37.722L81.636,60.825L85.298,37.722L95.552,37.722L89.427,76.67L78.174,76.67ZM66.257,52.968"/>
</g>
  <g id="Heavy-S" transform="matrix(1.0,0.0,0.0,1.0,2588.356556282318,611.1565758135679)">  <path fill-opacity="1" stroke-width="1px" stroke-opacity="1" fill="#000000" version="1.0" stroke-dasharray="none" stroke-miterlimit="4" fill-rule="nonzero" stroke-linejoin="miter" stroke-linecap="butt" stroke="none" d="M28.973,69.213C34.654,69.213,37.827,67.239,38.494,63.289L48.946,63.289C47.703,67.461,45.184,70.801,41.39,73.309C37.594,75.817,33.034,77.07,27.708,77.07C20.916,77.07,16.011,74.829,12.994,70.346C10.597,66.75,9.798,62.489,10.597,57.562C11.396,52.28,13.593,47.754,17.19,43.981C21.715,39.32,27.352,36.989,34.099,36.989C39.425,36.989,43.586,38.244,46.582,40.752C49.579,43.26,51.033,46.599,50.945,50.771L40.492,50.771C40.802,48.818,40.291,47.343,38.959,46.345C37.627,45.346,35.675,44.846,33.101,44.846C30.082,44.846,27.43,46.056,25.145,48.476C22.859,50.894,21.428,53.923,20.851,57.562C20.273,61.068,20.716,63.887,22.182,66.018C23.646,68.148,25.91,69.213,28.973,69.213ZM28.973,69.213"/>
  <path stroke-width="1px" fill="#000000" stroke="none" version="1.0" stroke-linecap="butt" stroke-linejoin="miter" stroke-miterlimit="4" fill-opacity="1" stroke-opacity="1" stroke-dasharray="none" fill-rule="nonzero" d="M66.257,52.968L62.528,76.67L52.276,76.67L58.401,37.722L69.918,37.722L81.636,60.825L85.298,37.722L95.552,37.722L89.427,76.67L78.174,76.67ZM66.257,52.968"/>
</g>
  <g id="Bold-S" transform="matrix(1.0,0.0,0.0,1.0,2291.6465562823178,611.1565758135679)">  <path fill="#000000" stroke-opacity="1" stroke="none" stroke-miterlimit="4" stroke-linecap="butt" stroke-linejoin="miter" fill-opacity="1" fill-rule="nonzero" version="1.0" stroke-width="1px" stroke-dasharray="none" d="M28.973,69.213C34.654,69.213,37.827,67.239,38.494,63.289L48.946,63.289C47.703,67.461,45.184,70.801,41.39,73.309C37.594,75.817,33.034,77.07,27.708,77.07C20.916,77.07,16.011,74.829,12.994,70.346C10.597,66.75,9.798,62.489,10.597,57.562C11.396,52.28,13.593,47.754,17.19,43.981C21.715,39.32,27.352,36.989,34.099,36.989C39.425,36.989,43.586,38.244,46.582,40.752C49.579,43.26,51.033,46.599,50.945,50.771L40.492,50.771C40.802,48.818,40.291,47.343,38.959,46.345C37.627,45.346,35.675,44.846,33.101,44.846C30.082,44.846,27.43,46.056,25.145,48.476C22.859,50.894,21.428,53.923,20.851,57.562C20.273,61.068,20.716,63.887,22.182,66.018C23.646,68.148,25.91,69.213,28.973,69.213ZM28.973,69.213"/>
  <path stroke-width="1px" stroke-dasharray="none" fill="#000000" version="1.0" stroke-linejoin="miter" stroke-opacity="1" stroke="none" fill-rule="nonzero" stroke-miterlimit="4" fill-opacity="1" stroke-linecap="butt" d="M66.257,52.968L62.528,76.67L52.276,76.67L58.401,37.722L69.918,37.722L81.636,60.825L85.298,37.722L95.552,37.722L89.427,76.67L78.174,76.67ZM66.257,52.968"/>
</g>
  <g id="Semibold-S" transform="matrix(1.0,0.0,0.0,1.0,1994.936556282318,611.1565758135679)">  <path version="1.0" fill-rule="nonzero" stroke-dasharray="none" stroke-linecap="butt" stroke-linejoin="miter" fill-opacity="1" stroke="none" stroke-miterlimit="4" stroke-width="1px" fill="#000000" stroke-opacity="1" d="M28.973,69.213C34.654,69.213,37.827,67.239,38.494,63.289L48.946,63.289C47.703,67.461,45.184,70.801,41.39,73.309C37.594,75.817,33.034,77.07,27.708,77.07C20.916,77.07,16.011,74.829,12.994,70.346C10.597,66.75,9.798,62.489,10.597,57.562C11.396,52.28,13.593,47.754,17.19,43.981C21.715,39.32,27.352,36.989,34.099,36.989C39.425,36.989,43.586,38.244,46.582,40.752C49.579,43.26,51.033,46.599,50.945,50.771L40.492,50.771C40.802,48.818,40.291,47.343,38.959,46.345C37.627,45.346,35.675,44.846,33.101,44.846C30.082,44.846,27.43,46.056,25.145,48.476C22.859,50.894,21.428,53.923,20.851,57.562C20.273,61.068,20.716,63.887,22.182,66.018C23.646,68.148,25.91,69.213,28.973,69.213ZM28.973,69.213"/>
  <path stroke-miterlimit="4" stroke-width="1px" stroke="none" fill-opacity="1" stroke-opacity="1" stroke-linejoin="miter" fill="#000000" stroke-linecap="butt" fill-rule="nonzero" stroke-dasharray="none" version="1.0" d="M66.257,52.968L62.528,76.67L52.276,76.67L58.401,37.722L69.918,37.722L81.636,60.825L85.298,37.722L95.552,37.722L89.427,76.67L78.174,76.67ZM66.257,52.968"/>
</g>
  <g id="Medium-S" transform="matrix(1.0,0.0,0.0,1.0,1698.226556282318,611.1565758135679)">  <path fill-rule="nonzero" stroke-linejoin="miter" version="1.0" stroke-opacity="1" fill="#000000" stroke-miterlimit="4" fill-opacity="1" stroke-dasharray="none" stroke-width="1px" stroke="none" stroke-linecap="butt" d="M28.973,69.213C34.654,69.213,37.827,67.239,38.494,63.289L48.946,63.289C47.703,67.461,45.184,70.801,41.39,73.309C37.594,75.817,33.034,77.07,27.708,77.07C20.916,77.07,16.011,74.829,12.994,70.346C10.597,66.75,9.798,62.489,10.597,57.562C11.396,52.28,13.593,47.754,17.19,43.981C21.715,39.32,27.352,36.989,34.099,36.989C39.425,36.989,43.586,38.244,46.582,40.752C49.579,43.26,51.033,46.599,50.945,50.771L40.492,50.771C40.802,48.818,40.291,47.343,38.959,46.345C37.627,45.346,35.675,44.846,33.101,44.846C30.082,44.846,27.43,46.056,25.145,48.476C22.859,50.894,21.428,53.923,20.851,57.562C20.273,61.068,20.716,63.887,22.182,66.018C23.646,68.148,25.91,69.213,28.973,69.213ZM28.973,69.213"/>
  <path stroke-linecap="butt" stroke="none" fill="#000000" stroke-miterlimit="4" version="1.0" stroke-dasharray="none" fill-opacity="1" fill-rule="nonzero" stroke-opacity="1" stroke-linejoin="miter" stroke-width="1px" d="M66.257,52.968L62.528,76.67L52.276,76.67L58.401,37.722L69.918,37.722L81.636,60.825L85.298,37.722L95.552,37.722L89.427,76.67L78.174,76.67ZM66.257,52.968"/>
</g>
  <g id="Regular-S" transform="matrix(1.0,0.0,0.0,1.0,1401.5165562823179,611.1565758135679)">  <path version="1.0" fill-rule="nonzero" stroke-dasharray="none" stroke-width="1px" stroke="none" stroke-opacity="1" stroke-linecap="butt" stroke-miterlimit="4" fill="#000000" fill-opacity="1" stroke-linejoin="miter" d="M28.973,69.213C34.654,69.213,37.827,67.239,38.494,63.289L48.946,63.289C47.703,67.461,45.184,70.801,41.39,73.309C37.594,75.817,33.034,77.07,27.708,77.07C20.916,77.07,16.011,74.829,12.994,70.346C10.597,66.75,9.798,62.489,10.597,57.562C11.396,52.28,13.593,47.754,17.19,43.981C21.715,39.32,27.352,36.989,34.099,36.989C39.425,36.989,43.586,38.244,46.582,40.752C49.579,43.26,51.033,46.599,50.945,50.771L40.492,50.771C40.802,48.818,40.291,47.343,38.959,46.345C37.627,45.346,35.675,44.846,33.101,44.846C30.082,44.846,27.43,46.056,25.145,48.476C22.859,50.894,21.428,53.923,20.851,57.562C20.273,61.068,20.716,63.887,22.182,66.018C23.646,68.148,25.91,69.213,28.973,69.213ZM28.973,69.213"/>
  <path stroke-miterlimit="4" stroke-linecap="butt" stroke-dasharray="none" fill-rule="nonzero" stroke-linejoin="miter" stroke-opacity="1" stroke="none" fill-opacity="1" version="1.0" stroke-width="1px" fill="#000000" d="M66.257,52.968L62.528,76.67L52.276,76.67L58.401,37.722L69.918,37.722L81.636,60.825L85.298,37.722L95.552,37.722L89.427,76.67L78.174,76.67ZM66.257,52.968"/>
</g>
  <g id="Light-S" transform="matrix(1.0,0.0,0.0,1.0,1104.806556282318,611.1565758135679)">  <path stroke-linejoin="miter" stroke-opacity="1" version="1.0" stroke-width="1px" fill="#000000" stroke-miterlimit="4" stroke-dasharray="none" fill-opacity="1" stroke="none" stroke-linecap="butt" fill-rule="nonzero" d="M28.973,69.213C34.654,69.213,37.827,67.239,38.494,63.289L48.946,63.289C47.703,67.461,45.184,70.801,41.39,73.309C37.594,75.817,33.034,77.07,27.708,77.07C20.916,77.07,16.011,74.829,12.994,70.346C10.597,66.75,9.798,62.489,10.597,57.562C11.396,52.28,13.593,47.754,17.19,43.981C21.715,39.32,27.352,36.989,34.099,36.989C39.425,36.989,43.586,38.244,46.582,40.752C49.579,43.26,51.033,46.599,50.945,50.771L40.492,50.771C40.802,48.818,40.291,47.343,38.959,46.345C37.627,45.346,35.675,44.846,33.101,44.846C30.082,44.846,27.43,46.056,25.145,48.476C22.859,50.894,21.428,53.923,20.851,57.562C20.273,61.068,20.716,63.887,22.182,66.018C23.646,68.148,25.91,69.213,28.973,69.213ZM28.973,69.213"/>
  <path stroke="none" stroke-linejoin="miter" stroke-width="1px" fill-rule="nonzero" stroke-miterlimit="4" stroke-linecap="butt" fill-opacity="1" stroke-opacity="1" fill="#000000" stroke-dasharray="none" version="1.0" d="M66.257,52.968L62.528,76.67L52.276,76.67L58.401,37.722L69.918,37.722L81.636,60.825L85.298,37.722L95.552,37.722L89.427,76.67L78.174,76.67ZM66.257,52.968"/>
</g>
  <g id="Thin-S" transform="matrix(1.0,0.0,0.0,1.0,808.0965562823179,611.1565758135679)">  <path stroke="none" stroke-opacity="1" version="1.0" stroke-miterlimit="4" stroke-linejoin="miter" fill-opacity="1" stroke-dasharray="none" fill-rule="nonzero" stroke-linecap="butt" stroke-width="1px" fill="#000000" d="M28.973,69.213C34.654,69.213,37.827,67.239,38.494,63.289L48.946,63.289C47.703,67.461,45.184,70.801,41.39,73.309C37.594,75.817,33.034,77.07,27.708,77.07C20.916,77.07,16.011,74.829,12.994,70.346C10.597,66.75,9.798,62.489,10.597,57.562C11.396,52.28,13.593,47.754,17.19,43.981C21.715,39.32,27.352,36.989,34.099,36.989C39.425,36.989,43.586,38.244,46.582,40.752C49.579,43.26,51.033,46.599,50.945,50.771L40.492,50.771C40.802,48.818,40.291,47.343,38.959,46.345C37.627,45.346,35.675,44.846,33.101,44.846C30.082,44.846,27.43,46.056,25.145,48.476C22.859,50.894,21.428,53.923,20.851,57.562C20.273,61.068,20.716,63.887,22.182,66.018C23.646,68.148,25.91,69.213,28.973,69.213ZM28.973,69.213"/>
  <path stroke-width="1px" fill-rule="nonzero" stroke-linecap="butt" stroke-dasharray="none" stroke-opacity="1" fill="#000000" stroke-linejoin="miter" stroke-miterlimit="4" version="1.0" stroke="none" fill-opacity="1" d="M66.257,52.968L62.528,76.67L52.276,76.67L58.401,37.722L69.918,37.722L81.636,60.825L85.298,37.722L95.552,37.722L89.427,76.67L78.174,76.67ZM66.257,52.968"/>
</g>
  <g id="Ultralight-S" transform="matrix(1.0,0.0,0.0,1.0,511.3865562823179,611.1565758135679)">  <path stroke-linejoin="miter" stroke-opacity="1" fill-rule="nonzero" stroke-miterlimit="4" stroke="none" stroke-width="1px" stroke-linecap="butt" fill="#000000" version="1.0" stroke-dasharray="none" fill-opacity="1" d="M28.973,69.213C34.654,69.213,37.827,67.239,38.494,63.289L48.946,63.289C47.703,67.461,45.184,70.801,41.39,73.309C37.594,75.817,33.034,77.07,27.708,77.07C20.916,77.07,16.011,74.829,12.994,70.346C10.597,66.75,9.798,62.489,10.597,57.562C11.396,52.28,13.593,47.754,17.19,43.981C21.715,39.32,27.352,36.989,34.099,36.989C39.425,36.989,43.586,38.244,46.582,40.752C49.579,43.26,51.033,46.599,50.945,50.771L40.492,50.771C40.802,48.818,40.291,47.343,38.959,46.345C37.627,45.346,35.675,44.846,33.101,44.846C30.082,44.846,27.43,46.056,25.145,48.476C22.859,50.894,21.428,53.923,20.851,57.562C20.273,61.068,20.716,63.887,22.182,66.018C23.646,68.148,25.91,69.213,28.973,69.213ZM28.973,69.213"/>
  <path stroke-miterlimit="4" stroke-opacity="1" stroke-dasharray="none" fill-rule="nonzero" stroke-linecap="butt" stroke="none" version="1.0" fill="#000000" fill-opacity="1" stroke-width="1px" stroke-linejoin="miter" d="M66.257,52.968L62.528,76.67L52.276,76.67L58.401,37.722L69.918,37.722L81.636,60.825L85.298,37.722L95.552,37.722L89.427,76.67L78.174,76.67ZM66.257,52.968"/>
</g>
 </g>
</svg>
