<?xml version="1.0" encoding="UTF-8"?>
<!--Generator: CustomSymbols by @serious_bret-->
<!DOCTYPE svg
PUBLIC "-//W3C//DTD SVG 1.1//EN"
       "http://www.w3.org/Graphics/SVG/1.1/DTD/svg11.dtd">
<svg version="1.1" xmlns="http://www.w3.org/2000/svg" xmlns:xlink="http://www.w3.org/1999/xlink" width="3300" height="2200">
 <g id="Notes">
  <rect height="2200" id="artboard" style="fill:white;opacity:1" width="3300" x="0" y="0"/>
  <line id="" style="fill:none;stroke:black;opacity:1;stroke-width:0.5;" x1="263" x2="3036" y1="292" y2="292"/>
  <text id="reftext1" style="stroke:none;fill:black;font-family:-apple-system,&quot;SF Pro Display&quot;,&quot;SF Pro Text&quot;,Helvetica,sans-serif;font-weight:bold;" transform="matrix(1 0 0 1 263 322)">Weight/Scale Variations</text>
  <text id="reftext2" style="stroke:none;fill:black;font-family:-apple-system,&quot;SF Pro Display&quot;,&quot;SF Pro Text&quot;,Helvetica,sans-serif;text-anchor:middle;" transform="matrix(1 0 0 1 559.711 322)">Ultralight</text>
  <text style="stroke:none;fill:black;font-family:-apple-system,&quot;SF Pro Display&quot;,&quot;SF Pro Text&quot;,Helvetica,sans-serif;text-anchor:middle;" transform="matrix(1 0 0 1 856.422 322)">Thin</text>
  <text style="stroke:none;fill:black;font-family:-apple-system,&quot;SF Pro Display&quot;,&quot;SF Pro Text&quot;,Helvetica,sans-serif;text-anchor:middle;" transform="matrix(1 0 0 1 1153.13 322)">Light</text>
  <text style="stroke:none;fill:black;font-family:-apple-system,&quot;SF Pro Display&quot;,&quot;SF Pro Text&quot;,Helvetica,sans-serif;text-anchor:middle;" transform="matrix(1 0 0 1 1449.84 322)">Regular</text>
  <text style="stroke:none;fill:black;font-family:-apple-system,&quot;SF Pro Display&quot;,&quot;SF Pro Text&quot;,Helvetica,sans-serif;text-anchor:middle;" transform="matrix(1 0 0 1 1746.56 322)">Medium</text>
  <text style="stroke:none;fill:black;font-family:-apple-system,&quot;SF Pro Display&quot;,&quot;SF Pro Text&quot;,Helvetica,sans-serif;text-anchor:middle;" transform="matrix(1 0 0 1 2043.27 322)">Semibold</text>
  <text style="stroke:none;fill:black;font-family:-apple-system,&quot;SF Pro Display&quot;,&quot;SF Pro Text&quot;,Helvetica,sans-serif;text-anchor:middle;" transform="matrix(1 0 0 1 2339.98 322)">Bold</text>
  <text style="stroke:none;fill:black;font-family:-apple-system,&quot;SF Pro Display&quot;,&quot;SF Pro Text&quot;,Helvetica,sans-serif;text-anchor:middle;" transform="matrix(1 0 0 1 2636.69 322)">Heavy</text>
  <text style="stroke:none;fill:black;font-family:-apple-system,&quot;SF Pro Display&quot;,&quot;SF Pro Text&quot;,Helvetica,sans-serif;text-anchor:middle;" transform="matrix(1 0 0 1 2933.4 322)">Black</text>
  <line id="" style="fill:none;stroke:black;opacity:1;stroke-width:0.5;" x1="263" x2="3036" y1="1903" y2="1903"/>
  <g id="" transform="matrix(1 0 0 1 263 1933)">
   <path d="M9.24805 0.830078C13.5547 0.830078 17.1387-2.74414 17.1387-7.05078C17.1387-11.3574 13.5449-14.9316 9.23828-14.9316C4.94141-14.9316 1.36719-11.3574 1.36719-7.05078C1.36719-2.74414 4.95117 0.830078 9.24805 0.830078ZM9.24805-0.654297C5.70312-0.654297 2.87109-3.49609 2.87109-7.05078C2.87109-10.6055 5.69336-13.4473 9.23828-13.4473C12.793-13.4473 15.6348-10.6055 15.6445-7.05078C15.6543-3.49609 12.8027-0.654297 9.24805-0.654297ZM6.39648-6.31836L8.50586-6.31836L8.50586-4.19922C8.50586-3.75977 8.79883-3.45703 9.22852-3.45703C9.67773-3.45703 9.9707-3.75977 9.9707-4.19922L9.9707-6.31836L12.0996-6.31836C12.5391-6.31836 12.8418-6.61133 12.8418-7.04102C12.8418-7.48047 12.5391-7.7832 12.0996-7.7832L9.9707-7.7832L9.9707-9.89258C9.9707-10.3418 9.67773-10.6445 9.22852-10.6445C8.79883-10.6445 8.50586-10.3418 8.50586-9.89258L8.50586-7.7832L6.39648-7.7832C5.94727-7.7832 5.64453-7.48047 5.64453-7.04102C5.64453-6.61133 5.94727-6.31836 6.39648-6.31836Z"/>
  </g>
  <g id="" transform="matrix(1 0 0 1 281.506 1933)">
   <path d="M11.709 2.91016C17.1582 2.91016 21.6699-1.61133 21.6699-7.05078C21.6699-12.5 17.1484-17.0117 11.6992-17.0117C6.25977-17.0117 1.74805-12.5 1.74805-7.05078C1.74805-1.61133 6.26953 2.91016 11.709 2.91016ZM11.709 1.25C7.09961 1.25 3.41797-2.44141 3.41797-7.05078C3.41797-11.6602 7.08984-15.3516 11.6992-15.3516C16.3086-15.3516 20-11.6602 20.0098-7.05078C20.0195-2.44141 16.3184 1.25 11.709 1.25ZM7.98828-6.23047L10.8789-6.23047L10.8789-3.32031C10.8789-2.83203 11.2109-2.5 11.6895-2.5C12.1777-2.5 12.5195-2.83203 12.5195-3.32031L12.5195-6.23047L15.4297-6.23047C15.918-6.23047 16.25-6.5625 16.25-7.04102C16.25-7.5293 15.918-7.87109 15.4297-7.87109L12.5195-7.87109L12.5195-10.7617C12.5195-11.2695 12.1777-11.6016 11.6895-11.6016C11.2109-11.6016 10.8789-11.2598 10.8789-10.7617L10.8789-7.87109L7.98828-7.87109C7.48047-7.87109 7.14844-7.5293 7.14844-7.04102C7.14844-6.5625 7.49023-6.23047 7.98828-6.23047Z"/>
  </g>
  <g id="" transform="matrix(1 0 0 1 304.924 1933)">
   <path d="M14.9707 5.66406C21.9336 5.66406 27.6953-0.0976562 27.6953-7.05078C27.6953-14.0137 21.9238-19.7754 14.9609-19.7754C8.00781-19.7754 2.25586-14.0137 2.25586-7.05078C2.25586-0.0976562 8.01758 5.66406 14.9707 5.66406ZM14.9707 3.84766C8.93555 3.84766 4.08203-1.01562 4.08203-7.05078C4.08203-13.0957 8.92578-17.9492 14.9609-17.9492C21.0059-17.9492 25.8594-13.0957 25.8691-7.05078C25.8789-1.01562 21.0156 3.84766 14.9707 3.84766ZM10.0586-6.14258L14.0625-6.14258L14.0625-2.12891C14.0625-1.5918 14.4336-1.2207 14.9512-1.2207C15.4883-1.2207 15.8594-1.5918 15.8594-2.12891L15.8594-6.14258L19.8828-6.14258C20.4102-6.14258 20.791-6.51367 20.791-7.03125C20.791-7.56836 20.4199-7.94922 19.8828-7.94922L15.8594-7.94922L15.8594-11.9531C15.8594-12.5098 15.4883-12.8809 14.9512-12.8809C14.4336-12.8809 14.0625-12.5 14.0625-11.9531L14.0625-7.94922L10.0586-7.94922C9.50195-7.94922 9.13086-7.56836 9.13086-7.03125C9.13086-6.51367 9.51172-6.14258 10.0586-6.14258Z"/>
  </g>
  <text style="stroke:none;fill:black;font-family:-apple-system,&quot;SF Pro Display&quot;,&quot;SF Pro Text&quot;,Helvetica,sans-serif;font-weight:bold;" transform="matrix(1 0 0 1 263 1953)">Design Variations</text>
  <text style="stroke:none;fill:black;font-family:-apple-system,&quot;SF Pro Display&quot;,&quot;SF Pro Text&quot;,Helvetica,sans-serif;" transform="matrix(1 0 0 1 263 1971)">Symbols are supported in up to nine weights and three scales.</text>
  <text style="stroke:none;fill:black;font-family:-apple-system,&quot;SF Pro Display&quot;,&quot;SF Pro Text&quot;,Helvetica,sans-serif;" transform="matrix(1 0 0 1 263 1989)">For optimal layout with text and other symbols, vertically align</text>
  <text style="stroke:none;fill:black;font-family:-apple-system,&quot;SF Pro Display&quot;,&quot;SF Pro Text&quot;,Helvetica,sans-serif;" transform="matrix(1 0 0 1 263 2007)">symbols with the adjacent text.</text>
  <line id="" style="fill:none;stroke:#00AEEF;stroke-width:0.5;opacity:1.0;" x1="776" x2="776" y1="1919" y2="1933"/>
  <g id="" transform="matrix(1 0 0 1 776 1933)">
   <path d="M3.31055 0.126953C3.82812 0.126953 4.08203-0.0683594 4.26758-0.605469L5.52734-4.0625L11.2891-4.0625L12.5488-0.605469C12.7344-0.0683594 12.9883 0.126953 13.4961 0.126953C14.0137 0.126953 14.3457-0.185547 14.3457-0.673828C14.3457-0.839844 14.3164-0.986328 14.2383-1.20117L9.6582-13.3887C9.43359-13.9941 9.0332-14.2871 8.4082-14.2871C7.80273-14.2871 7.39258-13.9941 7.17773-13.3984L2.59766-1.19141C2.51953-0.976562 2.49023-0.830078 2.49023-0.664062C2.49023-0.175781 2.80273 0.126953 3.31055 0.126953ZM6.00586-5.53711L8.37891-12.1094L8.42773-12.1094L10.8008-5.53711Z"/>
  </g>
  <line id="" style="fill:none;stroke:#00AEEF;stroke-width:0.5;opacity:1.0;" x1="792.836" x2="792.836" y1="1919" y2="1933"/>
  <text style="stroke:none;fill:black;font-family:-apple-system,&quot;SF Pro Display&quot;,&quot;SF Pro Text&quot;,Helvetica,sans-serif;font-weight:bold;" transform="matrix(1 0 0 1 776 1953)">Margins</text>
  <text style="stroke:none;fill:black;font-family:-apple-system,&quot;SF Pro Display&quot;,&quot;SF Pro Text&quot;,Helvetica,sans-serif;" transform="matrix(1 0 0 1 776 1971)">Leading and trailing margins on the left and right side of each symbol</text>
  <text style="stroke:none;fill:black;font-family:-apple-system,&quot;SF Pro Display&quot;,&quot;SF Pro Text&quot;,Helvetica,sans-serif;" transform="matrix(1 0 0 1 776 1989)">can be adjusted by modifying the x-location of the margin guidelines.</text>
  <text style="stroke:none;fill:black;font-family:-apple-system,&quot;SF Pro Display&quot;,&quot;SF Pro Text&quot;,Helvetica,sans-serif;" transform="matrix(1 0 0 1 776 2007)">Modifications are automatically applied proportionally to all</text>
  <text style="stroke:none;fill:black;font-family:-apple-system,&quot;SF Pro Display&quot;,&quot;SF Pro Text&quot;,Helvetica,sans-serif;" transform="matrix(1 0 0 1 776 2025)">scales and weights.</text>
  <g id="" transform="matrix(1 0 0 1 1289 1933)">
   <path d="M2.8418 1.86523L4.54102 3.57422C5.40039 4.44336 6.38672 4.38477 7.31445 3.35938L17.4902-7.85156C17.7539-7.76367 18.0273-7.7832 18.3398-7.8418L19.4043-8.03711L20.0684-7.36328L20.0293-6.80664C19.9902-6.30859 20.1172-5.92773 20.6055-5.44922L21.3672-4.70703C21.8457-4.22852 22.4609-4.19922 22.9297-4.66797L25.8398-7.58789C26.3086-8.05664 26.2891-8.65234 25.8105-9.13086L25.0391-9.89258C24.5605-10.3711 24.1895-10.5273 23.7109-10.4883L23.1348-10.4395L22.4902-11.0742L22.7344-12.1973C22.8613-12.7637 22.7051-13.2031 22.1191-13.7891L19.9219-15.9766C16.582-19.2969 12.1484-19.2188 9.25781-16.3281C8.83789-15.918 8.80859-15.3418 9.04297-14.9512C9.27734-14.5898 9.73633-14.3555 10.3809-14.5215C11.8457-14.8633 13.3691-14.9219 14.7949-13.9844L14.209-12.5293C14.0137-12.0508 13.9844-11.6504 14.1113-11.2891L3.04688-0.898438C2.06055 0.0195312 1.98242 0.996094 2.8418 1.86523ZM10.752-15.957C13.1836-17.7344 16.4746-17.4316 18.7012-15.2051L21.1328-12.793C21.3672-12.5586 21.4062-12.373 21.3379-12.0312L21.0156-10.5469L22.5195-9.0625L23.5059-9.12109C23.7598-9.13086 23.8379-9.11133 24.0332-8.91602L24.6094-8.33984L22.168-5.89844L21.5918-6.47461C21.3965-6.66992 21.3672-6.74805 21.377-7.01172L21.4453-7.98828L19.9512-9.47266L18.4277-9.21875C18.1055-9.15039 17.959-9.17969 17.7148-9.41406L15.7129-11.416C15.459-11.6504 15.4297-11.8164 15.5859-12.1875L16.4648-14.2773C14.9023-15.7324 12.8711-16.3574 10.8398-15.7617C10.6836-15.7227 10.625-15.8496 10.752-15.957ZM5.27344 2.30469L4.10156 1.14258C3.63281 0.683594 3.74023 0.341797 4.14062-0.0195312L14.9512-10.1953L16.416-8.71094L6.42578 2.27539C6.07422 2.67578 5.74219 2.77344 5.27344 2.30469Z"/>
  </g>
  <text style="stroke:none;fill:black;font-family:-apple-system,&quot;SF Pro Display&quot;,&quot;SF Pro Text&quot;,Helvetica,sans-serif;font-weight:bold;" transform="matrix(1 0 0 1 1289 1953)">Exporting</text>
  <text style="stroke:none;fill:black;font-family:-apple-system,&quot;SF Pro Display&quot;,&quot;SF Pro Text&quot;,Helvetica,sans-serif;" transform="matrix(1 0 0 1 1289 1971)">Symbols should be outlined when exporting to ensure the</text>
  <text style="stroke:none;fill:black;font-family:-apple-system,&quot;SF Pro Display&quot;,&quot;SF Pro Text&quot;,Helvetica,sans-serif;" transform="matrix(1 0 0 1 1289 1989)">design is preserved when submitting to Xcode.</text>
  <text id="template-version" style="stroke:none;fill:black;font-family:-apple-system,&quot;SF Pro Display&quot;,&quot;SF Pro Text&quot;,Helvetica,sans-serif;text-anchor:end;" transform="matrix(1 0 0 1 3036 1933)">Template v.2.0</text>
  <text style="stroke:none;fill:black;font-family:-apple-system,&quot;SF Pro Display&quot;,&quot;SF Pro Text&quot;,Helvetica,sans-serif;text-anchor:end;" transform="matrix(1 0 0 1 3036 1951)">Requires Xcode 12 or greater</text>
  <text style="stroke:none;fill:black;font-family:-apple-system,&quot;SF Pro Display&quot;,&quot;SF Pro Text&quot;,Helvetica,sans-serif;" transform="matrix(1 0 0 1 263 726)">Small</text>
  <text style="stroke:none;fill:black;font-family:-apple-system,&quot;SF Pro Display&quot;,&quot;SF Pro Text&quot;,Helvetica,sans-serif;" transform="matrix(1 0 0 1 263 1156)">Medium</text>
  <text style="stroke:none;fill:black;font-family:-apple-system,&quot;SF Pro Display&quot;,&quot;SF Pro Text&quot;,Helvetica,sans-serif;" transform="matrix(1 0 0 1 263 1586)">Large</text>
 </g>
 <g id="Guides">
  <g id="H-reference" style="fill:#27AAE1;stroke:none;" transform="matrix(1 0 0 1 339 696)">
   <path d="M0.976562 0L3.66211 0L12.9883-24.4629L45.752-24.4629L55.127 0L57.7637 0L30.6152-70.459L28.125-70.459ZM29.3457-67.1387L29.4434-67.1387L44.873-26.709L13.8672-26.709Z"/>
  </g>
  <line id="Baseline-S" style="fill:none;stroke:#27AAE1;opacity:1;stroke-width:0.5;" x1="263" x2="3036" y1="696" y2="696"/>
  <line id="Capline-S" style="fill:none;stroke:#27AAE1;opacity:1;stroke-width:0.5;" x1="263" x2="3036" y1="625.541" y2="625.541"/>
  <g id="H-reference" style="fill:#27AAE1;stroke:none;" transform="matrix(1 0 0 1 339 1126)">
   <path d="M0.976562 0L3.66211 0L12.9883-24.4629L45.752-24.4629L55.127 0L57.7637 0L30.6152-70.459L28.125-70.459ZM29.3457-67.1387L29.4434-67.1387L44.873-26.709L13.8672-26.709Z"/>
  </g>
  <line id="Baseline-M" style="fill:none;stroke:#27AAE1;opacity:1;stroke-width:0.5;" x1="263" x2="3036" y1="1126" y2="1126"/>
  <line id="Capline-M" style="fill:none;stroke:#27AAE1;opacity:1;stroke-width:0.5;" x1="263" x2="3036" y1="1055.54" y2="1055.54"/>
  <g id="H-reference" style="fill:#27AAE1;stroke:none;" transform="matrix(1 0 0 1 339 1556)">
   <path d="M0.976562 0L3.66211 0L12.9883-24.4629L45.752-24.4629L55.127 0L57.7637 0L30.6152-70.459L28.125-70.459ZM29.3457-67.1387L29.4434-67.1387L44.873-26.709L13.8672-26.709Z"/>
  </g>
  <line id="Baseline-L" style="fill:none;stroke:#27AAE1;opacity:1;stroke-width:0.5;" x1="263" x2="3036" y1="1556" y2="1556"/>
  <line id="Capline-L" style="fill:none;stroke:#27AAE1;opacity:1;stroke-width:0.5;" x1="263" x2="3036" y1="1485.54" y2="1485.54"/>
  <line id="left-margin" x1="1402.4519023587084" x2="1402.4519023587084" y1="1030.79" y2="1150.12" style="fill:none;stroke:#00AEEF;stroke-width:0.5;opacity:1.0;"/>
  <line id="right-margin" x1="1499.8080976412914" x2="1499.8080976412914" y1="1030.79" y2="1150.12" style="fill:none;stroke:#00AEEF;stroke-width:0.5;opacity:1.0;"/>
 </g>
 <g id="Symbols">
  <g id="Black-L" transform="matrix(1.0,0.0,0.0,1.0,2867.0132478908768,1459.8495439217493)">  <path fill="#000000" fill-opacity="1" stroke-width="1px" fill-rule="nonzero" stroke-dasharray="none" stroke="none" stroke-linecap="butt" stroke-opacity="1" stroke-miterlimit="4" stroke-linejoin="miter" data-name="Layer 4" d="M132.915,52.537C129.067,57.671,113.928,91.022,113.928,91.022C113.928,91.022,105.213,107.194,107.257,114.365C109.3,121.536,105.974,120.272,105.974,120.272C98.278,117.96,105.72,99.48,105.72,99.48L128.56,47.402C121.624,45.079,51.842,96.411,51.842,96.411C51.842,96.411,21.064,121.036,9.519,121.812C-2.025,122.587,7.461,108.466,7.461,108.466C6.432,104.621,48.512,44.08,56.462,33.549C64.412,23.019,75.064,5.337,75.064,5.337C53.378,6.877,11.309,30.984,11.309,30.984C7.461,34.832,3.613,35.354,3.613,35.354C-3.058,34.579,1.555,29.701,1.555,29.701C10.802,27.128,39.533,13.037,39.533,13.037C39.533,13.037,73.917,-2.878,80.062,0.459C86.208,3.797,77.489,11.75,77.489,11.75C75.181,13.29,30.289,75.376,20.005,92.562C9.722,109.749,10.273,115.909,10.273,115.909C19.509,115.652,42.091,98.976,42.091,98.976L96.741,60.884C96.741,60.884,125.741,41.988,130.886,41.771C136.032,41.555,136.767,47.406,132.915,52.537ZM132.915,52.537"/>
  <path fill-opacity="1" fill="#000000" stroke="none" stroke-dasharray="none" stroke-miterlimit="4" stroke-linejoin="miter" stroke-opacity="1" stroke-linecap="butt" stroke-width="1px" fill-rule="nonzero" d="M73.402,93.963L61.964,93.963L46.741,59.52L38.46,93.963L26.136,93.963L38.1,44.219L53.073,44.219L66.107,73.013L72.998,44.216L85.362,44.216ZM73.402,93.963"/>
  <path fill="#000000" stroke-linejoin="miter" stroke-dasharray="none" stroke="none" stroke-miterlimit="4" stroke-width="1px" fill-rule="nonzero" stroke-opacity="1" fill-opacity="1" stroke-linecap="butt" d="M116.648,43.668L101.777,63.343L93.489,63.343L103.688,43.668ZM116.648,43.668"/>
</g>
  <g id="Heavy-L" transform="matrix(1.0,0.0,0.0,1.0,2570.3032478908767,1459.8495439217493)">  <path stroke="none" fill-rule="nonzero" fill-opacity="1" stroke-linejoin="miter" stroke-miterlimit="4" data-name="Layer 4" stroke-dasharray="none" stroke-opacity="1" stroke-width="1px" fill="#000000" stroke-linecap="butt" d="M132.915,52.537C129.067,57.671,113.928,91.022,113.928,91.022C113.928,91.022,105.213,107.194,107.257,114.365C109.3,121.536,105.974,120.272,105.974,120.272C98.278,117.96,105.72,99.48,105.72,99.48L128.56,47.402C121.624,45.079,51.842,96.411,51.842,96.411C51.842,96.411,21.064,121.036,9.519,121.812C-2.025,122.587,7.461,108.466,7.461,108.466C6.432,104.621,48.512,44.08,56.462,33.549C64.412,23.019,75.064,5.337,75.064,5.337C53.378,6.877,11.309,30.984,11.309,30.984C7.461,34.832,3.613,35.354,3.613,35.354C-3.058,34.579,1.555,29.701,1.555,29.701C10.802,27.128,39.533,13.037,39.533,13.037C39.533,13.037,73.917,-2.878,80.062,0.459C86.208,3.797,77.489,11.75,77.489,11.75C75.181,13.29,30.289,75.376,20.005,92.562C9.722,109.749,10.273,115.909,10.273,115.909C19.509,115.652,42.091,98.976,42.091,98.976L96.741,60.884C96.741,60.884,125.741,41.988,130.886,41.771C136.032,41.555,136.767,47.406,132.915,52.537ZM132.915,52.537"/>
  <path fill-opacity="1" stroke-opacity="1" stroke-linejoin="miter" stroke-dasharray="none" stroke-width="1px" fill="#000000" stroke="none" fill-rule="nonzero" stroke-miterlimit="4" stroke-linecap="butt" d="M73.402,93.963L61.964,93.963L46.741,59.52L38.46,93.963L26.136,93.963L38.1,44.219L53.073,44.219L66.107,73.013L72.998,44.216L85.362,44.216ZM73.402,93.963"/>
  <path stroke-linecap="butt" stroke-miterlimit="4" fill="#000000" stroke-opacity="1" stroke-width="1px" fill-opacity="1" stroke-linejoin="miter" stroke="none" fill-rule="nonzero" stroke-dasharray="none" d="M116.648,43.668L101.777,63.343L93.489,63.343L103.688,43.668ZM116.648,43.668"/>
</g>
  <g id="Bold-L" transform="matrix(1.0,0.0,0.0,1.0,2273.5932478908767,1459.8495439217493)">  <path stroke-linejoin="miter" stroke-linecap="butt" stroke="none" data-name="Layer 4" fill-rule="nonzero" stroke-width="1px" stroke-miterlimit="4" stroke-dasharray="none" fill-opacity="1" fill="#000000" stroke-opacity="1" d="M132.915,52.537C129.067,57.671,113.928,91.022,113.928,91.022C113.928,91.022,105.213,107.194,107.257,114.365C109.3,121.536,105.974,120.272,105.974,120.272C98.278,117.96,105.72,99.48,105.72,99.48L128.56,47.402C121.624,45.079,51.842,96.411,51.842,96.411C51.842,96.411,21.064,121.036,9.519,121.812C-2.025,122.587,7.461,108.466,7.461,108.466C6.432,104.621,48.512,44.08,56.462,33.549C64.412,23.019,75.064,5.337,75.064,5.337C53.378,6.877,11.309,30.984,11.309,30.984C7.461,34.832,3.613,35.354,3.613,35.354C-3.058,34.579,1.555,29.701,1.555,29.701C10.802,27.128,39.533,13.037,39.533,13.037C39.533,13.037,73.917,-2.878,80.062,0.459C86.208,3.797,77.489,11.75,77.489,11.75C75.181,13.29,30.289,75.376,20.005,92.562C9.722,109.749,10.273,115.909,10.273,115.909C19.509,115.652,42.091,98.976,42.091,98.976L96.741,60.884C96.741,60.884,125.741,41.988,130.886,41.771C136.032,41.555,136.767,47.406,132.915,52.537ZM132.915,52.537"/>
  <path stroke-opacity="1" stroke-linecap="butt" stroke-width="1px" fill-opacity="1" stroke-dasharray="none" stroke="none" fill-rule="nonzero" fill="#000000" stroke-miterlimit="4" stroke-linejoin="miter" d="M73.402,93.963L61.964,93.963L46.741,59.52L38.46,93.963L26.136,93.963L38.1,44.219L53.073,44.219L66.107,73.013L72.998,44.216L85.362,44.216ZM73.402,93.963"/>
  <path stroke-dasharray="none" fill="#000000" stroke="none" stroke-linejoin="miter" stroke-width="1px" stroke-opacity="1" stroke-linecap="butt" fill-opacity="1" fill-rule="nonzero" stroke-miterlimit="4" d="M116.648,43.668L101.777,63.343L93.489,63.343L103.688,43.668ZM116.648,43.668"/>
</g>
  <g id="Semibold-L" transform="matrix(1.0,0.0,0.0,1.0,1976.883247890877,1459.8495439217493)">  <path stroke-miterlimit="4" fill-opacity="1" fill-rule="nonzero" stroke-linejoin="miter" stroke-linecap="butt" data-name="Layer 4" stroke-opacity="1" stroke-dasharray="none" stroke="none" stroke-width="1px" fill="#000000" d="M132.915,52.537C129.067,57.671,113.928,91.022,113.928,91.022C113.928,91.022,105.213,107.194,107.257,114.365C109.3,121.536,105.974,120.272,105.974,120.272C98.278,117.96,105.72,99.48,105.72,99.48L128.56,47.402C121.624,45.079,51.842,96.411,51.842,96.411C51.842,96.411,21.064,121.036,9.519,121.812C-2.025,122.587,7.461,108.466,7.461,108.466C6.432,104.621,48.512,44.08,56.462,33.549C64.412,23.019,75.064,5.337,75.064,5.337C53.378,6.877,11.309,30.984,11.309,30.984C7.461,34.832,3.613,35.354,3.613,35.354C-3.058,34.579,1.555,29.701,1.555,29.701C10.802,27.128,39.533,13.037,39.533,13.037C39.533,13.037,73.917,-2.878,80.062,0.459C86.208,3.797,77.489,11.75,77.489,11.75C75.181,13.29,30.289,75.376,20.005,92.562C9.722,109.749,10.273,115.909,10.273,115.909C19.509,115.652,42.091,98.976,42.091,98.976L96.741,60.884C96.741,60.884,125.741,41.988,130.886,41.771C136.032,41.555,136.767,47.406,132.915,52.537ZM132.915,52.537"/>
  <path fill-rule="nonzero" stroke="none" stroke-linecap="butt" fill="#000000" stroke-opacity="1" stroke-width="1px" stroke-linejoin="miter" stroke-miterlimit="4" stroke-dasharray="none" fill-opacity="1" d="M73.402,93.963L61.964,93.963L46.741,59.52L38.46,93.963L26.136,93.963L38.1,44.219L53.073,44.219L66.107,73.013L72.998,44.216L85.362,44.216ZM73.402,93.963"/>
  <path stroke-linejoin="miter" stroke="none" stroke-opacity="1" fill="#000000" stroke-linecap="butt" fill-rule="nonzero" stroke-miterlimit="4" stroke-width="1px" fill-opacity="1" stroke-dasharray="none" d="M116.648,43.668L101.777,63.343L93.489,63.343L103.688,43.668ZM116.648,43.668"/>
</g>
  <g id="Medium-L" transform="matrix(1.0,0.0,0.0,1.0,1680.173247890877,1459.8495439217493)">  <path stroke-linejoin="miter" stroke-linecap="butt" stroke-dasharray="none" stroke="none" stroke-width="1px" fill="#000000" stroke-miterlimit="4" data-name="Layer 4" fill-rule="nonzero" stroke-opacity="1" fill-opacity="1" d="M132.915,52.537C129.067,57.671,113.928,91.022,113.928,91.022C113.928,91.022,105.213,107.194,107.257,114.365C109.3,121.536,105.974,120.272,105.974,120.272C98.278,117.96,105.72,99.48,105.72,99.48L128.56,47.402C121.624,45.079,51.842,96.411,51.842,96.411C51.842,96.411,21.064,121.036,9.519,121.812C-2.025,122.587,7.461,108.466,7.461,108.466C6.432,104.621,48.512,44.08,56.462,33.549C64.412,23.019,75.064,5.337,75.064,5.337C53.378,6.877,11.309,30.984,11.309,30.984C7.461,34.832,3.613,35.354,3.613,35.354C-3.058,34.579,1.555,29.701,1.555,29.701C10.802,27.128,39.533,13.037,39.533,13.037C39.533,13.037,73.917,-2.878,80.062,0.459C86.208,3.797,77.489,11.75,77.489,11.75C75.181,13.29,30.289,75.376,20.005,92.562C9.722,109.749,10.273,115.909,10.273,115.909C19.509,115.652,42.091,98.976,42.091,98.976L96.741,60.884C96.741,60.884,125.741,41.988,130.886,41.771C136.032,41.555,136.767,47.406,132.915,52.537ZM132.915,52.537"/>
  <path stroke-width="1px" stroke-opacity="1" fill-rule="nonzero" stroke-dasharray="none" stroke-linejoin="miter" stroke="none" fill-opacity="1" stroke-linecap="butt" stroke-miterlimit="4" fill="#000000" d="M73.402,93.963L61.964,93.963L46.741,59.52L38.46,93.963L26.136,93.963L38.1,44.219L53.073,44.219L66.107,73.013L72.998,44.216L85.362,44.216ZM73.402,93.963"/>
  <path stroke-opacity="1" stroke="none" stroke-miterlimit="4" fill="#000000" fill-opacity="1" stroke-width="1px" stroke-linecap="butt" fill-rule="nonzero" stroke-linejoin="miter" stroke-dasharray="none" d="M116.648,43.668L101.777,63.343L93.489,63.343L103.688,43.668ZM116.648,43.668"/>
</g>
  <g id="Regular-L" transform="matrix(1.0,0.0,0.0,1.0,1383.463247890877,1459.8495439217493)">  <path fill="#000000" stroke-width="1px" data-name="Layer 4" fill-opacity="1" fill-rule="nonzero" stroke="none" stroke-opacity="1" stroke-linecap="butt" stroke-miterlimit="4" stroke-linejoin="miter" stroke-dasharray="none" d="M132.915,52.537C129.067,57.671,113.928,91.022,113.928,91.022C113.928,91.022,105.213,107.194,107.257,114.365C109.3,121.536,105.974,120.272,105.974,120.272C98.278,117.96,105.72,99.48,105.72,99.48L128.56,47.402C121.624,45.079,51.842,96.411,51.842,96.411C51.842,96.411,21.064,121.036,9.519,121.812C-2.025,122.587,7.461,108.466,7.461,108.466C6.432,104.621,48.512,44.08,56.462,33.549C64.412,23.019,75.064,5.337,75.064,5.337C53.378,6.877,11.309,30.984,11.309,30.984C7.461,34.832,3.613,35.354,3.613,35.354C-3.058,34.579,1.555,29.701,1.555,29.701C10.802,27.128,39.533,13.037,39.533,13.037C39.533,13.037,73.917,-2.878,80.062,0.459C86.208,3.797,77.489,11.75,77.489,11.75C75.181,13.29,30.289,75.376,20.005,92.562C9.722,109.749,10.273,115.909,10.273,115.909C19.509,115.652,42.091,98.976,42.091,98.976L96.741,60.884C96.741,60.884,125.741,41.988,130.886,41.771C136.032,41.555,136.767,47.406,132.915,52.537ZM132.915,52.537"/>
  <path stroke-dasharray="none" stroke-width="1px" fill-rule="nonzero" stroke-opacity="1" stroke-miterlimit="4" stroke="none" stroke-linejoin="miter" stroke-linecap="butt" fill-opacity="1" fill="#000000" d="M73.402,93.963L61.964,93.963L46.741,59.52L38.46,93.963L26.136,93.963L38.1,44.219L53.073,44.219L66.107,73.013L72.998,44.216L85.362,44.216ZM73.402,93.963"/>
  <path stroke-miterlimit="4" stroke="none" stroke-width="1px" stroke-opacity="1" stroke-linejoin="miter" stroke-dasharray="none" fill-rule="nonzero" fill-opacity="1" stroke-linecap="butt" fill="#000000" d="M116.648,43.668L101.777,63.343L93.489,63.343L103.688,43.668ZM116.648,43.668"/>
</g>
  <g id="Light-L" transform="matrix(1.0,0.0,0.0,1.0,1086.7532478908772,1459.8495439217493)">  <path stroke-miterlimit="4" data-name="Layer 4" stroke-linejoin="miter" stroke-linecap="butt" stroke-opacity="1" stroke="none" fill-opacity="1" stroke-dasharray="none" fill="#000000" stroke-width="1px" fill-rule="nonzero" d="M132.915,52.537C129.067,57.671,113.928,91.022,113.928,91.022C113.928,91.022,105.213,107.194,107.257,114.365C109.3,121.536,105.974,120.272,105.974,120.272C98.278,117.96,105.72,99.48,105.72,99.48L128.56,47.402C121.624,45.079,51.842,96.411,51.842,96.411C51.842,96.411,21.064,121.036,9.519,121.812C-2.025,122.587,7.461,108.466,7.461,108.466C6.432,104.621,48.512,44.08,56.462,33.549C64.412,23.019,75.064,5.337,75.064,5.337C53.378,6.877,11.309,30.984,11.309,30.984C7.461,34.832,3.613,35.354,3.613,35.354C-3.058,34.579,1.555,29.701,1.555,29.701C10.802,27.128,39.533,13.037,39.533,13.037C39.533,13.037,73.917,-2.878,80.062,0.459C86.208,3.797,77.489,11.75,77.489,11.75C75.181,13.29,30.289,75.376,20.005,92.562C9.722,109.749,10.273,115.909,10.273,115.909C19.509,115.652,42.091,98.976,42.091,98.976L96.741,60.884C96.741,60.884,125.741,41.988,130.886,41.771C136.032,41.555,136.767,47.406,132.915,52.537ZM132.915,52.537"/>
  <path stroke="none" fill-opacity="1" stroke-opacity="1" stroke-linecap="butt" fill="#000000" stroke-dasharray="none" stroke-width="1px" stroke-miterlimit="4" fill-rule="nonzero" stroke-linejoin="miter" d="M73.402,93.963L61.964,93.963L46.741,59.52L38.46,93.963L26.136,93.963L38.1,44.219L53.073,44.219L66.107,73.013L72.998,44.216L85.362,44.216ZM73.402,93.963"/>
  <path stroke-opacity="1" fill="#000000" stroke-width="1px" stroke-linecap="butt" fill-rule="nonzero" fill-opacity="1" stroke="none" stroke-linejoin="miter" stroke-dasharray="none" stroke-miterlimit="4" d="M116.648,43.668L101.777,63.343L93.489,63.343L103.688,43.668ZM116.648,43.668"/>
</g>
  <g id="Thin-L" transform="matrix(1.0,0.0,0.0,1.0,790.0432478908772,1459.8495439217493)">  <path stroke-width="1px" stroke-dasharray="none" data-name="Layer 4" fill="#000000" fill-rule="nonzero" fill-opacity="1" stroke-opacity="1" stroke="none" stroke-linejoin="miter" stroke-linecap="butt" stroke-miterlimit="4" d="M132.915,52.537C129.067,57.671,113.928,91.022,113.928,91.022C113.928,91.022,105.213,107.194,107.257,114.365C109.3,121.536,105.974,120.272,105.974,120.272C98.278,117.96,105.72,99.48,105.72,99.48L128.56,47.402C121.624,45.079,51.842,96.411,51.842,96.411C51.842,96.411,21.064,121.036,9.519,121.812C-2.025,122.587,7.461,108.466,7.461,108.466C6.432,104.621,48.512,44.08,56.462,33.549C64.412,23.019,75.064,5.337,75.064,5.337C53.378,6.877,11.309,30.984,11.309,30.984C7.461,34.832,3.613,35.354,3.613,35.354C-3.058,34.579,1.555,29.701,1.555,29.701C10.802,27.128,39.533,13.037,39.533,13.037C39.533,13.037,73.917,-2.878,80.062,0.459C86.208,3.797,77.489,11.75,77.489,11.75C75.181,13.29,30.289,75.376,20.005,92.562C9.722,109.749,10.273,115.909,10.273,115.909C19.509,115.652,42.091,98.976,42.091,98.976L96.741,60.884C96.741,60.884,125.741,41.988,130.886,41.771C136.032,41.555,136.767,47.406,132.915,52.537ZM132.915,52.537"/>
  <path fill-opacity="1" stroke-miterlimit="4" stroke-linejoin="miter" stroke-dasharray="none" fill-rule="nonzero" stroke-linecap="butt" stroke="none" stroke-width="1px" stroke-opacity="1" fill="#000000" d="M73.402,93.963L61.964,93.963L46.741,59.52L38.46,93.963L26.136,93.963L38.1,44.219L53.073,44.219L66.107,73.013L72.998,44.216L85.362,44.216ZM73.402,93.963"/>
  <path stroke-width="1px" fill-opacity="1" stroke="none" fill="#000000" fill-rule="nonzero" stroke-linejoin="miter" stroke-linecap="butt" stroke-opacity="1" stroke-dasharray="none" stroke-miterlimit="4" d="M116.648,43.668L101.777,63.343L93.489,63.343L103.688,43.668ZM116.648,43.668"/>
</g>
  <g id="Ultralight-L" transform="matrix(1.0,0.0,0.0,1.0,493.3332478908771,1459.8495439217493)">  <path stroke-miterlimit="4" stroke-linejoin="miter" stroke-dasharray="none" stroke="none" stroke-linecap="butt" stroke-width="1px" data-name="Layer 4" fill-opacity="1" stroke-opacity="1" fill="#000000" fill-rule="nonzero" d="M132.915,52.537C129.067,57.671,113.928,91.022,113.928,91.022C113.928,91.022,105.213,107.194,107.257,114.365C109.3,121.536,105.974,120.272,105.974,120.272C98.278,117.96,105.72,99.48,105.72,99.48L128.56,47.402C121.624,45.079,51.842,96.411,51.842,96.411C51.842,96.411,21.064,121.036,9.519,121.812C-2.025,122.587,7.461,108.466,7.461,108.466C6.432,104.621,48.512,44.08,56.462,33.549C64.412,23.019,75.064,5.337,75.064,5.337C53.378,6.877,11.309,30.984,11.309,30.984C7.461,34.832,3.613,35.354,3.613,35.354C-3.058,34.579,1.555,29.701,1.555,29.701C10.802,27.128,39.533,13.037,39.533,13.037C39.533,13.037,73.917,-2.878,80.062,0.459C86.208,3.797,77.489,11.75,77.489,11.75C75.181,13.29,30.289,75.376,20.005,92.562C9.722,109.749,10.273,115.909,10.273,115.909C19.509,115.652,42.091,98.976,42.091,98.976L96.741,60.884C96.741,60.884,125.741,41.988,130.886,41.771C136.032,41.555,136.767,47.406,132.915,52.537ZM132.915,52.537"/>
  <path stroke-linejoin="miter" fill="#000000" fill-opacity="1" stroke-dasharray="none" stroke-width="1px" stroke-miterlimit="4" fill-rule="nonzero" stroke="none" stroke-opacity="1" stroke-linecap="butt" d="M73.402,93.963L61.964,93.963L46.741,59.52L38.46,93.963L26.136,93.963L38.1,44.219L53.073,44.219L66.107,73.013L72.998,44.216L85.362,44.216ZM73.402,93.963"/>
  <path stroke-miterlimit="4" stroke-linecap="butt" stroke-opacity="1" stroke-width="1px" stroke-dasharray="none" fill-rule="nonzero" stroke-linejoin="miter" fill-opacity="1" stroke="none" fill="#000000" d="M116.648,43.668L101.777,63.343L93.489,63.343L103.688,43.668ZM116.648,43.668"/>
</g>
  <g id="Black-M" transform="matrix(1.0,0.0,0.0,1.0,2882.2251534037805,1043.5448446401642)">  <path fill="#000000" fill-opacity="1" stroke-width="1px" fill-rule="nonzero" stroke-dasharray="none" stroke="none" stroke-linecap="butt" stroke-opacity="1" stroke-miterlimit="4" stroke-linejoin="miter" data-name="Layer 4" d="M103.035,40.726C100.052,44.706,88.316,70.56,88.316,70.56C88.316,70.56,81.561,83.096,83.145,88.655C84.729,94.214,82.15,93.234,82.15,93.234C76.184,91.442,81.954,77.116,81.954,77.116L99.659,36.746C94.282,34.945,40.188,74.737,40.188,74.737C40.188,74.737,16.329,93.826,7.379,94.428C-1.57,95.029,5.784,84.082,5.784,84.082C4.986,81.102,37.606,34.17,43.769,26.007C49.932,17.844,58.189,4.137,58.189,4.137C41.379,5.331,8.767,24.019,8.767,24.019C5.784,27.002,2.801,27.406,2.801,27.406C-2.371,26.805,1.205,23.024,1.205,23.024C8.374,21.03,30.646,10.106,30.646,10.106C30.646,10.106,57.3,-2.231,62.064,0.356C66.828,2.943,60.069,9.109,60.069,9.109C58.28,10.303,23.48,58.431,15.508,71.754C7.536,85.077,7.963,89.852,7.963,89.852C15.123,89.652,32.629,76.726,32.629,76.726L74.993,47.197C74.993,47.197,97.473,32.549,101.462,32.381C105.451,32.213,106.021,36.749,103.035,40.726ZM103.035,40.726"/>
  <path fill-opacity="1" fill="#000000" stroke="none" stroke-dasharray="none" stroke-miterlimit="4" stroke-linejoin="miter" stroke-opacity="1" stroke-linecap="butt" stroke-width="1px" fill-rule="nonzero" d="M56.901,72.839L48.034,72.839L36.233,46.14L29.814,72.839L20.261,72.839L29.535,34.278L41.142,34.278L51.245,56.599L56.588,34.276L66.172,34.276ZM56.901,72.839"/>
  <path fill="#000000" stroke-linejoin="miter" stroke-dasharray="none" stroke="none" stroke-miterlimit="4" stroke-width="1px" fill-rule="nonzero" stroke-opacity="1" fill-opacity="1" stroke-linecap="butt" d="M90.424,33.851L78.897,49.103L72.472,49.103L80.378,33.851ZM90.424,33.851"/>
</g>
  <g id="Heavy-M" transform="matrix(1.0,0.0,0.0,1.0,2585.5151534037805,1043.5448446401642)">  <path stroke="none" fill-rule="nonzero" fill-opacity="1" stroke-linejoin="miter" stroke-miterlimit="4" data-name="Layer 4" stroke-dasharray="none" stroke-opacity="1" stroke-width="1px" fill="#000000" stroke-linecap="butt" d="M103.035,40.726C100.052,44.706,88.316,70.56,88.316,70.56C88.316,70.56,81.561,83.096,83.145,88.655C84.729,94.214,82.15,93.234,82.15,93.234C76.184,91.442,81.954,77.116,81.954,77.116L99.659,36.746C94.282,34.945,40.188,74.737,40.188,74.737C40.188,74.737,16.329,93.826,7.379,94.428C-1.57,95.029,5.784,84.082,5.784,84.082C4.986,81.102,37.606,34.17,43.769,26.007C49.932,17.844,58.189,4.137,58.189,4.137C41.379,5.331,8.767,24.019,8.767,24.019C5.784,27.002,2.801,27.406,2.801,27.406C-2.371,26.805,1.205,23.024,1.205,23.024C8.374,21.03,30.646,10.106,30.646,10.106C30.646,10.106,57.3,-2.231,62.064,0.356C66.828,2.943,60.069,9.109,60.069,9.109C58.28,10.303,23.48,58.431,15.508,71.754C7.536,85.077,7.963,89.852,7.963,89.852C15.123,89.652,32.629,76.726,32.629,76.726L74.993,47.197C74.993,47.197,97.473,32.549,101.462,32.381C105.451,32.213,106.021,36.749,103.035,40.726ZM103.035,40.726"/>
  <path fill-opacity="1" stroke-opacity="1" stroke-linejoin="miter" stroke-dasharray="none" stroke-width="1px" fill="#000000" stroke="none" fill-rule="nonzero" stroke-miterlimit="4" stroke-linecap="butt" d="M56.901,72.839L48.034,72.839L36.233,46.14L29.814,72.839L20.261,72.839L29.535,34.278L41.142,34.278L51.245,56.599L56.588,34.276L66.172,34.276ZM56.901,72.839"/>
  <path stroke-linecap="butt" stroke-miterlimit="4" fill="#000000" stroke-opacity="1" stroke-width="1px" fill-opacity="1" stroke-linejoin="miter" stroke="none" fill-rule="nonzero" stroke-dasharray="none" d="M90.424,33.851L78.897,49.103L72.472,49.103L80.378,33.851ZM90.424,33.851"/>
</g>
  <g id="Bold-M" transform="matrix(1.0,0.0,0.0,1.0,2288.8051534037804,1043.5448446401642)">  <path stroke-linejoin="miter" stroke-linecap="butt" stroke="none" data-name="Layer 4" fill-rule="nonzero" stroke-width="1px" stroke-miterlimit="4" stroke-dasharray="none" fill-opacity="1" fill="#000000" stroke-opacity="1" d="M103.035,40.726C100.052,44.706,88.316,70.56,88.316,70.56C88.316,70.56,81.561,83.096,83.145,88.655C84.729,94.214,82.15,93.234,82.15,93.234C76.184,91.442,81.954,77.116,81.954,77.116L99.659,36.746C94.282,34.945,40.188,74.737,40.188,74.737C40.188,74.737,16.329,93.826,7.379,94.428C-1.57,95.029,5.784,84.082,5.784,84.082C4.986,81.102,37.606,34.17,43.769,26.007C49.932,17.844,58.189,4.137,58.189,4.137C41.379,5.331,8.767,24.019,8.767,24.019C5.784,27.002,2.801,27.406,2.801,27.406C-2.371,26.805,1.205,23.024,1.205,23.024C8.374,21.03,30.646,10.106,30.646,10.106C30.646,10.106,57.3,-2.231,62.064,0.356C66.828,2.943,60.069,9.109,60.069,9.109C58.28,10.303,23.48,58.431,15.508,71.754C7.536,85.077,7.963,89.852,7.963,89.852C15.123,89.652,32.629,76.726,32.629,76.726L74.993,47.197C74.993,47.197,97.473,32.549,101.462,32.381C105.451,32.213,106.021,36.749,103.035,40.726ZM103.035,40.726"/>
  <path stroke-opacity="1" stroke-linecap="butt" stroke-width="1px" fill-opacity="1" stroke-dasharray="none" stroke="none" fill-rule="nonzero" fill="#000000" stroke-miterlimit="4" stroke-linejoin="miter" d="M56.901,72.839L48.034,72.839L36.233,46.14L29.814,72.839L20.261,72.839L29.535,34.278L41.142,34.278L51.245,56.599L56.588,34.276L66.172,34.276ZM56.901,72.839"/>
  <path stroke-dasharray="none" fill="#000000" stroke="none" stroke-linejoin="miter" stroke-width="1px" stroke-opacity="1" stroke-linecap="butt" fill-opacity="1" fill-rule="nonzero" stroke-miterlimit="4" d="M90.424,33.851L78.897,49.103L72.472,49.103L80.378,33.851ZM90.424,33.851"/>
</g>
  <g id="Semibold-M" transform="matrix(1.0,0.0,0.0,1.0,1992.0951534037806,1043.5448446401642)">  <path stroke-miterlimit="4" fill-opacity="1" fill-rule="nonzero" stroke-linejoin="miter" stroke-linecap="butt" data-name="Layer 4" stroke-opacity="1" stroke-dasharray="none" stroke="none" stroke-width="1px" fill="#000000" d="M103.035,40.726C100.052,44.706,88.316,70.56,88.316,70.56C88.316,70.56,81.561,83.096,83.145,88.655C84.729,94.214,82.15,93.234,82.15,93.234C76.184,91.442,81.954,77.116,81.954,77.116L99.659,36.746C94.282,34.945,40.188,74.737,40.188,74.737C40.188,74.737,16.329,93.826,7.379,94.428C-1.57,95.029,5.784,84.082,5.784,84.082C4.986,81.102,37.606,34.17,43.769,26.007C49.932,17.844,58.189,4.137,58.189,4.137C41.379,5.331,8.767,24.019,8.767,24.019C5.784,27.002,2.801,27.406,2.801,27.406C-2.371,26.805,1.205,23.024,1.205,23.024C8.374,21.03,30.646,10.106,30.646,10.106C30.646,10.106,57.3,-2.231,62.064,0.356C66.828,2.943,60.069,9.109,60.069,9.109C58.28,10.303,23.48,58.431,15.508,71.754C7.536,85.077,7.963,89.852,7.963,89.852C15.123,89.652,32.629,76.726,32.629,76.726L74.993,47.197C74.993,47.197,97.473,32.549,101.462,32.381C105.451,32.213,106.021,36.749,103.035,40.726ZM103.035,40.726"/>
  <path fill-rule="nonzero" stroke="none" stroke-linecap="butt" fill="#000000" stroke-opacity="1" stroke-width="1px" stroke-linejoin="miter" stroke-miterlimit="4" stroke-dasharray="none" fill-opacity="1" d="M56.901,72.839L48.034,72.839L36.233,46.14L29.814,72.839L20.261,72.839L29.535,34.278L41.142,34.278L51.245,56.599L56.588,34.276L66.172,34.276ZM56.901,72.839"/>
  <path stroke-linejoin="miter" stroke="none" stroke-opacity="1" fill="#000000" stroke-linecap="butt" fill-rule="nonzero" stroke-miterlimit="4" stroke-width="1px" fill-opacity="1" stroke-dasharray="none" d="M90.424,33.851L78.897,49.103L72.472,49.103L80.378,33.851ZM90.424,33.851"/>
</g>
  <g id="Medium-M" transform="matrix(1.0,0.0,0.0,1.0,1695.3851534037806,1043.5448446401642)">  <path stroke-linejoin="miter" stroke-linecap="butt" stroke-dasharray="none" stroke="none" stroke-width="1px" fill="#000000" stroke-miterlimit="4" data-name="Layer 4" fill-rule="nonzero" stroke-opacity="1" fill-opacity="1" d="M103.035,40.726C100.052,44.706,88.316,70.56,88.316,70.56C88.316,70.56,81.561,83.096,83.145,88.655C84.729,94.214,82.15,93.234,82.15,93.234C76.184,91.442,81.954,77.116,81.954,77.116L99.659,36.746C94.282,34.945,40.188,74.737,40.188,74.737C40.188,74.737,16.329,93.826,7.379,94.428C-1.57,95.029,5.784,84.082,5.784,84.082C4.986,81.102,37.606,34.17,43.769,26.007C49.932,17.844,58.189,4.137,58.189,4.137C41.379,5.331,8.767,24.019,8.767,24.019C5.784,27.002,2.801,27.406,2.801,27.406C-2.371,26.805,1.205,23.024,1.205,23.024C8.374,21.03,30.646,10.106,30.646,10.106C30.646,10.106,57.3,-2.231,62.064,0.356C66.828,2.943,60.069,9.109,60.069,9.109C58.28,10.303,23.48,58.431,15.508,71.754C7.536,85.077,7.963,89.852,7.963,89.852C15.123,89.652,32.629,76.726,32.629,76.726L74.993,47.197C74.993,47.197,97.473,32.549,101.462,32.381C105.451,32.213,106.021,36.749,103.035,40.726ZM103.035,40.726"/>
  <path stroke-width="1px" stroke-opacity="1" fill-rule="nonzero" stroke-dasharray="none" stroke-linejoin="miter" stroke="none" fill-opacity="1" stroke-linecap="butt" stroke-miterlimit="4" fill="#000000" d="M56.901,72.839L48.034,72.839L36.233,46.14L29.814,72.839L20.261,72.839L29.535,34.278L41.142,34.278L51.245,56.599L56.588,34.276L66.172,34.276ZM56.901,72.839"/>
  <path stroke-opacity="1" stroke="none" stroke-miterlimit="4" fill="#000000" fill-opacity="1" stroke-width="1px" stroke-linecap="butt" fill-rule="nonzero" stroke-linejoin="miter" stroke-dasharray="none" d="M90.424,33.851L78.897,49.103L72.472,49.103L80.378,33.851ZM90.424,33.851"/>
</g>
  <g id="Regular-M" transform="matrix(1.0,0.0,0.0,1.0,1398.6751534037805,1043.5448446401642)">  <path fill="#000000" stroke-width="1px" data-name="Layer 4" fill-opacity="1" fill-rule="nonzero" stroke="none" stroke-opacity="1" stroke-linecap="butt" stroke-miterlimit="4" stroke-linejoin="miter" stroke-dasharray="none" d="M103.035,40.726C100.052,44.706,88.316,70.56,88.316,70.56C88.316,70.56,81.561,83.096,83.145,88.655C84.729,94.214,82.15,93.234,82.15,93.234C76.184,91.442,81.954,77.116,81.954,77.116L99.659,36.746C94.282,34.945,40.188,74.737,40.188,74.737C40.188,74.737,16.329,93.826,7.379,94.428C-1.57,95.029,5.784,84.082,5.784,84.082C4.986,81.102,37.606,34.17,43.769,26.007C49.932,17.844,58.189,4.137,58.189,4.137C41.379,5.331,8.767,24.019,8.767,24.019C5.784,27.002,2.801,27.406,2.801,27.406C-2.371,26.805,1.205,23.024,1.205,23.024C8.374,21.03,30.646,10.106,30.646,10.106C30.646,10.106,57.3,-2.231,62.064,0.356C66.828,2.943,60.069,9.109,60.069,9.109C58.28,10.303,23.48,58.431,15.508,71.754C7.536,85.077,7.963,89.852,7.963,89.852C15.123,89.652,32.629,76.726,32.629,76.726L74.993,47.197C74.993,47.197,97.473,32.549,101.462,32.381C105.451,32.213,106.021,36.749,103.035,40.726ZM103.035,40.726"/>
  <path stroke-dasharray="none" stroke-width="1px" fill-rule="nonzero" stroke-opacity="1" stroke-miterlimit="4" stroke="none" stroke-linejoin="miter" stroke-linecap="butt" fill-opacity="1" fill="#000000" d="M56.901,72.839L48.034,72.839L36.233,46.14L29.814,72.839L20.261,72.839L29.535,34.278L41.142,34.278L51.245,56.599L56.588,34.276L66.172,34.276ZM56.901,72.839"/>
  <path stroke-miterlimit="4" stroke="none" stroke-width="1px" stroke-opacity="1" stroke-linejoin="miter" stroke-dasharray="none" fill-rule="nonzero" fill-opacity="1" stroke-linecap="butt" fill="#000000" d="M90.424,33.851L78.897,49.103L72.472,49.103L80.378,33.851ZM90.424,33.851"/>
</g>
  <g id="Light-M" transform="matrix(1.0,0.0,0.0,1.0,1101.9651534037807,1043.5448446401642)">  <path stroke-miterlimit="4" data-name="Layer 4" stroke-linejoin="miter" stroke-linecap="butt" stroke-opacity="1" stroke="none" fill-opacity="1" stroke-dasharray="none" fill="#000000" stroke-width="1px" fill-rule="nonzero" d="M103.035,40.726C100.052,44.706,88.316,70.56,88.316,70.56C88.316,70.56,81.561,83.096,83.145,88.655C84.729,94.214,82.15,93.234,82.15,93.234C76.184,91.442,81.954,77.116,81.954,77.116L99.659,36.746C94.282,34.945,40.188,74.737,40.188,74.737C40.188,74.737,16.329,93.826,7.379,94.428C-1.57,95.029,5.784,84.082,5.784,84.082C4.986,81.102,37.606,34.17,43.769,26.007C49.932,17.844,58.189,4.137,58.189,4.137C41.379,5.331,8.767,24.019,8.767,24.019C5.784,27.002,2.801,27.406,2.801,27.406C-2.371,26.805,1.205,23.024,1.205,23.024C8.374,21.03,30.646,10.106,30.646,10.106C30.646,10.106,57.3,-2.231,62.064,0.356C66.828,2.943,60.069,9.109,60.069,9.109C58.28,10.303,23.48,58.431,15.508,71.754C7.536,85.077,7.963,89.852,7.963,89.852C15.123,89.652,32.629,76.726,32.629,76.726L74.993,47.197C74.993,47.197,97.473,32.549,101.462,32.381C105.451,32.213,106.021,36.749,103.035,40.726ZM103.035,40.726"/>
  <path stroke="none" fill-opacity="1" stroke-opacity="1" stroke-linecap="butt" fill="#000000" stroke-dasharray="none" stroke-width="1px" stroke-miterlimit="4" fill-rule="nonzero" stroke-linejoin="miter" d="M56.901,72.839L48.034,72.839L36.233,46.14L29.814,72.839L20.261,72.839L29.535,34.278L41.142,34.278L51.245,56.599L56.588,34.276L66.172,34.276ZM56.901,72.839"/>
  <path stroke-opacity="1" fill="#000000" stroke-width="1px" stroke-linecap="butt" fill-rule="nonzero" fill-opacity="1" stroke="none" stroke-linejoin="miter" stroke-dasharray="none" stroke-miterlimit="4" d="M90.424,33.851L78.897,49.103L72.472,49.103L80.378,33.851ZM90.424,33.851"/>
</g>
  <g id="Thin-M" transform="matrix(1.0,0.0,0.0,1.0,805.2551534037807,1043.5448446401642)">  <path stroke-width="1px" stroke-dasharray="none" data-name="Layer 4" fill="#000000" fill-rule="nonzero" fill-opacity="1" stroke-opacity="1" stroke="none" stroke-linejoin="miter" stroke-linecap="butt" stroke-miterlimit="4" d="M103.035,40.726C100.052,44.706,88.316,70.56,88.316,70.56C88.316,70.56,81.561,83.096,83.145,88.655C84.729,94.214,82.15,93.234,82.15,93.234C76.184,91.442,81.954,77.116,81.954,77.116L99.659,36.746C94.282,34.945,40.188,74.737,40.188,74.737C40.188,74.737,16.329,93.826,7.379,94.428C-1.57,95.029,5.784,84.082,5.784,84.082C4.986,81.102,37.606,34.17,43.769,26.007C49.932,17.844,58.189,4.137,58.189,4.137C41.379,5.331,8.767,24.019,8.767,24.019C5.784,27.002,2.801,27.406,2.801,27.406C-2.371,26.805,1.205,23.024,1.205,23.024C8.374,21.03,30.646,10.106,30.646,10.106C30.646,10.106,57.3,-2.231,62.064,0.356C66.828,2.943,60.069,9.109,60.069,9.109C58.28,10.303,23.48,58.431,15.508,71.754C7.536,85.077,7.963,89.852,7.963,89.852C15.123,89.652,32.629,76.726,32.629,76.726L74.993,47.197C74.993,47.197,97.473,32.549,101.462,32.381C105.451,32.213,106.021,36.749,103.035,40.726ZM103.035,40.726"/>
  <path fill-opacity="1" stroke-miterlimit="4" stroke-linejoin="miter" stroke-dasharray="none" fill-rule="nonzero" stroke-linecap="butt" stroke="none" stroke-width="1px" stroke-opacity="1" fill="#000000" d="M56.901,72.839L48.034,72.839L36.233,46.14L29.814,72.839L20.261,72.839L29.535,34.278L41.142,34.278L51.245,56.599L56.588,34.276L66.172,34.276ZM56.901,72.839"/>
  <path stroke-width="1px" fill-opacity="1" stroke="none" fill="#000000" fill-rule="nonzero" stroke-linejoin="miter" stroke-linecap="butt" stroke-opacity="1" stroke-dasharray="none" stroke-miterlimit="4" d="M90.424,33.851L78.897,49.103L72.472,49.103L80.378,33.851ZM90.424,33.851"/>
</g>
  <g id="Ultralight-M" transform="matrix(1.0,0.0,0.0,1.0,508.5451534037807,1043.5448446401642)">  <path stroke-miterlimit="4" stroke-linejoin="miter" stroke-dasharray="none" stroke="none" stroke-linecap="butt" stroke-width="1px" data-name="Layer 4" fill-opacity="1" stroke-opacity="1" fill="#000000" fill-rule="nonzero" d="M103.035,40.726C100.052,44.706,88.316,70.56,88.316,70.56C88.316,70.56,81.561,83.096,83.145,88.655C84.729,94.214,82.15,93.234,82.15,93.234C76.184,91.442,81.954,77.116,81.954,77.116L99.659,36.746C94.282,34.945,40.188,74.737,40.188,74.737C40.188,74.737,16.329,93.826,7.379,94.428C-1.57,95.029,5.784,84.082,5.784,84.082C4.986,81.102,37.606,34.17,43.769,26.007C49.932,17.844,58.189,4.137,58.189,4.137C41.379,5.331,8.767,24.019,8.767,24.019C5.784,27.002,2.801,27.406,2.801,27.406C-2.371,26.805,1.205,23.024,1.205,23.024C8.374,21.03,30.646,10.106,30.646,10.106C30.646,10.106,57.3,-2.231,62.064,0.356C66.828,2.943,60.069,9.109,60.069,9.109C58.28,10.303,23.48,58.431,15.508,71.754C7.536,85.077,7.963,89.852,7.963,89.852C15.123,89.652,32.629,76.726,32.629,76.726L74.993,47.197C74.993,47.197,97.473,32.549,101.462,32.381C105.451,32.213,106.021,36.749,103.035,40.726ZM103.035,40.726"/>
  <path stroke-linejoin="miter" fill="#000000" fill-opacity="1" stroke-dasharray="none" stroke-width="1px" stroke-miterlimit="4" fill-rule="nonzero" stroke="none" stroke-opacity="1" stroke-linecap="butt" d="M56.901,72.839L48.034,72.839L36.233,46.14L29.814,72.839L20.261,72.839L29.535,34.278L41.142,34.278L51.245,56.599L56.588,34.276L66.172,34.276ZM56.901,72.839"/>
  <path stroke-miterlimit="4" stroke-linecap="butt" stroke-opacity="1" stroke-width="1px" stroke-dasharray="none" fill-rule="nonzero" stroke-linejoin="miter" fill-opacity="1" stroke="none" fill="#000000" d="M90.424,33.851L78.897,49.103L72.472,49.103L80.378,33.851ZM90.424,33.851"/>
</g>
  <g id="Black-S" transform="matrix(1.0,0.0,0.0,1.0,2893.60785511516,623.7927075915298)">  <path fill="#000000" fill-opacity="1" stroke-width="1px" fill-rule="nonzero" stroke-dasharray="none" stroke="none" stroke-linecap="butt" stroke-opacity="1" stroke-miterlimit="4" stroke-linejoin="miter" data-name="Layer 4" d="M80.676,31.889C78.341,35.005,69.151,55.248,69.151,55.248C69.151,55.248,63.862,65.064,65.102,69.417C66.343,73.769,64.324,73.002,64.324,73.002C59.652,71.599,64.17,60.382,64.17,60.382L78.033,28.772C73.823,27.362,31.467,58.519,31.467,58.519C31.467,58.519,12.785,73.466,5.778,73.937C-1.229,74.407,4.529,65.836,4.529,65.836C3.904,63.503,29.446,26.755,34.271,20.364C39.097,13.972,45.562,3.239,45.562,3.239C32.399,4.174,6.865,18.807,6.865,18.807C4.529,21.142,2.193,21.459,2.193,21.459C-1.856,20.988,0.944,18.028,0.944,18.028C6.557,16.466,23.996,7.913,23.996,7.913C23.996,7.913,44.866,-1.747,48.596,0.279C52.326,2.305,47.034,7.132,47.034,7.132C45.633,8.067,18.385,45.751,12.143,56.183C5.901,66.615,6.235,70.354,6.235,70.354C11.842,70.198,25.548,60.076,25.548,60.076L58.72,36.955C58.72,36.955,76.322,25.486,79.445,25.354C82.568,25.223,83.014,28.774,80.676,31.889ZM80.676,31.889"/>
  <path fill-opacity="1" fill="#000000" stroke="none" stroke-dasharray="none" stroke-miterlimit="4" stroke-linejoin="miter" stroke-opacity="1" stroke-linecap="butt" stroke-width="1px" fill-rule="nonzero" d="M44.553,57.033L37.611,57.033L28.37,36.127L23.344,57.033L15.864,57.033L23.126,26.84L32.214,26.84L40.125,44.317L44.308,26.838L51.813,26.838ZM44.553,57.033"/>
  <path fill="#000000" stroke-linejoin="miter" stroke-dasharray="none" stroke="none" stroke-miterlimit="4" stroke-width="1px" fill-rule="nonzero" stroke-opacity="1" fill-opacity="1" stroke-linecap="butt" d="M70.802,26.505L61.776,38.447L56.745,38.447L62.936,26.505ZM70.802,26.505"/>
</g>
  <g id="Heavy-S" transform="matrix(1.0,0.0,0.0,1.0,2596.89785511516,623.7927075915298)">  <path stroke="none" fill-rule="nonzero" fill-opacity="1" stroke-linejoin="miter" stroke-miterlimit="4" data-name="Layer 4" stroke-dasharray="none" stroke-opacity="1" stroke-width="1px" fill="#000000" stroke-linecap="butt" d="M80.676,31.889C78.341,35.005,69.151,55.248,69.151,55.248C69.151,55.248,63.862,65.064,65.102,69.417C66.343,73.769,64.324,73.002,64.324,73.002C59.652,71.599,64.17,60.382,64.17,60.382L78.033,28.772C73.823,27.362,31.467,58.519,31.467,58.519C31.467,58.519,12.785,73.466,5.778,73.937C-1.229,74.407,4.529,65.836,4.529,65.836C3.904,63.503,29.446,26.755,34.271,20.364C39.097,13.972,45.562,3.239,45.562,3.239C32.399,4.174,6.865,18.807,6.865,18.807C4.529,21.142,2.193,21.459,2.193,21.459C-1.856,20.988,0.944,18.028,0.944,18.028C6.557,16.466,23.996,7.913,23.996,7.913C23.996,7.913,44.866,-1.747,48.596,0.279C52.326,2.305,47.034,7.132,47.034,7.132C45.633,8.067,18.385,45.751,12.143,56.183C5.901,66.615,6.235,70.354,6.235,70.354C11.842,70.198,25.548,60.076,25.548,60.076L58.72,36.955C58.72,36.955,76.322,25.486,79.445,25.354C82.568,25.223,83.014,28.774,80.676,31.889ZM80.676,31.889"/>
  <path fill-opacity="1" stroke-opacity="1" stroke-linejoin="miter" stroke-dasharray="none" stroke-width="1px" fill="#000000" stroke="none" fill-rule="nonzero" stroke-miterlimit="4" stroke-linecap="butt" d="M44.553,57.033L37.611,57.033L28.37,36.127L23.344,57.033L15.864,57.033L23.126,26.84L32.214,26.84L40.125,44.317L44.308,26.838L51.813,26.838ZM44.553,57.033"/>
  <path stroke-linecap="butt" stroke-miterlimit="4" fill="#000000" stroke-opacity="1" stroke-width="1px" fill-opacity="1" stroke-linejoin="miter" stroke="none" fill-rule="nonzero" stroke-dasharray="none" d="M70.802,26.505L61.776,38.447L56.745,38.447L62.936,26.505ZM70.802,26.505"/>
</g>
  <g id="Bold-S" transform="matrix(1.0,0.0,0.0,1.0,2300.18785511516,623.7927075915298)">  <path stroke-linejoin="miter" stroke-linecap="butt" stroke="none" data-name="Layer 4" fill-rule="nonzero" stroke-width="1px" stroke-miterlimit="4" stroke-dasharray="none" fill-opacity="1" fill="#000000" stroke-opacity="1" d="M80.676,31.889C78.341,35.005,69.151,55.248,69.151,55.248C69.151,55.248,63.862,65.064,65.102,69.417C66.343,73.769,64.324,73.002,64.324,73.002C59.652,71.599,64.17,60.382,64.17,60.382L78.033,28.772C73.823,27.362,31.467,58.519,31.467,58.519C31.467,58.519,12.785,73.466,5.778,73.937C-1.229,74.407,4.529,65.836,4.529,65.836C3.904,63.503,29.446,26.755,34.271,20.364C39.097,13.972,45.562,3.239,45.562,3.239C32.399,4.174,6.865,18.807,6.865,18.807C4.529,21.142,2.193,21.459,2.193,21.459C-1.856,20.988,0.944,18.028,0.944,18.028C6.557,16.466,23.996,7.913,23.996,7.913C23.996,7.913,44.866,-1.747,48.596,0.279C52.326,2.305,47.034,7.132,47.034,7.132C45.633,8.067,18.385,45.751,12.143,56.183C5.901,66.615,6.235,70.354,6.235,70.354C11.842,70.198,25.548,60.076,25.548,60.076L58.72,36.955C58.72,36.955,76.322,25.486,79.445,25.354C82.568,25.223,83.014,28.774,80.676,31.889ZM80.676,31.889"/>
  <path stroke-opacity="1" stroke-linecap="butt" stroke-width="1px" fill-opacity="1" stroke-dasharray="none" stroke="none" fill-rule="nonzero" fill="#000000" stroke-miterlimit="4" stroke-linejoin="miter" d="M44.553,57.033L37.611,57.033L28.37,36.127L23.344,57.033L15.864,57.033L23.126,26.84L32.214,26.84L40.125,44.317L44.308,26.838L51.813,26.838ZM44.553,57.033"/>
  <path stroke-dasharray="none" fill="#000000" stroke="none" stroke-linejoin="miter" stroke-width="1px" stroke-opacity="1" stroke-linecap="butt" fill-opacity="1" fill-rule="nonzero" stroke-miterlimit="4" d="M70.802,26.505L61.776,38.447L56.745,38.447L62.936,26.505ZM70.802,26.505"/>
</g>
  <g id="Semibold-S" transform="matrix(1.0,0.0,0.0,1.0,2003.4778551151603,623.7927075915298)">  <path stroke-miterlimit="4" fill-opacity="1" fill-rule="nonzero" stroke-linejoin="miter" stroke-linecap="butt" data-name="Layer 4" stroke-opacity="1" stroke-dasharray="none" stroke="none" stroke-width="1px" fill="#000000" d="M80.676,31.889C78.341,35.005,69.151,55.248,69.151,55.248C69.151,55.248,63.862,65.064,65.102,69.417C66.343,73.769,64.324,73.002,64.324,73.002C59.652,71.599,64.17,60.382,64.17,60.382L78.033,28.772C73.823,27.362,31.467,58.519,31.467,58.519C31.467,58.519,12.785,73.466,5.778,73.937C-1.229,74.407,4.529,65.836,4.529,65.836C3.904,63.503,29.446,26.755,34.271,20.364C39.097,13.972,45.562,3.239,45.562,3.239C32.399,4.174,6.865,18.807,6.865,18.807C4.529,21.142,2.193,21.459,2.193,21.459C-1.856,20.988,0.944,18.028,0.944,18.028C6.557,16.466,23.996,7.913,23.996,7.913C23.996,7.913,44.866,-1.747,48.596,0.279C52.326,2.305,47.034,7.132,47.034,7.132C45.633,8.067,18.385,45.751,12.143,56.183C5.901,66.615,6.235,70.354,6.235,70.354C11.842,70.198,25.548,60.076,25.548,60.076L58.72,36.955C58.72,36.955,76.322,25.486,79.445,25.354C82.568,25.223,83.014,28.774,80.676,31.889ZM80.676,31.889"/>
  <path fill-rule="nonzero" stroke="none" stroke-linecap="butt" fill="#000000" stroke-opacity="1" stroke-width="1px" stroke-linejoin="miter" stroke-miterlimit="4" stroke-dasharray="none" fill-opacity="1" d="M44.553,57.033L37.611,57.033L28.37,36.127L23.344,57.033L15.864,57.033L23.126,26.84L32.214,26.84L40.125,44.317L44.308,26.838L51.813,26.838ZM44.553,57.033"/>
  <path stroke-linejoin="miter" stroke="none" stroke-opacity="1" fill="#000000" stroke-linecap="butt" fill-rule="nonzero" stroke-miterlimit="4" stroke-width="1px" fill-opacity="1" stroke-dasharray="none" d="M70.802,26.505L61.776,38.447L56.745,38.447L62.936,26.505ZM70.802,26.505"/>
</g>
  <g id="Medium-S" transform="matrix(1.0,0.0,0.0,1.0,1706.7678551151603,623.7927075915298)">  <path stroke-linejoin="miter" stroke-linecap="butt" stroke-dasharray="none" stroke="none" stroke-width="1px" fill="#000000" stroke-miterlimit="4" data-name="Layer 4" fill-rule="nonzero" stroke-opacity="1" fill-opacity="1" d="M80.676,31.889C78.341,35.005,69.151,55.248,69.151,55.248C69.151,55.248,63.862,65.064,65.102,69.417C66.343,73.769,64.324,73.002,64.324,73.002C59.652,71.599,64.17,60.382,64.17,60.382L78.033,28.772C73.823,27.362,31.467,58.519,31.467,58.519C31.467,58.519,12.785,73.466,5.778,73.937C-1.229,74.407,4.529,65.836,4.529,65.836C3.904,63.503,29.446,26.755,34.271,20.364C39.097,13.972,45.562,3.239,45.562,3.239C32.399,4.174,6.865,18.807,6.865,18.807C4.529,21.142,2.193,21.459,2.193,21.459C-1.856,20.988,0.944,18.028,0.944,18.028C6.557,16.466,23.996,7.913,23.996,7.913C23.996,7.913,44.866,-1.747,48.596,0.279C52.326,2.305,47.034,7.132,47.034,7.132C45.633,8.067,18.385,45.751,12.143,56.183C5.901,66.615,6.235,70.354,6.235,70.354C11.842,70.198,25.548,60.076,25.548,60.076L58.72,36.955C58.72,36.955,76.322,25.486,79.445,25.354C82.568,25.223,83.014,28.774,80.676,31.889ZM80.676,31.889"/>
  <path stroke-width="1px" stroke-opacity="1" fill-rule="nonzero" stroke-dasharray="none" stroke-linejoin="miter" stroke="none" fill-opacity="1" stroke-linecap="butt" stroke-miterlimit="4" fill="#000000" d="M44.553,57.033L37.611,57.033L28.37,36.127L23.344,57.033L15.864,57.033L23.126,26.84L32.214,26.84L40.125,44.317L44.308,26.838L51.813,26.838ZM44.553,57.033"/>
  <path stroke-opacity="1" stroke="none" stroke-miterlimit="4" fill="#000000" fill-opacity="1" stroke-width="1px" stroke-linecap="butt" fill-rule="nonzero" stroke-linejoin="miter" stroke-dasharray="none" d="M70.802,26.505L61.776,38.447L56.745,38.447L62.936,26.505ZM70.802,26.505"/>
</g>
  <g id="Regular-S" transform="matrix(1.0,0.0,0.0,1.0,1410.0578551151602,623.7927075915298)">  <path fill="#000000" stroke-width="1px" data-name="Layer 4" fill-opacity="1" fill-rule="nonzero" stroke="none" stroke-opacity="1" stroke-linecap="butt" stroke-miterlimit="4" stroke-linejoin="miter" stroke-dasharray="none" d="M80.676,31.889C78.341,35.005,69.151,55.248,69.151,55.248C69.151,55.248,63.862,65.064,65.102,69.417C66.343,73.769,64.324,73.002,64.324,73.002C59.652,71.599,64.17,60.382,64.17,60.382L78.033,28.772C73.823,27.362,31.467,58.519,31.467,58.519C31.467,58.519,12.785,73.466,5.778,73.937C-1.229,74.407,4.529,65.836,4.529,65.836C3.904,63.503,29.446,26.755,34.271,20.364C39.097,13.972,45.562,3.239,45.562,3.239C32.399,4.174,6.865,18.807,6.865,18.807C4.529,21.142,2.193,21.459,2.193,21.459C-1.856,20.988,0.944,18.028,0.944,18.028C6.557,16.466,23.996,7.913,23.996,7.913C23.996,7.913,44.866,-1.747,48.596,0.279C52.326,2.305,47.034,7.132,47.034,7.132C45.633,8.067,18.385,45.751,12.143,56.183C5.901,66.615,6.235,70.354,6.235,70.354C11.842,70.198,25.548,60.076,25.548,60.076L58.72,36.955C58.72,36.955,76.322,25.486,79.445,25.354C82.568,25.223,83.014,28.774,80.676,31.889ZM80.676,31.889"/>
  <path stroke-dasharray="none" stroke-width="1px" fill-rule="nonzero" stroke-opacity="1" stroke-miterlimit="4" stroke="none" stroke-linejoin="miter" stroke-linecap="butt" fill-opacity="1" fill="#000000" d="M44.553,57.033L37.611,57.033L28.37,36.127L23.344,57.033L15.864,57.033L23.126,26.84L32.214,26.84L40.125,44.317L44.308,26.838L51.813,26.838ZM44.553,57.033"/>
  <path stroke-miterlimit="4" stroke="none" stroke-width="1px" stroke-opacity="1" stroke-linejoin="miter" stroke-dasharray="none" fill-rule="nonzero" fill-opacity="1" stroke-linecap="butt" fill="#000000" d="M70.802,26.505L61.776,38.447L56.745,38.447L62.936,26.505ZM70.802,26.505"/>
</g>
  <g id="Light-S" transform="matrix(1.0,0.0,0.0,1.0,1113.3478551151604,623.7927075915298)">  <path stroke-miterlimit="4" data-name="Layer 4" stroke-linejoin="miter" stroke-linecap="butt" stroke-opacity="1" stroke="none" fill-opacity="1" stroke-dasharray="none" fill="#000000" stroke-width="1px" fill-rule="nonzero" d="M80.676,31.889C78.341,35.005,69.151,55.248,69.151,55.248C69.151,55.248,63.862,65.064,65.102,69.417C66.343,73.769,64.324,73.002,64.324,73.002C59.652,71.599,64.17,60.382,64.17,60.382L78.033,28.772C73.823,27.362,31.467,58.519,31.467,58.519C31.467,58.519,12.785,73.466,5.778,73.937C-1.229,74.407,4.529,65.836,4.529,65.836C3.904,63.503,29.446,26.755,34.271,20.364C39.097,13.972,45.562,3.239,45.562,3.239C32.399,4.174,6.865,18.807,6.865,18.807C4.529,21.142,2.193,21.459,2.193,21.459C-1.856,20.988,0.944,18.028,0.944,18.028C6.557,16.466,23.996,7.913,23.996,7.913C23.996,7.913,44.866,-1.747,48.596,0.279C52.326,2.305,47.034,7.132,47.034,7.132C45.633,8.067,18.385,45.751,12.143,56.183C5.901,66.615,6.235,70.354,6.235,70.354C11.842,70.198,25.548,60.076,25.548,60.076L58.72,36.955C58.72,36.955,76.322,25.486,79.445,25.354C82.568,25.223,83.014,28.774,80.676,31.889ZM80.676,31.889"/>
  <path stroke="none" fill-opacity="1" stroke-opacity="1" stroke-linecap="butt" fill="#000000" stroke-dasharray="none" stroke-width="1px" stroke-miterlimit="4" fill-rule="nonzero" stroke-linejoin="miter" d="M44.553,57.033L37.611,57.033L28.37,36.127L23.344,57.033L15.864,57.033L23.126,26.84L32.214,26.84L40.125,44.317L44.308,26.838L51.813,26.838ZM44.553,57.033"/>
  <path stroke-opacity="1" fill="#000000" stroke-width="1px" stroke-linecap="butt" fill-rule="nonzero" fill-opacity="1" stroke="none" stroke-linejoin="miter" stroke-dasharray="none" stroke-miterlimit="4" d="M70.802,26.505L61.776,38.447L56.745,38.447L62.936,26.505ZM70.802,26.505"/>
</g>
  <g id="Thin-S" transform="matrix(1.0,0.0,0.0,1.0,816.6378551151603,623.7927075915298)">  <path stroke-width="1px" stroke-dasharray="none" data-name="Layer 4" fill="#000000" fill-rule="nonzero" fill-opacity="1" stroke-opacity="1" stroke="none" stroke-linejoin="miter" stroke-linecap="butt" stroke-miterlimit="4" d="M80.676,31.889C78.341,35.005,69.151,55.248,69.151,55.248C69.151,55.248,63.862,65.064,65.102,69.417C66.343,73.769,64.324,73.002,64.324,73.002C59.652,71.599,64.17,60.382,64.17,60.382L78.033,28.772C73.823,27.362,31.467,58.519,31.467,58.519C31.467,58.519,12.785,73.466,5.778,73.937C-1.229,74.407,4.529,65.836,4.529,65.836C3.904,63.503,29.446,26.755,34.271,20.364C39.097,13.972,45.562,3.239,45.562,3.239C32.399,4.174,6.865,18.807,6.865,18.807C4.529,21.142,2.193,21.459,2.193,21.459C-1.856,20.988,0.944,18.028,0.944,18.028C6.557,16.466,23.996,7.913,23.996,7.913C23.996,7.913,44.866,-1.747,48.596,0.279C52.326,2.305,47.034,7.132,47.034,7.132C45.633,8.067,18.385,45.751,12.143,56.183C5.901,66.615,6.235,70.354,6.235,70.354C11.842,70.198,25.548,60.076,25.548,60.076L58.72,36.955C58.72,36.955,76.322,25.486,79.445,25.354C82.568,25.223,83.014,28.774,80.676,31.889ZM80.676,31.889"/>
  <path fill-opacity="1" stroke-miterlimit="4" stroke-linejoin="miter" stroke-dasharray="none" fill-rule="nonzero" stroke-linecap="butt" stroke="none" stroke-width="1px" stroke-opacity="1" fill="#000000" d="M44.553,57.033L37.611,57.033L28.37,36.127L23.344,57.033L15.864,57.033L23.126,26.84L32.214,26.84L40.125,44.317L44.308,26.838L51.813,26.838ZM44.553,57.033"/>
  <path stroke-width="1px" fill-opacity="1" stroke="none" fill="#000000" fill-rule="nonzero" stroke-linejoin="miter" stroke-linecap="butt" stroke-opacity="1" stroke-dasharray="none" stroke-miterlimit="4" d="M70.802,26.505L61.776,38.447L56.745,38.447L62.936,26.505ZM70.802,26.505"/>
</g>
  <g id="Ultralight-S" transform="matrix(1.0,0.0,0.0,1.0,519.9278551151602,623.7927075915298)">  <path stroke-miterlimit="4" stroke-linejoin="miter" stroke-dasharray="none" stroke="none" stroke-linecap="butt" stroke-width="1px" data-name="Layer 4" fill-opacity="1" stroke-opacity="1" fill="#000000" fill-rule="nonzero" d="M80.676,31.889C78.341,35.005,69.151,55.248,69.151,55.248C69.151,55.248,63.862,65.064,65.102,69.417C66.343,73.769,64.324,73.002,64.324,73.002C59.652,71.599,64.17,60.382,64.17,60.382L78.033,28.772C73.823,27.362,31.467,58.519,31.467,58.519C31.467,58.519,12.785,73.466,5.778,73.937C-1.229,74.407,4.529,65.836,4.529,65.836C3.904,63.503,29.446,26.755,34.271,20.364C39.097,13.972,45.562,3.239,45.562,3.239C32.399,4.174,6.865,18.807,6.865,18.807C4.529,21.142,2.193,21.459,2.193,21.459C-1.856,20.988,0.944,18.028,0.944,18.028C6.557,16.466,23.996,7.913,23.996,7.913C23.996,7.913,44.866,-1.747,48.596,0.279C52.326,2.305,47.034,7.132,47.034,7.132C45.633,8.067,18.385,45.751,12.143,56.183C5.901,66.615,6.235,70.354,6.235,70.354C11.842,70.198,25.548,60.076,25.548,60.076L58.72,36.955C58.72,36.955,76.322,25.486,79.445,25.354C82.568,25.223,83.014,28.774,80.676,31.889ZM80.676,31.889"/>
  <path stroke-linejoin="miter" fill="#000000" fill-opacity="1" stroke-dasharray="none" stroke-width="1px" stroke-miterlimit="4" fill-rule="nonzero" stroke="none" stroke-opacity="1" stroke-linecap="butt" d="M44.553,57.033L37.611,57.033L28.37,36.127L23.344,57.033L15.864,57.033L23.126,26.84L32.214,26.84L40.125,44.317L44.308,26.838L51.813,26.838ZM44.553,57.033"/>
  <path stroke-miterlimit="4" stroke-linecap="butt" stroke-opacity="1" stroke-width="1px" stroke-dasharray="none" fill-rule="nonzero" stroke-linejoin="miter" fill-opacity="1" stroke="none" fill="#000000" d="M70.802,26.505L61.776,38.447L56.745,38.447L62.936,26.505ZM70.802,26.505"/>
</g>
 </g>
</svg>
